<mxfile host="app.diagrams.net" modified="2023-08-17T08:19:39.707Z" agent="Mozilla/5.0 (Windows NT 10.0; Win64; x64) AppleWebKit/537.36 (KHTML, like Gecko) Chrome/114.0.0.0 Safari/537.36" etag="q-PW0hbF0FNQDNOEWMCx" version="21.6.8" type="github">
  <diagram name="第 1 页" id="SKGtHfz4EE8g_Jv6Ql24">
    <mxGraphModel dx="3088" dy="788" grid="1" gridSize="10" guides="1" tooltips="1" connect="1" arrows="1" fold="1" page="1" pageScale="1" pageWidth="827" pageHeight="1169" math="0" shadow="0">
      <root>
        <mxCell id="0" />
        <mxCell id="1" parent="0" />
        <mxCell id="BzhLNjvLBWkgz3VRTSKQ-162" value="&lt;span style=&quot;font-size: 16px;&quot;&gt;噪声声源自动定位系统&lt;br&gt;&lt;/span&gt;" style="rounded=1;whiteSpace=wrap;html=1;verticalAlign=top;" vertex="1" parent="1">
          <mxGeometry x="-990" y="5535" width="373" height="330" as="geometry" />
        </mxCell>
        <mxCell id="0iMLNUh1rzV7FVRTZrC5-33" value="&lt;span style=&quot;font-size: 16px;&quot;&gt;ES7210组&lt;br&gt;&lt;/span&gt;" style="rounded=1;whiteSpace=wrap;html=1;verticalAlign=top;" parent="1" vertex="1">
          <mxGeometry x="-827" y="3600" width="437" height="610" as="geometry" />
        </mxCell>
        <mxCell id="pUKFL5h7S0owQCvHCEkm-30" style="edgeStyle=orthogonalEdgeStyle;rounded=0;orthogonalLoop=1;jettySize=auto;html=1;entryX=0;entryY=0.5;entryDx=0;entryDy=0;" parent="1" source="pUKFL5h7S0owQCvHCEkm-6" target="pUKFL5h7S0owQCvHCEkm-29" edge="1">
          <mxGeometry relative="1" as="geometry" />
        </mxCell>
        <mxCell id="pUKFL5h7S0owQCvHCEkm-6" value="&lt;span style=&quot;font-size: 20px;&quot;&gt;&lt;br&gt;&lt;/span&gt;" style="rounded=1;whiteSpace=wrap;html=1;verticalAlign=top;" parent="1" vertex="1">
          <mxGeometry x="-812" y="3650" width="180" height="120" as="geometry" />
        </mxCell>
        <mxCell id="6IRPAobaThImXXzAXcsa-7" value="" style="rounded=1;whiteSpace=wrap;html=1;" parent="1" vertex="1">
          <mxGeometry x="-827" y="10" width="830" height="350" as="geometry" />
        </mxCell>
        <mxCell id="6IRPAobaThImXXzAXcsa-9" style="edgeStyle=orthogonalEdgeStyle;rounded=0;orthogonalLoop=1;jettySize=auto;html=1;entryX=0.5;entryY=0;entryDx=0;entryDy=0;" parent="1" source="6IRPAobaThImXXzAXcsa-8" edge="1">
          <mxGeometry relative="1" as="geometry">
            <mxPoint x="-752" y="150" as="targetPoint" />
          </mxGeometry>
        </mxCell>
        <mxCell id="6IRPAobaThImXXzAXcsa-8" value="&lt;font style=&quot;font-size: 16px;&quot;&gt;32路麦克风采集&lt;/font&gt;" style="rounded=1;whiteSpace=wrap;html=1;fillColor=#dae8fc;strokeColor=#6c8ebf;" parent="1" vertex="1">
          <mxGeometry x="-812" y="30" width="120" height="60" as="geometry" />
        </mxCell>
        <mxCell id="6IRPAobaThImXXzAXcsa-28" value="&lt;div style=&quot;&quot;&gt;&lt;span style=&quot;font-size: 16px;&quot;&gt;I2S接口&lt;/span&gt;&lt;/div&gt;" style="text;html=1;align=center;verticalAlign=middle;resizable=0;points=[];autosize=1;strokeColor=none;fillColor=none;" parent="1" vertex="1">
          <mxGeometry x="-757" y="110" width="80" height="30" as="geometry" />
        </mxCell>
        <mxCell id="6IRPAobaThImXXzAXcsa-29" style="edgeStyle=orthogonalEdgeStyle;rounded=0;orthogonalLoop=1;jettySize=auto;html=1;exitX=0.5;exitY=1;exitDx=0;exitDy=0;" parent="1" edge="1">
          <mxGeometry relative="1" as="geometry">
            <mxPoint x="-537" y="240" as="sourcePoint" />
            <mxPoint x="-537" y="240" as="targetPoint" />
          </mxGeometry>
        </mxCell>
        <mxCell id="6IRPAobaThImXXzAXcsa-30" value="&lt;font style=&quot;font-size: 16px;&quot;&gt;RT1176&lt;/font&gt;" style="rounded=1;whiteSpace=wrap;html=1;fillColor=#dae8fc;strokeColor=#6c8ebf;verticalAlign=top;" parent="1" vertex="1">
          <mxGeometry x="-812" y="150" width="120" height="180" as="geometry" />
        </mxCell>
        <mxCell id="6IRPAobaThImXXzAXcsa-33" style="edgeStyle=orthogonalEdgeStyle;rounded=0;orthogonalLoop=1;jettySize=auto;html=1;entryX=0.5;entryY=0;entryDx=0;entryDy=0;" parent="1" source="6IRPAobaThImXXzAXcsa-31" target="6IRPAobaThImXXzAXcsa-32" edge="1">
          <mxGeometry relative="1" as="geometry" />
        </mxCell>
        <mxCell id="6IRPAobaThImXXzAXcsa-31" value="&lt;span style=&quot;font-size: 16px;&quot;&gt;麦克风采集&lt;/span&gt;" style="rounded=1;whiteSpace=wrap;html=1;dashed=1;fillColor=#dae8fc;strokeColor=#6c8ebf;" parent="1" vertex="1">
          <mxGeometry x="-812" y="180" width="120" height="60" as="geometry" />
        </mxCell>
        <mxCell id="6IRPAobaThImXXzAXcsa-38" style="edgeStyle=orthogonalEdgeStyle;rounded=0;orthogonalLoop=1;jettySize=auto;html=1;exitX=1;exitY=0.5;exitDx=0;exitDy=0;" parent="1" source="6IRPAobaThImXXzAXcsa-32" target="6IRPAobaThImXXzAXcsa-35" edge="1">
          <mxGeometry relative="1" as="geometry" />
        </mxCell>
        <mxCell id="6IRPAobaThImXXzAXcsa-32" value="&lt;span style=&quot;font-size: 16px;&quot;&gt;udp网络发送&lt;/span&gt;" style="rounded=1;whiteSpace=wrap;html=1;dashed=1;fillColor=#dae8fc;strokeColor=#6c8ebf;" parent="1" vertex="1">
          <mxGeometry x="-812" y="270" width="120" height="60" as="geometry" />
        </mxCell>
        <mxCell id="6IRPAobaThImXXzAXcsa-34" value="&lt;font style=&quot;font-size: 16px;&quot;&gt;RK3568&lt;/font&gt;" style="rounded=1;whiteSpace=wrap;html=1;fillColor=#dae8fc;strokeColor=#6c8ebf;verticalAlign=top;" parent="1" vertex="1">
          <mxGeometry x="-587" y="30" width="120" height="300" as="geometry" />
        </mxCell>
        <mxCell id="6IRPAobaThImXXzAXcsa-42" style="edgeStyle=orthogonalEdgeStyle;rounded=0;orthogonalLoop=1;jettySize=auto;html=1;exitX=0.5;exitY=0;exitDx=0;exitDy=0;" parent="1" source="6IRPAobaThImXXzAXcsa-35" target="6IRPAobaThImXXzAXcsa-40" edge="1">
          <mxGeometry relative="1" as="geometry" />
        </mxCell>
        <mxCell id="6IRPAobaThImXXzAXcsa-35" value="&lt;span style=&quot;font-size: 16px;&quot;&gt;udp网络接收&lt;/span&gt;" style="rounded=1;whiteSpace=wrap;html=1;dashed=1;fillColor=#dae8fc;strokeColor=#6c8ebf;" parent="1" vertex="1">
          <mxGeometry x="-587" y="270" width="120" height="60" as="geometry" />
        </mxCell>
        <mxCell id="6IRPAobaThImXXzAXcsa-39" value="&lt;div style=&quot;&quot;&gt;&lt;span style=&quot;font-size: 16px;&quot;&gt;千兆网口&lt;/span&gt;&lt;/div&gt;" style="text;html=1;align=center;verticalAlign=middle;resizable=0;points=[];autosize=1;strokeColor=none;fillColor=none;" parent="1" vertex="1">
          <mxGeometry x="-682" y="270" width="90" height="30" as="geometry" />
        </mxCell>
        <mxCell id="6IRPAobaThImXXzAXcsa-44" style="edgeStyle=orthogonalEdgeStyle;rounded=0;orthogonalLoop=1;jettySize=auto;html=1;exitX=0.5;exitY=0;exitDx=0;exitDy=0;entryX=0.5;entryY=1;entryDx=0;entryDy=0;" parent="1" source="6IRPAobaThImXXzAXcsa-40" target="6IRPAobaThImXXzAXcsa-43" edge="1">
          <mxGeometry relative="1" as="geometry" />
        </mxCell>
        <mxCell id="6IRPAobaThImXXzAXcsa-40" value="&lt;span style=&quot;font-size: 16px;&quot;&gt;声源定位算法&lt;br&gt;处理&lt;br&gt;&lt;/span&gt;" style="rounded=1;whiteSpace=wrap;html=1;dashed=1;fillColor=#dae8fc;strokeColor=#6c8ebf;" parent="1" vertex="1">
          <mxGeometry x="-587" y="180" width="120" height="60" as="geometry" />
        </mxCell>
        <mxCell id="6IRPAobaThImXXzAXcsa-47" style="edgeStyle=orthogonalEdgeStyle;rounded=0;orthogonalLoop=1;jettySize=auto;html=1;" parent="1" source="6IRPAobaThImXXzAXcsa-43" target="6IRPAobaThImXXzAXcsa-46" edge="1">
          <mxGeometry relative="1" as="geometry" />
        </mxCell>
        <mxCell id="6IRPAobaThImXXzAXcsa-43" value="&lt;span style=&quot;font-size: 16px;&quot;&gt;声源定位算法&lt;br&gt;输出矩阵&lt;br&gt;&lt;/span&gt;" style="rounded=1;whiteSpace=wrap;html=1;dashed=1;fillColor=#dae8fc;strokeColor=#6c8ebf;" parent="1" vertex="1">
          <mxGeometry x="-587" y="80" width="120" height="60" as="geometry" />
        </mxCell>
        <mxCell id="6IRPAobaThImXXzAXcsa-45" value="&lt;font style=&quot;font-size: 16px;&quot;&gt;云平台&lt;/font&gt;" style="rounded=1;whiteSpace=wrap;html=1;fillColor=#dae8fc;strokeColor=#6c8ebf;verticalAlign=top;" parent="1" vertex="1">
          <mxGeometry x="-397" y="30" width="120" height="300" as="geometry" />
        </mxCell>
        <mxCell id="6IRPAobaThImXXzAXcsa-55" style="edgeStyle=orthogonalEdgeStyle;rounded=0;orthogonalLoop=1;jettySize=auto;html=1;exitX=0.5;exitY=1;exitDx=0;exitDy=0;" parent="1" source="6IRPAobaThImXXzAXcsa-46" target="6IRPAobaThImXXzAXcsa-50" edge="1">
          <mxGeometry relative="1" as="geometry" />
        </mxCell>
        <mxCell id="6IRPAobaThImXXzAXcsa-46" value="&lt;span style=&quot;font-size: 16px;&quot;&gt;声源定位算法&lt;br&gt;输出图片&lt;br&gt;&lt;/span&gt;" style="rounded=1;whiteSpace=wrap;html=1;dashed=1;fillColor=#dae8fc;strokeColor=#6c8ebf;" parent="1" vertex="1">
          <mxGeometry x="-397" y="80" width="120" height="60" as="geometry" />
        </mxCell>
        <mxCell id="6IRPAobaThImXXzAXcsa-48" value="&lt;div style=&quot;&quot;&gt;&lt;span style=&quot;font-size: 16px;&quot;&gt;千兆网口&lt;/span&gt;&lt;/div&gt;" style="text;html=1;align=center;verticalAlign=middle;resizable=0;points=[];autosize=1;strokeColor=none;fillColor=none;" parent="1" vertex="1">
          <mxGeometry x="-477" y="80" width="90" height="30" as="geometry" />
        </mxCell>
        <mxCell id="6IRPAobaThImXXzAXcsa-49" value="&lt;font style=&quot;font-size: 16px;&quot;&gt;海康摄像机&lt;/font&gt;" style="rounded=1;whiteSpace=wrap;html=1;fillColor=#dae8fc;strokeColor=#6c8ebf;verticalAlign=top;" parent="1" vertex="1">
          <mxGeometry x="-167" y="30" width="120" height="300" as="geometry" />
        </mxCell>
        <mxCell id="6IRPAobaThImXXzAXcsa-57" style="edgeStyle=orthogonalEdgeStyle;rounded=0;orthogonalLoop=1;jettySize=auto;html=1;exitX=0.5;exitY=1;exitDx=0;exitDy=0;" parent="1" source="6IRPAobaThImXXzAXcsa-50" target="6IRPAobaThImXXzAXcsa-56" edge="1">
          <mxGeometry relative="1" as="geometry" />
        </mxCell>
        <mxCell id="6IRPAobaThImXXzAXcsa-50" value="&lt;span style=&quot;font-size: 16px;&quot;&gt;拉取视频流&lt;br&gt;&lt;/span&gt;" style="rounded=1;whiteSpace=wrap;html=1;dashed=1;fillColor=#dae8fc;strokeColor=#6c8ebf;" parent="1" vertex="1">
          <mxGeometry x="-397" y="170" width="120" height="60" as="geometry" />
        </mxCell>
        <mxCell id="6IRPAobaThImXXzAXcsa-54" style="edgeStyle=orthogonalEdgeStyle;rounded=0;orthogonalLoop=1;jettySize=auto;html=1;exitX=0;exitY=0.5;exitDx=0;exitDy=0;" parent="1" source="6IRPAobaThImXXzAXcsa-51" target="6IRPAobaThImXXzAXcsa-50" edge="1">
          <mxGeometry relative="1" as="geometry" />
        </mxCell>
        <mxCell id="6IRPAobaThImXXzAXcsa-51" value="&lt;span style=&quot;font-size: 16px;&quot;&gt;萤石云&lt;br&gt;&lt;/span&gt;" style="rounded=1;whiteSpace=wrap;html=1;dashed=1;fillColor=#dae8fc;strokeColor=#6c8ebf;" parent="1" vertex="1">
          <mxGeometry x="-167" y="170" width="120" height="60" as="geometry" />
        </mxCell>
        <mxCell id="6IRPAobaThImXXzAXcsa-53" style="edgeStyle=orthogonalEdgeStyle;rounded=0;orthogonalLoop=1;jettySize=auto;html=1;exitX=0.5;exitY=1;exitDx=0;exitDy=0;entryX=0.5;entryY=0;entryDx=0;entryDy=0;" parent="1" source="6IRPAobaThImXXzAXcsa-52" target="6IRPAobaThImXXzAXcsa-51" edge="1">
          <mxGeometry relative="1" as="geometry" />
        </mxCell>
        <mxCell id="6IRPAobaThImXXzAXcsa-52" value="&lt;font style=&quot;font-size: 16px;&quot;&gt;摄像机推流&lt;/font&gt;" style="rounded=1;whiteSpace=wrap;html=1;dashed=1;fillColor=#dae8fc;strokeColor=#6c8ebf;" parent="1" vertex="1">
          <mxGeometry x="-167" y="80" width="120" height="60" as="geometry" />
        </mxCell>
        <mxCell id="6IRPAobaThImXXzAXcsa-56" value="&lt;span style=&quot;font-size: 16px;&quot;&gt;声源定位图像叠加显示&lt;br&gt;&lt;/span&gt;" style="rounded=1;whiteSpace=wrap;html=1;dashed=1;fillColor=#dae8fc;strokeColor=#6c8ebf;" parent="1" vertex="1">
          <mxGeometry x="-397" y="270" width="120" height="60" as="geometry" />
        </mxCell>
        <mxCell id="6IRPAobaThImXXzAXcsa-58" value="" style="rounded=1;whiteSpace=wrap;html=1;" parent="1" vertex="1">
          <mxGeometry x="3" y="10" width="830" height="350" as="geometry" />
        </mxCell>
        <mxCell id="6IRPAobaThImXXzAXcsa-59" style="edgeStyle=orthogonalEdgeStyle;rounded=0;orthogonalLoop=1;jettySize=auto;html=1;entryX=0.5;entryY=0;entryDx=0;entryDy=0;" parent="1" source="6IRPAobaThImXXzAXcsa-60" edge="1">
          <mxGeometry relative="1" as="geometry">
            <mxPoint x="91" y="155" as="targetPoint" />
          </mxGeometry>
        </mxCell>
        <mxCell id="6IRPAobaThImXXzAXcsa-60" value="&lt;font style=&quot;font-size: 16px;&quot;&gt;32路麦克风采集&lt;/font&gt;" style="rounded=1;whiteSpace=wrap;html=1;fillColor=#dae8fc;strokeColor=#6c8ebf;" parent="1" vertex="1">
          <mxGeometry x="31" y="35" width="120" height="60" as="geometry" />
        </mxCell>
        <mxCell id="6IRPAobaThImXXzAXcsa-61" value="&lt;div style=&quot;&quot;&gt;&lt;span style=&quot;font-size: 16px;&quot;&gt;I2S接口&lt;/span&gt;&lt;/div&gt;" style="text;html=1;align=center;verticalAlign=middle;resizable=0;points=[];autosize=1;strokeColor=none;fillColor=none;" parent="1" vertex="1">
          <mxGeometry x="86" y="115" width="80" height="30" as="geometry" />
        </mxCell>
        <mxCell id="6IRPAobaThImXXzAXcsa-62" style="edgeStyle=orthogonalEdgeStyle;rounded=0;orthogonalLoop=1;jettySize=auto;html=1;exitX=0.5;exitY=1;exitDx=0;exitDy=0;" parent="1" edge="1">
          <mxGeometry relative="1" as="geometry">
            <mxPoint x="306" y="245" as="sourcePoint" />
            <mxPoint x="306" y="245" as="targetPoint" />
          </mxGeometry>
        </mxCell>
        <mxCell id="6IRPAobaThImXXzAXcsa-63" value="&lt;font style=&quot;font-size: 16px;&quot;&gt;RT1176&lt;/font&gt;" style="rounded=1;whiteSpace=wrap;html=1;fillColor=#dae8fc;strokeColor=#6c8ebf;verticalAlign=top;" parent="1" vertex="1">
          <mxGeometry x="31" y="155" width="120" height="180" as="geometry" />
        </mxCell>
        <mxCell id="6IRPAobaThImXXzAXcsa-64" style="edgeStyle=orthogonalEdgeStyle;rounded=0;orthogonalLoop=1;jettySize=auto;html=1;entryX=0.5;entryY=0;entryDx=0;entryDy=0;" parent="1" source="6IRPAobaThImXXzAXcsa-65" target="6IRPAobaThImXXzAXcsa-67" edge="1">
          <mxGeometry relative="1" as="geometry" />
        </mxCell>
        <mxCell id="6IRPAobaThImXXzAXcsa-65" value="&lt;span style=&quot;font-size: 16px;&quot;&gt;麦克风采集&lt;/span&gt;" style="rounded=1;whiteSpace=wrap;html=1;dashed=1;fillColor=#dae8fc;strokeColor=#6c8ebf;" parent="1" vertex="1">
          <mxGeometry x="31" y="185" width="120" height="60" as="geometry" />
        </mxCell>
        <mxCell id="6IRPAobaThImXXzAXcsa-66" style="edgeStyle=orthogonalEdgeStyle;rounded=0;orthogonalLoop=1;jettySize=auto;html=1;exitX=1;exitY=0.5;exitDx=0;exitDy=0;" parent="1" source="6IRPAobaThImXXzAXcsa-67" target="6IRPAobaThImXXzAXcsa-70" edge="1">
          <mxGeometry relative="1" as="geometry" />
        </mxCell>
        <mxCell id="6IRPAobaThImXXzAXcsa-67" value="&lt;span style=&quot;font-size: 16px;&quot;&gt;udp网络发送&lt;/span&gt;" style="rounded=1;whiteSpace=wrap;html=1;dashed=1;fillColor=#dae8fc;strokeColor=#6c8ebf;" parent="1" vertex="1">
          <mxGeometry x="31" y="275" width="120" height="60" as="geometry" />
        </mxCell>
        <mxCell id="6IRPAobaThImXXzAXcsa-68" value="&lt;font style=&quot;font-size: 16px;&quot;&gt;RK3568&lt;/font&gt;" style="rounded=1;whiteSpace=wrap;html=1;fillColor=#dae8fc;strokeColor=#6c8ebf;verticalAlign=top;" parent="1" vertex="1">
          <mxGeometry x="256" y="35" width="120" height="300" as="geometry" />
        </mxCell>
        <mxCell id="6IRPAobaThImXXzAXcsa-69" style="edgeStyle=orthogonalEdgeStyle;rounded=0;orthogonalLoop=1;jettySize=auto;html=1;exitX=0.5;exitY=0;exitDx=0;exitDy=0;" parent="1" source="6IRPAobaThImXXzAXcsa-70" target="6IRPAobaThImXXzAXcsa-73" edge="1">
          <mxGeometry relative="1" as="geometry" />
        </mxCell>
        <mxCell id="6IRPAobaThImXXzAXcsa-70" value="&lt;span style=&quot;font-size: 16px;&quot;&gt;udp网络接收&lt;/span&gt;" style="rounded=1;whiteSpace=wrap;html=1;dashed=1;fillColor=#dae8fc;strokeColor=#6c8ebf;" parent="1" vertex="1">
          <mxGeometry x="256" y="275" width="120" height="60" as="geometry" />
        </mxCell>
        <mxCell id="6IRPAobaThImXXzAXcsa-71" value="&lt;div style=&quot;&quot;&gt;&lt;span style=&quot;font-size: 16px;&quot;&gt;千兆网口&lt;/span&gt;&lt;/div&gt;" style="text;html=1;align=center;verticalAlign=middle;resizable=0;points=[];autosize=1;strokeColor=none;fillColor=none;" parent="1" vertex="1">
          <mxGeometry x="161" y="275" width="90" height="30" as="geometry" />
        </mxCell>
        <mxCell id="6IRPAobaThImXXzAXcsa-72" style="edgeStyle=orthogonalEdgeStyle;rounded=0;orthogonalLoop=1;jettySize=auto;html=1;exitX=0.5;exitY=0;exitDx=0;exitDy=0;entryX=0.5;entryY=1;entryDx=0;entryDy=0;" parent="1" source="6IRPAobaThImXXzAXcsa-73" target="6IRPAobaThImXXzAXcsa-75" edge="1">
          <mxGeometry relative="1" as="geometry" />
        </mxCell>
        <mxCell id="6IRPAobaThImXXzAXcsa-73" value="&lt;span style=&quot;font-size: 16px;&quot;&gt;声源定位算法&lt;br&gt;处理&lt;br&gt;&lt;/span&gt;" style="rounded=1;whiteSpace=wrap;html=1;dashed=1;fillColor=#dae8fc;strokeColor=#6c8ebf;" parent="1" vertex="1">
          <mxGeometry x="256" y="185" width="120" height="60" as="geometry" />
        </mxCell>
        <mxCell id="6IRPAobaThImXXzAXcsa-94" style="edgeStyle=orthogonalEdgeStyle;rounded=0;orthogonalLoop=1;jettySize=auto;html=1;exitX=1;exitY=0.5;exitDx=0;exitDy=0;" parent="1" source="6IRPAobaThImXXzAXcsa-75" target="6IRPAobaThImXXzAXcsa-93" edge="1">
          <mxGeometry relative="1" as="geometry" />
        </mxCell>
        <mxCell id="6IRPAobaThImXXzAXcsa-75" value="&lt;span style=&quot;font-size: 16px;&quot;&gt;声源定位算法&lt;br&gt;输出矩阵&lt;br&gt;&lt;/span&gt;" style="rounded=1;whiteSpace=wrap;html=1;dashed=1;fillColor=#dae8fc;strokeColor=#6c8ebf;" parent="1" vertex="1">
          <mxGeometry x="256" y="85" width="120" height="60" as="geometry" />
        </mxCell>
        <mxCell id="6IRPAobaThImXXzAXcsa-76" value="&lt;font style=&quot;font-size: 16px;&quot;&gt;云平台&lt;/font&gt;" style="rounded=1;whiteSpace=wrap;html=1;fillColor=#dae8fc;strokeColor=#6c8ebf;verticalAlign=top;" parent="1" vertex="1">
          <mxGeometry x="666" y="25" width="120" height="310" as="geometry" />
        </mxCell>
        <mxCell id="6IRPAobaThImXXzAXcsa-79" value="&lt;div style=&quot;&quot;&gt;&lt;span style=&quot;font-size: 16px;&quot;&gt;千兆网口&lt;/span&gt;&lt;/div&gt;" style="text;html=1;align=center;verticalAlign=middle;resizable=0;points=[];autosize=1;strokeColor=none;fillColor=none;" parent="1" vertex="1">
          <mxGeometry x="566" y="85" width="90" height="30" as="geometry" />
        </mxCell>
        <mxCell id="6IRPAobaThImXXzAXcsa-81" style="edgeStyle=orthogonalEdgeStyle;rounded=0;orthogonalLoop=1;jettySize=auto;html=1;exitX=0.5;exitY=1;exitDx=0;exitDy=0;" parent="1" target="6IRPAobaThImXXzAXcsa-87" edge="1">
          <mxGeometry relative="1" as="geometry">
            <mxPoint x="726" y="135" as="sourcePoint" />
          </mxGeometry>
        </mxCell>
        <mxCell id="6IRPAobaThImXXzAXcsa-87" value="&lt;span style=&quot;font-size: 16px;&quot;&gt;声源定位图像叠加显示&lt;br&gt;&lt;/span&gt;" style="rounded=1;whiteSpace=wrap;html=1;dashed=1;fillColor=#dae8fc;strokeColor=#6c8ebf;" parent="1" vertex="1">
          <mxGeometry x="666" y="235" width="120" height="60" as="geometry" />
        </mxCell>
        <mxCell id="6IRPAobaThImXXzAXcsa-92" value="&lt;font style=&quot;font-size: 16px;&quot;&gt;RK3568&lt;/font&gt;" style="rounded=1;whiteSpace=wrap;html=1;fillColor=#dae8fc;strokeColor=#6c8ebf;verticalAlign=top;" parent="1" vertex="1">
          <mxGeometry x="446" y="35" width="120" height="210" as="geometry" />
        </mxCell>
        <mxCell id="6IRPAobaThImXXzAXcsa-97" style="edgeStyle=orthogonalEdgeStyle;rounded=0;orthogonalLoop=1;jettySize=auto;html=1;exitX=1;exitY=0.5;exitDx=0;exitDy=0;" parent="1" source="6IRPAobaThImXXzAXcsa-93" target="6IRPAobaThImXXzAXcsa-95" edge="1">
          <mxGeometry relative="1" as="geometry" />
        </mxCell>
        <mxCell id="6IRPAobaThImXXzAXcsa-93" value="&lt;span style=&quot;font-size: 16px;&quot;&gt;声源定位图像叠加&lt;br&gt;&lt;/span&gt;" style="rounded=1;whiteSpace=wrap;html=1;dashed=1;fillColor=#dae8fc;strokeColor=#6c8ebf;" parent="1" vertex="1">
          <mxGeometry x="446" y="85" width="120" height="60" as="geometry" />
        </mxCell>
        <mxCell id="6IRPAobaThImXXzAXcsa-95" value="&lt;span style=&quot;font-size: 16px;&quot;&gt;拉取视频流&lt;br&gt;&lt;/span&gt;" style="rounded=1;whiteSpace=wrap;html=1;dashed=1;fillColor=#dae8fc;strokeColor=#6c8ebf;" parent="1" vertex="1">
          <mxGeometry x="666" y="85" width="120" height="60" as="geometry" />
        </mxCell>
        <mxCell id="6IRPAobaThImXXzAXcsa-101" style="edgeStyle=orthogonalEdgeStyle;rounded=0;orthogonalLoop=1;jettySize=auto;html=1;exitX=0.5;exitY=0;exitDx=0;exitDy=0;entryX=0.5;entryY=1;entryDx=0;entryDy=0;" parent="1" source="6IRPAobaThImXXzAXcsa-98" target="6IRPAobaThImXXzAXcsa-93" edge="1">
          <mxGeometry relative="1" as="geometry" />
        </mxCell>
        <mxCell id="6IRPAobaThImXXzAXcsa-98" value="&lt;span style=&quot;font-size: 16px;&quot;&gt;拉取本地视频流&lt;br&gt;&lt;/span&gt;" style="rounded=1;whiteSpace=wrap;html=1;dashed=1;fillColor=#dae8fc;strokeColor=#6c8ebf;" parent="1" vertex="1">
          <mxGeometry x="446" y="185" width="120" height="60" as="geometry" />
        </mxCell>
        <mxCell id="6IRPAobaThImXXzAXcsa-100" style="edgeStyle=orthogonalEdgeStyle;rounded=0;orthogonalLoop=1;jettySize=auto;html=1;exitX=0.5;exitY=0;exitDx=0;exitDy=0;entryX=0.5;entryY=1;entryDx=0;entryDy=0;" parent="1" source="6IRPAobaThImXXzAXcsa-99" target="6IRPAobaThImXXzAXcsa-98" edge="1">
          <mxGeometry relative="1" as="geometry" />
        </mxCell>
        <mxCell id="6IRPAobaThImXXzAXcsa-99" value="&lt;span style=&quot;font-size: 16px;&quot;&gt;USB摄像头&lt;br&gt;&lt;/span&gt;" style="rounded=1;whiteSpace=wrap;html=1;dashed=1;fillColor=#dae8fc;strokeColor=#6c8ebf;" parent="1" vertex="1">
          <mxGeometry x="446" y="275" width="120" height="60" as="geometry" />
        </mxCell>
        <mxCell id="6IRPAobaThImXXzAXcsa-103" value="&lt;font style=&quot;font-size: 20px;&quot;&gt;应用层&lt;/font&gt;" style="rounded=1;whiteSpace=wrap;html=1;verticalAlign=top;" parent="1" vertex="1">
          <mxGeometry x="-660" y="1169" width="420" height="390" as="geometry" />
        </mxCell>
        <mxCell id="6IRPAobaThImXXzAXcsa-106" value="" style="endArrow=none;dashed=1;html=1;dashPattern=8 8;strokeWidth=2;rounded=0;" parent="1" edge="1">
          <mxGeometry width="50" height="50" relative="1" as="geometry">
            <mxPoint x="-650" y="1569" as="sourcePoint" />
            <mxPoint x="-250" y="1569" as="targetPoint" />
          </mxGeometry>
        </mxCell>
        <mxCell id="6IRPAobaThImXXzAXcsa-107" value="&lt;font style=&quot;font-size: 20px;&quot;&gt;Lwip网络层&lt;/font&gt;" style="rounded=1;whiteSpace=wrap;html=1;verticalAlign=top;" parent="1" vertex="1">
          <mxGeometry x="-660" y="1589" width="420" height="130" as="geometry" />
        </mxCell>
        <mxCell id="6IRPAobaThImXXzAXcsa-108" value="" style="endArrow=none;dashed=1;html=1;dashPattern=8 8;strokeWidth=2;rounded=0;" parent="1" edge="1">
          <mxGeometry width="50" height="50" relative="1" as="geometry">
            <mxPoint x="-650" y="1739" as="sourcePoint" />
            <mxPoint x="-250" y="1739" as="targetPoint" />
          </mxGeometry>
        </mxCell>
        <mxCell id="6IRPAobaThImXXzAXcsa-109" value="&lt;span style=&quot;font-size: 20px;&quot;&gt;FreeRTOS操作系统&lt;br&gt;&lt;br&gt;&lt;/span&gt;" style="rounded=1;whiteSpace=wrap;html=1;verticalAlign=top;" parent="1" vertex="1">
          <mxGeometry x="-660" y="1759" width="420" height="130" as="geometry" />
        </mxCell>
        <mxCell id="6IRPAobaThImXXzAXcsa-110" value="&lt;font style=&quot;font-size: 16px;&quot;&gt;SAI中断处理模块&lt;/font&gt;" style="rounded=1;whiteSpace=wrap;html=1;fillColor=#dae8fc;strokeColor=#6c8ebf;" parent="1" vertex="1">
          <mxGeometry x="-640" y="1469" width="150" height="60" as="geometry" />
        </mxCell>
        <mxCell id="6IRPAobaThImXXzAXcsa-111" value="&lt;font style=&quot;font-size: 16px;&quot;&gt;多线程任务调度&lt;/font&gt;" style="rounded=1;whiteSpace=wrap;html=1;fillColor=#dae8fc;strokeColor=#6c8ebf;" parent="1" vertex="1">
          <mxGeometry x="-650" y="1799" width="120" height="60" as="geometry" />
        </mxCell>
        <mxCell id="6IRPAobaThImXXzAXcsa-112" value="&lt;font style=&quot;font-size: 16px;&quot;&gt;信号量&lt;/font&gt;" style="rounded=1;whiteSpace=wrap;html=1;fillColor=#dae8fc;strokeColor=#6c8ebf;" parent="1" vertex="1">
          <mxGeometry x="-510" y="1799" width="120" height="60" as="geometry" />
        </mxCell>
        <mxCell id="6IRPAobaThImXXzAXcsa-113" value="&lt;font style=&quot;font-size: 16px;&quot;&gt;互斥锁&lt;/font&gt;" style="rounded=1;whiteSpace=wrap;html=1;fillColor=#dae8fc;strokeColor=#6c8ebf;" parent="1" vertex="1">
          <mxGeometry x="-370" y="1799" width="120" height="60" as="geometry" />
        </mxCell>
        <mxCell id="6IRPAobaThImXXzAXcsa-114" value="&lt;font style=&quot;font-size: 16px;&quot;&gt;多线程任务调度&lt;/font&gt;" style="rounded=1;whiteSpace=wrap;html=1;fillColor=#dae8fc;strokeColor=#6c8ebf;" parent="1" vertex="1">
          <mxGeometry x="-650" y="1799" width="120" height="60" as="geometry" />
        </mxCell>
        <mxCell id="6IRPAobaThImXXzAXcsa-115" value="&lt;font style=&quot;font-size: 16px;&quot;&gt;ethernetif_thread&lt;br&gt;数据包接收发送&lt;/font&gt;" style="rounded=1;whiteSpace=wrap;html=1;fillColor=#dae8fc;strokeColor=#6c8ebf;" parent="1" vertex="1">
          <mxGeometry x="-510" y="1629" width="120" height="60" as="geometry" />
        </mxCell>
        <mxCell id="6IRPAobaThImXXzAXcsa-116" value="&lt;font style=&quot;font-size: 16px;&quot;&gt;pbuf&lt;br&gt;数据包内存管理&lt;br&gt;&lt;/font&gt;" style="rounded=1;whiteSpace=wrap;html=1;fillColor=#dae8fc;strokeColor=#6c8ebf;" parent="1" vertex="1">
          <mxGeometry x="-370" y="1629" width="120" height="60" as="geometry" />
        </mxCell>
        <mxCell id="6IRPAobaThImXXzAXcsa-117" value="&lt;span style=&quot;font-size: 16px;&quot;&gt;tcpip_thread&lt;br&gt;协议解析&lt;br&gt;&lt;/span&gt;" style="rounded=1;whiteSpace=wrap;html=1;fillColor=#dae8fc;strokeColor=#6c8ebf;" parent="1" vertex="1">
          <mxGeometry x="-650" y="1629" width="120" height="60" as="geometry" />
        </mxCell>
        <mxCell id="6IRPAobaThImXXzAXcsa-119" value="&lt;font style=&quot;font-size: 16px;&quot;&gt;网络中断处理模块&lt;/font&gt;" style="rounded=1;whiteSpace=wrap;html=1;fillColor=#dae8fc;strokeColor=#6c8ebf;" parent="1" vertex="1">
          <mxGeometry x="-420" y="1469" width="150" height="60" as="geometry" />
        </mxCell>
        <mxCell id="6IRPAobaThImXXzAXcsa-122" value="" style="endArrow=none;dashed=1;html=1;dashPattern=1 3;strokeWidth=2;rounded=0;" parent="1" edge="1">
          <mxGeometry width="50" height="50" relative="1" as="geometry">
            <mxPoint x="-655" y="1449" as="sourcePoint" />
            <mxPoint x="-245" y="1449" as="targetPoint" />
          </mxGeometry>
        </mxCell>
        <mxCell id="6IRPAobaThImXXzAXcsa-123" value="" style="endArrow=none;dashed=1;html=1;dashPattern=1 3;strokeWidth=2;rounded=0;" parent="1" edge="1">
          <mxGeometry width="50" height="50" relative="1" as="geometry">
            <mxPoint x="-655" y="1369" as="sourcePoint" />
            <mxPoint x="-245" y="1369" as="targetPoint" />
          </mxGeometry>
        </mxCell>
        <mxCell id="6IRPAobaThImXXzAXcsa-124" value="&lt;font style=&quot;font-size: 16px;&quot;&gt;事件转发处理模块&lt;/font&gt;" style="rounded=1;whiteSpace=wrap;html=1;fillColor=#dae8fc;strokeColor=#6c8ebf;" parent="1" vertex="1">
          <mxGeometry x="-640" y="1379" width="370" height="60" as="geometry" />
        </mxCell>
        <mxCell id="6IRPAobaThImXXzAXcsa-125" value="" style="endArrow=none;dashed=1;html=1;dashPattern=1 3;strokeWidth=2;rounded=0;" parent="1" edge="1">
          <mxGeometry width="50" height="50" relative="1" as="geometry">
            <mxPoint x="-655" y="1209" as="sourcePoint" />
            <mxPoint x="-245" y="1209" as="targetPoint" />
          </mxGeometry>
        </mxCell>
        <mxCell id="6IRPAobaThImXXzAXcsa-126" value="&lt;font style=&quot;font-size: 16px;&quot;&gt;录音模块&lt;/font&gt;" style="rounded=1;whiteSpace=wrap;html=1;fillColor=#dae8fc;strokeColor=#6c8ebf;" parent="1" vertex="1">
          <mxGeometry x="-640" y="1299" width="110" height="60" as="geometry" />
        </mxCell>
        <mxCell id="6IRPAobaThImXXzAXcsa-127" value="&lt;font style=&quot;font-size: 16px;&quot;&gt;led模块&lt;/font&gt;" style="rounded=1;whiteSpace=wrap;html=1;fillColor=#dae8fc;strokeColor=#6c8ebf;" parent="1" vertex="1">
          <mxGeometry x="-640" y="1219" width="110" height="60" as="geometry" />
        </mxCell>
        <mxCell id="6IRPAobaThImXXzAXcsa-128" value="&lt;font style=&quot;font-size: 16px;&quot;&gt;升级模块&lt;/font&gt;" style="rounded=1;whiteSpace=wrap;html=1;fillColor=#dae8fc;strokeColor=#6c8ebf;" parent="1" vertex="1">
          <mxGeometry x="-505" y="1219" width="110" height="60" as="geometry" />
        </mxCell>
        <mxCell id="6IRPAobaThImXXzAXcsa-129" value="&lt;font style=&quot;font-size: 16px;&quot;&gt;与RK3568&lt;br&gt;交互模块&lt;/font&gt;" style="rounded=1;whiteSpace=wrap;html=1;fillColor=#dae8fc;strokeColor=#6c8ebf;" parent="1" vertex="1">
          <mxGeometry x="-505" y="1299" width="110" height="60" as="geometry" />
        </mxCell>
        <mxCell id="6IRPAobaThImXXzAXcsa-130" value="&lt;font style=&quot;font-size: 16px;&quot;&gt;数据存储模块&lt;/font&gt;" style="rounded=1;whiteSpace=wrap;html=1;fillColor=#dae8fc;strokeColor=#6c8ebf;" parent="1" vertex="1">
          <mxGeometry x="-380" y="1219" width="110" height="60" as="geometry" />
        </mxCell>
        <mxCell id="6IRPAobaThImXXzAXcsa-131" value="" style="endArrow=none;dashed=1;html=1;dashPattern=8 8;strokeWidth=2;rounded=0;" parent="1" edge="1">
          <mxGeometry width="50" height="50" relative="1" as="geometry">
            <mxPoint x="-116.5" y="1169" as="sourcePoint" />
            <mxPoint x="283.5" y="1169" as="targetPoint" />
          </mxGeometry>
        </mxCell>
        <mxCell id="6IRPAobaThImXXzAXcsa-132" value="&lt;span style=&quot;font-size: 20px;&quot;&gt;硬件设备驱动&lt;br&gt;&lt;br&gt;&lt;/span&gt;" style="rounded=1;whiteSpace=wrap;html=1;verticalAlign=top;" parent="1" vertex="1">
          <mxGeometry x="-126.5" y="1189" width="420" height="210" as="geometry" />
        </mxCell>
        <mxCell id="6IRPAobaThImXXzAXcsa-134" value="&lt;font style=&quot;font-size: 16px;&quot;&gt;ES7210驱动&lt;br&gt;&lt;/font&gt;" style="rounded=1;whiteSpace=wrap;html=1;fillColor=#dae8fc;strokeColor=#6c8ebf;" parent="1" vertex="1">
          <mxGeometry x="-111.5" y="1224" width="120" height="60" as="geometry" />
        </mxCell>
        <mxCell id="6IRPAobaThImXXzAXcsa-135" value="&lt;font style=&quot;font-size: 16px;&quot;&gt;串口驱动&lt;br&gt;&lt;/font&gt;" style="rounded=1;whiteSpace=wrap;html=1;fillColor=#dae8fc;strokeColor=#6c8ebf;" parent="1" vertex="1">
          <mxGeometry x="28.5" y="1224" width="120" height="60" as="geometry" />
        </mxCell>
        <mxCell id="6IRPAobaThImXXzAXcsa-136" value="&lt;font style=&quot;font-size: 16px;&quot;&gt;GPIO驱动&lt;br&gt;&lt;/font&gt;" style="rounded=1;whiteSpace=wrap;html=1;fillColor=#dae8fc;strokeColor=#6c8ebf;" parent="1" vertex="1">
          <mxGeometry x="163.5" y="1219" width="120" height="60" as="geometry" />
        </mxCell>
        <mxCell id="6IRPAobaThImXXzAXcsa-137" value="&lt;font style=&quot;font-size: 16px;&quot;&gt;SDRAM驱动&lt;br&gt;&lt;/font&gt;" style="rounded=1;whiteSpace=wrap;html=1;fillColor=#dae8fc;strokeColor=#6c8ebf;" parent="1" vertex="1">
          <mxGeometry x="33.5" y="1309" width="120" height="60" as="geometry" />
        </mxCell>
        <mxCell id="6IRPAobaThImXXzAXcsa-138" value="&lt;font style=&quot;font-size: 16px;&quot;&gt;spi-flash驱动&lt;br&gt;&lt;/font&gt;" style="rounded=1;whiteSpace=wrap;html=1;fillColor=#dae8fc;strokeColor=#6c8ebf;" parent="1" vertex="1">
          <mxGeometry x="-106.5" y="1309" width="120" height="60" as="geometry" />
        </mxCell>
        <mxCell id="6IRPAobaThImXXzAXcsa-139" value="&lt;font style=&quot;font-size: 16px;&quot;&gt;YT8531驱动&lt;br&gt;&lt;/font&gt;" style="rounded=1;whiteSpace=wrap;html=1;fillColor=#dae8fc;strokeColor=#6c8ebf;" parent="1" vertex="1">
          <mxGeometry x="163.5" y="1309" width="120" height="60" as="geometry" />
        </mxCell>
        <mxCell id="6IRPAobaThImXXzAXcsa-141" value="" style="endArrow=none;dashed=1;html=1;dashPattern=8 8;strokeWidth=2;rounded=0;" parent="1" edge="1">
          <mxGeometry width="50" height="50" relative="1" as="geometry">
            <mxPoint x="-116.5" y="1419" as="sourcePoint" />
            <mxPoint x="283.5" y="1419" as="targetPoint" />
          </mxGeometry>
        </mxCell>
        <mxCell id="6IRPAobaThImXXzAXcsa-142" value="&lt;span style=&quot;font-size: 20px;&quot;&gt;RT1176时钟及外设配置&lt;br&gt;&lt;/span&gt;" style="rounded=1;whiteSpace=wrap;html=1;verticalAlign=top;" parent="1" vertex="1">
          <mxGeometry x="-121.5" y="1439" width="420" height="40" as="geometry" />
        </mxCell>
        <mxCell id="6IRPAobaThImXXzAXcsa-143" value="" style="endArrow=none;dashed=1;html=1;dashPattern=8 8;strokeWidth=2;rounded=0;" parent="1" edge="1">
          <mxGeometry width="50" height="50" relative="1" as="geometry">
            <mxPoint x="-116.5" y="1499" as="sourcePoint" />
            <mxPoint x="283.5" y="1499" as="targetPoint" />
          </mxGeometry>
        </mxCell>
        <mxCell id="6IRPAobaThImXXzAXcsa-144" value="&lt;span style=&quot;font-size: 20px;&quot;&gt;RT1176硬件资源&lt;br&gt;&lt;/span&gt;" style="rounded=1;whiteSpace=wrap;html=1;verticalAlign=top;" parent="1" vertex="1">
          <mxGeometry x="-116.5" y="1519" width="420" height="190" as="geometry" />
        </mxCell>
        <mxCell id="6IRPAobaThImXXzAXcsa-145" value="&lt;font style=&quot;font-size: 16px;&quot;&gt;I2C&lt;br&gt;&lt;/font&gt;" style="rounded=1;whiteSpace=wrap;html=1;fillColor=#dae8fc;strokeColor=#6c8ebf;" parent="1" vertex="1">
          <mxGeometry x="-106.5" y="1549" width="90" height="40" as="geometry" />
        </mxCell>
        <mxCell id="6IRPAobaThImXXzAXcsa-146" value="&lt;font style=&quot;font-size: 16px;&quot;&gt;UART&lt;br&gt;&lt;/font&gt;" style="rounded=1;whiteSpace=wrap;html=1;fillColor=#dae8fc;strokeColor=#6c8ebf;" parent="1" vertex="1">
          <mxGeometry x="-6.5" y="1549" width="90" height="40" as="geometry" />
        </mxCell>
        <mxCell id="6IRPAobaThImXXzAXcsa-147" value="&lt;font style=&quot;font-size: 16px;&quot;&gt;SPI&lt;br&gt;&lt;/font&gt;" style="rounded=1;whiteSpace=wrap;html=1;fillColor=#dae8fc;strokeColor=#6c8ebf;" parent="1" vertex="1">
          <mxGeometry x="103.5" y="1549" width="90" height="40" as="geometry" />
        </mxCell>
        <mxCell id="6IRPAobaThImXXzAXcsa-148" value="&lt;font style=&quot;font-size: 16px;&quot;&gt;GPIO&lt;br&gt;&lt;/font&gt;" style="rounded=1;whiteSpace=wrap;html=1;fillColor=#dae8fc;strokeColor=#6c8ebf;" parent="1" vertex="1">
          <mxGeometry x="203.5" y="1549" width="90" height="40" as="geometry" />
        </mxCell>
        <mxCell id="6IRPAobaThImXXzAXcsa-149" value="&lt;font style=&quot;font-size: 16px;&quot;&gt;DMA&lt;br&gt;&lt;/font&gt;" style="rounded=1;whiteSpace=wrap;html=1;fillColor=#dae8fc;strokeColor=#6c8ebf;" parent="1" vertex="1">
          <mxGeometry x="-106.5" y="1599" width="90" height="40" as="geometry" />
        </mxCell>
        <mxCell id="6IRPAobaThImXXzAXcsa-150" value="&lt;font style=&quot;font-size: 16px;&quot;&gt;DMAMUX&lt;br&gt;&lt;/font&gt;" style="rounded=1;whiteSpace=wrap;html=1;fillColor=#dae8fc;strokeColor=#6c8ebf;" parent="1" vertex="1">
          <mxGeometry x="-6.5" y="1599" width="90" height="40" as="geometry" />
        </mxCell>
        <mxCell id="6IRPAobaThImXXzAXcsa-151" value="&lt;font style=&quot;font-size: 16px;&quot;&gt;SAI&lt;br&gt;&lt;/font&gt;" style="rounded=1;whiteSpace=wrap;html=1;fillColor=#dae8fc;strokeColor=#6c8ebf;" parent="1" vertex="1">
          <mxGeometry x="103.5" y="1599" width="90" height="40" as="geometry" />
        </mxCell>
        <mxCell id="6IRPAobaThImXXzAXcsa-153" value="&lt;font style=&quot;font-size: 16px;&quot;&gt;MDIO&lt;br&gt;&lt;/font&gt;" style="rounded=1;whiteSpace=wrap;html=1;fillColor=#dae8fc;strokeColor=#6c8ebf;" parent="1" vertex="1">
          <mxGeometry x="-106.5" y="1649" width="90" height="40" as="geometry" />
        </mxCell>
        <mxCell id="6IRPAobaThImXXzAXcsa-154" value="&lt;font style=&quot;font-size: 16px;&quot;&gt;ENET_1G&lt;br&gt;&lt;/font&gt;" style="rounded=1;whiteSpace=wrap;html=1;fillColor=#dae8fc;strokeColor=#6c8ebf;" parent="1" vertex="1">
          <mxGeometry x="-6.5" y="1649" width="90" height="40" as="geometry" />
        </mxCell>
        <mxCell id="6IRPAobaThImXXzAXcsa-155" value="" style="endArrow=none;dashed=1;html=1;dashPattern=8 8;strokeWidth=2;rounded=0;" parent="1" edge="1">
          <mxGeometry width="50" height="50" relative="1" as="geometry">
            <mxPoint x="-101.5" y="1729" as="sourcePoint" />
            <mxPoint x="298.5" y="1729" as="targetPoint" />
          </mxGeometry>
        </mxCell>
        <mxCell id="6IRPAobaThImXXzAXcsa-156" value="&lt;span style=&quot;font-size: 20px;&quot;&gt;电路板硬件资源&lt;br&gt;&lt;/span&gt;" style="rounded=1;whiteSpace=wrap;html=1;verticalAlign=top;" parent="1" vertex="1">
          <mxGeometry x="-111.5" y="1749" width="420" height="140" as="geometry" />
        </mxCell>
        <mxCell id="6IRPAobaThImXXzAXcsa-157" value="&lt;font style=&quot;font-size: 16px;&quot;&gt;ES7210&lt;br&gt;&lt;/font&gt;" style="rounded=1;whiteSpace=wrap;html=1;fillColor=#dae8fc;strokeColor=#6c8ebf;" parent="1" vertex="1">
          <mxGeometry x="-101.5" y="1779" width="90" height="40" as="geometry" />
        </mxCell>
        <mxCell id="6IRPAobaThImXXzAXcsa-158" value="&lt;font style=&quot;font-size: 16px;&quot;&gt;MIC&lt;br&gt;&lt;/font&gt;" style="rounded=1;whiteSpace=wrap;html=1;fillColor=#dae8fc;strokeColor=#6c8ebf;" parent="1" vertex="1">
          <mxGeometry x="-6.5" y="1779" width="90" height="40" as="geometry" />
        </mxCell>
        <mxCell id="6IRPAobaThImXXzAXcsa-159" value="&lt;font style=&quot;font-size: 16px;&quot;&gt;USB转串口&lt;br&gt;&lt;/font&gt;" style="rounded=1;whiteSpace=wrap;html=1;fillColor=#dae8fc;strokeColor=#6c8ebf;" parent="1" vertex="1">
          <mxGeometry x="93.5" y="1779" width="90" height="40" as="geometry" />
        </mxCell>
        <mxCell id="6IRPAobaThImXXzAXcsa-160" value="&lt;font style=&quot;font-size: 16px;&quot;&gt;指示灯&lt;br&gt;&lt;/font&gt;" style="rounded=1;whiteSpace=wrap;html=1;fillColor=#dae8fc;strokeColor=#6c8ebf;" parent="1" vertex="1">
          <mxGeometry x="193.5" y="1779" width="90" height="40" as="geometry" />
        </mxCell>
        <mxCell id="6IRPAobaThImXXzAXcsa-161" value="&lt;font style=&quot;font-size: 16px;&quot;&gt;SDRAM&lt;br&gt;&lt;/font&gt;" style="rounded=1;whiteSpace=wrap;html=1;fillColor=#dae8fc;strokeColor=#6c8ebf;" parent="1" vertex="1">
          <mxGeometry x="-101.5" y="1829" width="90" height="40" as="geometry" />
        </mxCell>
        <mxCell id="6IRPAobaThImXXzAXcsa-162" value="&lt;font style=&quot;font-size: 16px;&quot;&gt;YT8531&lt;br&gt;&lt;/font&gt;" style="rounded=1;whiteSpace=wrap;html=1;fillColor=#dae8fc;strokeColor=#6c8ebf;" parent="1" vertex="1">
          <mxGeometry x="-6.5" y="1829" width="90" height="40" as="geometry" />
        </mxCell>
        <mxCell id="6IRPAobaThImXXzAXcsa-163" value="&lt;font style=&quot;font-size: 20px;&quot;&gt;应用层&lt;/font&gt;" style="rounded=1;whiteSpace=wrap;html=1;verticalAlign=top;" parent="1" vertex="1">
          <mxGeometry x="-665" y="1930" width="420" height="470" as="geometry" />
        </mxCell>
        <mxCell id="6IRPAobaThImXXzAXcsa-164" value="" style="endArrow=none;dashed=1;html=1;dashPattern=8 8;strokeWidth=2;rounded=0;" parent="1" edge="1">
          <mxGeometry width="50" height="50" relative="1" as="geometry">
            <mxPoint x="-665" y="2430" as="sourcePoint" />
            <mxPoint x="-265" y="2430" as="targetPoint" />
          </mxGeometry>
        </mxCell>
        <mxCell id="6IRPAobaThImXXzAXcsa-165" value="&lt;font style=&quot;font-size: 16px;&quot;&gt;GPIO中断处理模块&lt;/font&gt;" style="rounded=1;whiteSpace=wrap;html=1;fillColor=#dae8fc;strokeColor=#6c8ebf;" parent="1" vertex="1">
          <mxGeometry x="-645" y="2310" width="85" height="60" as="geometry" />
        </mxCell>
        <mxCell id="6IRPAobaThImXXzAXcsa-166" value="&lt;font style=&quot;font-size: 16px;&quot;&gt;有线/4G/Wifi网络&lt;br&gt;中断处理模块&lt;/font&gt;" style="rounded=1;whiteSpace=wrap;html=1;fillColor=#dae8fc;strokeColor=#6c8ebf;" parent="1" vertex="1">
          <mxGeometry x="-550" y="2310" width="170" height="60" as="geometry" />
        </mxCell>
        <mxCell id="6IRPAobaThImXXzAXcsa-167" value="" style="endArrow=none;dashed=1;html=1;dashPattern=1 3;strokeWidth=2;rounded=0;" parent="1" edge="1">
          <mxGeometry width="50" height="50" relative="1" as="geometry">
            <mxPoint x="-660" y="2290" as="sourcePoint" />
            <mxPoint x="-250" y="2290" as="targetPoint" />
          </mxGeometry>
        </mxCell>
        <mxCell id="6IRPAobaThImXXzAXcsa-168" value="" style="endArrow=none;dashed=1;html=1;dashPattern=1 3;strokeWidth=2;rounded=0;" parent="1" edge="1">
          <mxGeometry width="50" height="50" relative="1" as="geometry">
            <mxPoint x="-660" y="2210" as="sourcePoint" />
            <mxPoint x="-250" y="2210" as="targetPoint" />
          </mxGeometry>
        </mxCell>
        <mxCell id="6IRPAobaThImXXzAXcsa-169" value="&lt;font style=&quot;font-size: 16px;&quot;&gt;事件转发处理模块&lt;/font&gt;" style="rounded=1;whiteSpace=wrap;html=1;fillColor=#dae8fc;strokeColor=#6c8ebf;" parent="1" vertex="1">
          <mxGeometry x="-645" y="2220" width="370" height="60" as="geometry" />
        </mxCell>
        <mxCell id="6IRPAobaThImXXzAXcsa-170" value="" style="endArrow=none;dashed=1;html=1;dashPattern=1 3;strokeWidth=2;rounded=0;" parent="1" edge="1">
          <mxGeometry width="50" height="50" relative="1" as="geometry">
            <mxPoint x="-655" y="1980" as="sourcePoint" />
            <mxPoint x="-245" y="1980" as="targetPoint" />
          </mxGeometry>
        </mxCell>
        <mxCell id="6IRPAobaThImXXzAXcsa-172" value="&lt;font style=&quot;font-size: 16px;&quot;&gt;led模块&lt;/font&gt;" style="rounded=1;whiteSpace=wrap;html=1;fillColor=#dae8fc;strokeColor=#6c8ebf;" parent="1" vertex="1">
          <mxGeometry x="-645" y="2000" width="110" height="60" as="geometry" />
        </mxCell>
        <mxCell id="6IRPAobaThImXXzAXcsa-173" value="&lt;font style=&quot;font-size: 16px;&quot;&gt;升级模块&lt;/font&gt;" style="rounded=1;whiteSpace=wrap;html=1;fillColor=#dae8fc;strokeColor=#6c8ebf;" parent="1" vertex="1">
          <mxGeometry x="-645" y="2140" width="110" height="60" as="geometry" />
        </mxCell>
        <mxCell id="6IRPAobaThImXXzAXcsa-174" value="&lt;font style=&quot;font-size: 16px;&quot;&gt;与RT1176&lt;br&gt;交互模块&lt;/font&gt;" style="rounded=1;whiteSpace=wrap;html=1;fillColor=#dae8fc;strokeColor=#6c8ebf;" parent="1" vertex="1">
          <mxGeometry x="-645" y="2070" width="110" height="60" as="geometry" />
        </mxCell>
        <mxCell id="6IRPAobaThImXXzAXcsa-175" value="&lt;font style=&quot;font-size: 16px;&quot;&gt;数据存储模块&lt;/font&gt;" style="rounded=1;whiteSpace=wrap;html=1;fillColor=#dae8fc;strokeColor=#6c8ebf;" parent="1" vertex="1">
          <mxGeometry x="-385" y="2000" width="110" height="60" as="geometry" />
        </mxCell>
        <mxCell id="6IRPAobaThImXXzAXcsa-176" value="&lt;font style=&quot;font-size: 16px;&quot;&gt;按键模块&lt;/font&gt;" style="rounded=1;whiteSpace=wrap;html=1;fillColor=#dae8fc;strokeColor=#6c8ebf;" parent="1" vertex="1">
          <mxGeometry x="-515" y="2000" width="110" height="60" as="geometry" />
        </mxCell>
        <mxCell id="6IRPAobaThImXXzAXcsa-177" value="&lt;font style=&quot;font-size: 16px;&quot;&gt;与云平台交互模块&lt;/font&gt;" style="rounded=1;whiteSpace=wrap;html=1;fillColor=#dae8fc;strokeColor=#6c8ebf;" parent="1" vertex="1">
          <mxGeometry x="-385" y="2070" width="110" height="60" as="geometry" />
        </mxCell>
        <mxCell id="6IRPAobaThImXXzAXcsa-178" value="&lt;font style=&quot;font-size: 16px;&quot;&gt;定位算法&lt;br&gt;处理模块&lt;/font&gt;" style="rounded=1;whiteSpace=wrap;html=1;fillColor=#dae8fc;strokeColor=#6c8ebf;" parent="1" vertex="1">
          <mxGeometry x="-515" y="2070" width="110" height="60" as="geometry" />
        </mxCell>
        <mxCell id="6IRPAobaThImXXzAXcsa-179" value="&lt;font style=&quot;font-size: 16px;&quot;&gt;4G模块&lt;/font&gt;" style="rounded=1;whiteSpace=wrap;html=1;fillColor=#dae8fc;strokeColor=#6c8ebf;" parent="1" vertex="1">
          <mxGeometry x="-515" y="2140" width="110" height="60" as="geometry" />
        </mxCell>
        <mxCell id="6IRPAobaThImXXzAXcsa-180" value="&lt;font style=&quot;font-size: 16px;&quot;&gt;蓝牙模块&lt;/font&gt;" style="rounded=1;whiteSpace=wrap;html=1;fillColor=#dae8fc;strokeColor=#6c8ebf;" parent="1" vertex="1">
          <mxGeometry x="-385" y="2140" width="110" height="60" as="geometry" />
        </mxCell>
        <mxCell id="6IRPAobaThImXXzAXcsa-182" value="&lt;font style=&quot;font-size: 16px;&quot;&gt;蓝牙中断处理模块&lt;/font&gt;" style="rounded=1;whiteSpace=wrap;html=1;fillColor=#dae8fc;strokeColor=#6c8ebf;" parent="1" vertex="1">
          <mxGeometry x="-367.5" y="2310" width="85" height="60" as="geometry" />
        </mxCell>
        <mxCell id="6IRPAobaThImXXzAXcsa-183" value="&lt;span style=&quot;font-size: 20px;&quot;&gt;Linux文件系统依赖库&lt;br&gt;&lt;br&gt;&lt;/span&gt;" style="rounded=1;whiteSpace=wrap;html=1;verticalAlign=top;" parent="1" vertex="1">
          <mxGeometry x="-665" y="2450" width="420" height="190" as="geometry" />
        </mxCell>
        <mxCell id="6IRPAobaThImXXzAXcsa-185" value="&lt;span style=&quot;font-size: 16px;&quot;&gt;fftw3f.a&lt;/span&gt;" style="rounded=1;whiteSpace=wrap;html=1;fillColor=#dae8fc;strokeColor=#6c8ebf;" parent="1" vertex="1">
          <mxGeometry x="-370" y="2485" width="120" height="60" as="geometry" />
        </mxCell>
        <mxCell id="6IRPAobaThImXXzAXcsa-186" value="&lt;span style=&quot;font-size: 16px;&quot;&gt;opencv.so&lt;br style=&quot;font-size: 16px;&quot;&gt;&lt;/span&gt;" style="rounded=1;whiteSpace=wrap;html=1;fillColor=#dae8fc;strokeColor=#6c8ebf;fontSize=16;" parent="1" vertex="1">
          <mxGeometry x="-650" y="2485" width="120" height="60" as="geometry" />
        </mxCell>
        <mxCell id="6IRPAobaThImXXzAXcsa-187" value="paho-mqtt3c.so" style="rounded=1;whiteSpace=wrap;html=1;fillColor=#dae8fc;strokeColor=#6c8ebf;fontSize=16;" parent="1" vertex="1">
          <mxGeometry x="-650" y="2560" width="120" height="60" as="geometry" />
        </mxCell>
        <mxCell id="6IRPAobaThImXXzAXcsa-188" value="&lt;font style=&quot;font-size: 16px;&quot;&gt;curl.so&lt;/font&gt;" style="rounded=1;whiteSpace=wrap;html=1;fillColor=#dae8fc;strokeColor=#6c8ebf;" parent="1" vertex="1">
          <mxGeometry x="-515" y="2560" width="120" height="60" as="geometry" />
        </mxCell>
        <mxCell id="6IRPAobaThImXXzAXcsa-189" value="" style="endArrow=none;dashed=1;html=1;dashPattern=8 8;strokeWidth=2;rounded=0;" parent="1" edge="1">
          <mxGeometry width="50" height="50" relative="1" as="geometry">
            <mxPoint x="-150" y="1930" as="sourcePoint" />
            <mxPoint x="250" y="1930" as="targetPoint" />
          </mxGeometry>
        </mxCell>
        <mxCell id="6IRPAobaThImXXzAXcsa-190" value="&lt;span style=&quot;font-size: 20px;&quot;&gt;Linux设备驱动&lt;br&gt;&lt;br&gt;&lt;/span&gt;" style="rounded=1;whiteSpace=wrap;html=1;verticalAlign=top;" parent="1" vertex="1">
          <mxGeometry x="-160" y="1950" width="420" height="210" as="geometry" />
        </mxCell>
        <mxCell id="6IRPAobaThImXXzAXcsa-191" value="&lt;font style=&quot;font-size: 16px;&quot;&gt;GPIO驱动&lt;br&gt;&lt;/font&gt;" style="rounded=1;whiteSpace=wrap;html=1;fillColor=#dae8fc;strokeColor=#6c8ebf;" parent="1" vertex="1">
          <mxGeometry x="-145" y="1985" width="120" height="60" as="geometry" />
        </mxCell>
        <mxCell id="6IRPAobaThImXXzAXcsa-192" value="&lt;font style=&quot;font-size: 16px;&quot;&gt;4G模块驱动&lt;br&gt;&lt;/font&gt;" style="rounded=1;whiteSpace=wrap;html=1;fillColor=#dae8fc;strokeColor=#6c8ebf;" parent="1" vertex="1">
          <mxGeometry x="-5" y="1985" width="120" height="60" as="geometry" />
        </mxCell>
        <mxCell id="6IRPAobaThImXXzAXcsa-193" value="&lt;font style=&quot;font-size: 16px;&quot;&gt;蓝牙模块驱动&lt;br&gt;&lt;/font&gt;" style="rounded=1;whiteSpace=wrap;html=1;fillColor=#dae8fc;strokeColor=#6c8ebf;" parent="1" vertex="1">
          <mxGeometry x="130" y="1980" width="120" height="60" as="geometry" />
        </mxCell>
        <mxCell id="6IRPAobaThImXXzAXcsa-197" value="" style="endArrow=none;dashed=1;html=1;dashPattern=8 8;strokeWidth=2;rounded=0;" parent="1" edge="1">
          <mxGeometry width="50" height="50" relative="1" as="geometry">
            <mxPoint x="-660" y="2660" as="sourcePoint" />
            <mxPoint x="-260" y="2660" as="targetPoint" />
          </mxGeometry>
        </mxCell>
        <mxCell id="6IRPAobaThImXXzAXcsa-198" value="&lt;span style=&quot;font-size: 20px;&quot;&gt;Linux操作系统&lt;br&gt;&lt;br&gt;&lt;/span&gt;" style="rounded=1;whiteSpace=wrap;html=1;verticalAlign=top;" parent="1" vertex="1">
          <mxGeometry x="-660" y="2680" width="420" height="190" as="geometry" />
        </mxCell>
        <mxCell id="6IRPAobaThImXXzAXcsa-199" value="&lt;font style=&quot;font-size: 16px;&quot;&gt;信号量&lt;/font&gt;" style="rounded=1;whiteSpace=wrap;html=1;fillColor=#dae8fc;strokeColor=#6c8ebf;" parent="1" vertex="1">
          <mxGeometry x="-505" y="2715" width="120" height="60" as="geometry" />
        </mxCell>
        <mxCell id="6IRPAobaThImXXzAXcsa-200" value="&lt;font style=&quot;font-size: 16px;&quot;&gt;互斥锁&lt;/font&gt;" style="rounded=1;whiteSpace=wrap;html=1;fillColor=#dae8fc;strokeColor=#6c8ebf;" parent="1" vertex="1">
          <mxGeometry x="-365" y="2715" width="120" height="60" as="geometry" />
        </mxCell>
        <mxCell id="6IRPAobaThImXXzAXcsa-201" value="&lt;font style=&quot;font-size: 16px;&quot;&gt;多线程任务调度&lt;/font&gt;" style="rounded=1;whiteSpace=wrap;html=1;fillColor=#dae8fc;strokeColor=#6c8ebf;" parent="1" vertex="1">
          <mxGeometry x="-645" y="2715" width="120" height="60" as="geometry" />
        </mxCell>
        <mxCell id="6IRPAobaThImXXzAXcsa-202" value="&lt;font style=&quot;font-size: 16px;&quot;&gt;管道&lt;/font&gt;" style="rounded=1;whiteSpace=wrap;html=1;fillColor=#dae8fc;strokeColor=#6c8ebf;" parent="1" vertex="1">
          <mxGeometry x="-645" y="2790" width="120" height="60" as="geometry" />
        </mxCell>
        <mxCell id="6IRPAobaThImXXzAXcsa-203" value="&lt;font style=&quot;font-size: 16px;&quot;&gt;socket文件读写&lt;/font&gt;" style="rounded=1;whiteSpace=wrap;html=1;fillColor=#dae8fc;strokeColor=#6c8ebf;" parent="1" vertex="1">
          <mxGeometry x="-505" y="2790" width="120" height="60" as="geometry" />
        </mxCell>
        <mxCell id="6IRPAobaThImXXzAXcsa-204" value="&lt;span style=&quot;font-size: 16px;&quot;&gt;jpeg.so&lt;br style=&quot;font-size: 16px;&quot;&gt;&lt;/span&gt;" style="rounded=1;whiteSpace=wrap;html=1;fillColor=#dae8fc;strokeColor=#6c8ebf;fontSize=16;" parent="1" vertex="1">
          <mxGeometry x="-517" y="2485" width="120" height="60" as="geometry" />
        </mxCell>
        <mxCell id="6IRPAobaThImXXzAXcsa-205" value="&lt;font style=&quot;font-size: 16px;&quot;&gt;有线网口驱动&lt;br&gt;&lt;/font&gt;" style="rounded=1;whiteSpace=wrap;html=1;fillColor=#dae8fc;strokeColor=#6c8ebf;" parent="1" vertex="1">
          <mxGeometry x="-145" y="2070" width="120" height="60" as="geometry" />
        </mxCell>
        <mxCell id="6IRPAobaThImXXzAXcsa-206" value="&lt;font style=&quot;font-size: 16px;&quot;&gt;SD卡驱动&lt;br&gt;&lt;/font&gt;" style="rounded=1;whiteSpace=wrap;html=1;fillColor=#dae8fc;strokeColor=#6c8ebf;" parent="1" vertex="1">
          <mxGeometry y="2070" width="120" height="60" as="geometry" />
        </mxCell>
        <mxCell id="6IRPAobaThImXXzAXcsa-207" value="&lt;font style=&quot;font-size: 16px;&quot;&gt;I2C驱动&lt;br&gt;&lt;/font&gt;" style="rounded=1;whiteSpace=wrap;html=1;fillColor=#dae8fc;strokeColor=#6c8ebf;" parent="1" vertex="1">
          <mxGeometry x="136" y="2070" width="120" height="60" as="geometry" />
        </mxCell>
        <mxCell id="6IRPAobaThImXXzAXcsa-208" value="" style="endArrow=none;dashed=1;html=1;dashPattern=8 8;strokeWidth=2;rounded=0;" parent="1" edge="1">
          <mxGeometry width="50" height="50" relative="1" as="geometry">
            <mxPoint x="-150" y="2178" as="sourcePoint" />
            <mxPoint x="250" y="2178" as="targetPoint" />
          </mxGeometry>
        </mxCell>
        <mxCell id="6IRPAobaThImXXzAXcsa-209" value="&lt;span style=&quot;font-size: 20px;&quot;&gt;电路板硬件资源&lt;br&gt;&lt;/span&gt;" style="rounded=1;whiteSpace=wrap;html=1;verticalAlign=top;" parent="1" vertex="1">
          <mxGeometry x="-160" y="2198" width="420" height="140" as="geometry" />
        </mxCell>
        <mxCell id="6IRPAobaThImXXzAXcsa-210" value="&lt;font style=&quot;font-size: 16px;&quot;&gt;4G模块&lt;br&gt;&lt;/font&gt;" style="rounded=1;whiteSpace=wrap;html=1;fillColor=#dae8fc;strokeColor=#6c8ebf;" parent="1" vertex="1">
          <mxGeometry x="-150" y="2228" width="90" height="40" as="geometry" />
        </mxCell>
        <mxCell id="6IRPAobaThImXXzAXcsa-211" value="&lt;font style=&quot;font-size: 16px;&quot;&gt;千兆网口&lt;br&gt;&lt;/font&gt;" style="rounded=1;whiteSpace=wrap;html=1;fillColor=#dae8fc;strokeColor=#6c8ebf;" parent="1" vertex="1">
          <mxGeometry x="-55" y="2228" width="90" height="40" as="geometry" />
        </mxCell>
        <mxCell id="6IRPAobaThImXXzAXcsa-212" value="&lt;font style=&quot;font-size: 16px;&quot;&gt;按键&lt;br&gt;&lt;/font&gt;" style="rounded=1;whiteSpace=wrap;html=1;fillColor=#dae8fc;strokeColor=#6c8ebf;" parent="1" vertex="1">
          <mxGeometry x="45" y="2228" width="90" height="40" as="geometry" />
        </mxCell>
        <mxCell id="6IRPAobaThImXXzAXcsa-213" value="&lt;font style=&quot;font-size: 16px;&quot;&gt;指示灯&lt;br&gt;&lt;/font&gt;" style="rounded=1;whiteSpace=wrap;html=1;fillColor=#dae8fc;strokeColor=#6c8ebf;" parent="1" vertex="1">
          <mxGeometry x="145" y="2228" width="90" height="40" as="geometry" />
        </mxCell>
        <mxCell id="6IRPAobaThImXXzAXcsa-214" value="&lt;font style=&quot;font-size: 16px;&quot;&gt;SD卡&lt;br&gt;&lt;/font&gt;" style="rounded=1;whiteSpace=wrap;html=1;fillColor=#dae8fc;strokeColor=#6c8ebf;" parent="1" vertex="1">
          <mxGeometry x="-150" y="2278" width="90" height="40" as="geometry" />
        </mxCell>
        <mxCell id="6IRPAobaThImXXzAXcsa-215" value="&lt;font style=&quot;font-size: 16px;&quot;&gt;Wifi模块&lt;br&gt;&lt;/font&gt;" style="rounded=1;whiteSpace=wrap;html=1;fillColor=#dae8fc;strokeColor=#6c8ebf;" parent="1" vertex="1">
          <mxGeometry x="-55" y="2278" width="90" height="40" as="geometry" />
        </mxCell>
        <mxCell id="6IRPAobaThImXXzAXcsa-216" value="&lt;font style=&quot;font-size: 16px;&quot;&gt;蓝牙模块&lt;br&gt;&lt;/font&gt;" style="rounded=1;whiteSpace=wrap;html=1;fillColor=#dae8fc;strokeColor=#6c8ebf;" parent="1" vertex="1">
          <mxGeometry x="46" y="2278" width="90" height="40" as="geometry" />
        </mxCell>
        <mxCell id="6IRPAobaThImXXzAXcsa-217" value="&lt;font style=&quot;font-size: 16px;&quot;&gt;温湿度模块&lt;br&gt;&lt;/font&gt;" style="rounded=1;whiteSpace=wrap;html=1;fillColor=#dae8fc;strokeColor=#6c8ebf;" parent="1" vertex="1">
          <mxGeometry x="148.5" y="2278" width="90" height="40" as="geometry" />
        </mxCell>
        <mxCell id="6IRPAobaThImXXzAXcsa-219" value="&lt;span style=&quot;font-size: 20px;&quot;&gt;RT1176&lt;br&gt;&lt;br&gt;&lt;/span&gt;" style="rounded=1;whiteSpace=wrap;html=1;verticalAlign=top;" parent="1" vertex="1">
          <mxGeometry x="-790" y="2930" width="500" height="550" as="geometry" />
        </mxCell>
        <mxCell id="6IRPAobaThImXXzAXcsa-226" style="edgeStyle=orthogonalEdgeStyle;rounded=0;orthogonalLoop=1;jettySize=auto;html=1;exitX=0.5;exitY=1;exitDx=0;exitDy=0;entryX=0.5;entryY=0;entryDx=0;entryDy=0;" parent="1" source="6IRPAobaThImXXzAXcsa-218" target="6IRPAobaThImXXzAXcsa-221" edge="1">
          <mxGeometry relative="1" as="geometry" />
        </mxCell>
        <mxCell id="6IRPAobaThImXXzAXcsa-218" value="&lt;span style=&quot;font-size: 16px;&quot;&gt;SAI模块DMA&lt;br&gt;中断发生&lt;/span&gt;" style="rounded=1;whiteSpace=wrap;html=1;fillColor=#dae8fc;strokeColor=#6c8ebf;" parent="1" vertex="1">
          <mxGeometry x="-732" y="2960" width="140" height="60" as="geometry" />
        </mxCell>
        <mxCell id="6IRPAobaThImXXzAXcsa-225" style="edgeStyle=orthogonalEdgeStyle;rounded=0;orthogonalLoop=1;jettySize=auto;html=1;exitX=0.5;exitY=1;exitDx=0;exitDy=0;" parent="1" source="6IRPAobaThImXXzAXcsa-230" edge="1">
          <mxGeometry relative="1" as="geometry">
            <mxPoint x="-460" y="3290" as="targetPoint" />
          </mxGeometry>
        </mxCell>
        <mxCell id="6IRPAobaThImXXzAXcsa-232" style="edgeStyle=orthogonalEdgeStyle;rounded=0;orthogonalLoop=1;jettySize=auto;html=1;exitX=0.5;exitY=1;exitDx=0;exitDy=0;" parent="1" target="6IRPAobaThImXXzAXcsa-230" edge="1">
          <mxGeometry relative="1" as="geometry">
            <mxPoint x="-460" y="3020" as="sourcePoint" />
          </mxGeometry>
        </mxCell>
        <mxCell id="6IRPAobaThImXXzAXcsa-227" style="edgeStyle=orthogonalEdgeStyle;rounded=0;orthogonalLoop=1;jettySize=auto;html=1;" parent="1" source="6IRPAobaThImXXzAXcsa-221" target="6IRPAobaThImXXzAXcsa-223" edge="1">
          <mxGeometry relative="1" as="geometry" />
        </mxCell>
        <mxCell id="6IRPAobaThImXXzAXcsa-221" value="&lt;span style=&quot;font-size: 16px;&quot;&gt;拷贝数据到录音模块环形缓冲数组&lt;br&gt;&lt;/span&gt;" style="rounded=1;whiteSpace=wrap;html=1;fillColor=#dae8fc;strokeColor=#6c8ebf;" parent="1" vertex="1">
          <mxGeometry x="-732" y="3060" width="140" height="60" as="geometry" />
        </mxCell>
        <mxCell id="6IRPAobaThImXXzAXcsa-228" style="edgeStyle=orthogonalEdgeStyle;rounded=0;orthogonalLoop=1;jettySize=auto;html=1;exitX=0.5;exitY=1;exitDx=0;exitDy=0;entryX=0;entryY=0.5;entryDx=0;entryDy=0;" parent="1" source="6IRPAobaThImXXzAXcsa-223" target="6IRPAobaThImXXzAXcsa-218" edge="1">
          <mxGeometry relative="1" as="geometry" />
        </mxCell>
        <mxCell id="6IRPAobaThImXXzAXcsa-234" style="edgeStyle=orthogonalEdgeStyle;rounded=0;orthogonalLoop=1;jettySize=auto;html=1;exitX=1;exitY=0.5;exitDx=0;exitDy=0;" parent="1" source="6IRPAobaThImXXzAXcsa-223" target="6IRPAobaThImXXzAXcsa-230" edge="1">
          <mxGeometry relative="1" as="geometry" />
        </mxCell>
        <mxCell id="6IRPAobaThImXXzAXcsa-223" value="&lt;span style=&quot;font-size: 16px;&quot;&gt;发送一个队列消息&lt;br&gt;&lt;/span&gt;" style="rounded=1;whiteSpace=wrap;html=1;fillColor=#dae8fc;strokeColor=#6c8ebf;" parent="1" vertex="1">
          <mxGeometry x="-732" y="3160" width="140" height="60" as="geometry" />
        </mxCell>
        <mxCell id="6IRPAobaThImXXzAXcsa-230" value="&lt;span style=&quot;font-size: 16px;&quot;&gt;阻塞等待接收队列消息&lt;/span&gt;" style="rounded=1;whiteSpace=wrap;html=1;fillColor=#dae8fc;strokeColor=#6c8ebf;" parent="1" vertex="1">
          <mxGeometry x="-530" y="3160" width="140" height="60" as="geometry" />
        </mxCell>
        <mxCell id="6IRPAobaThImXXzAXcsa-233" value="&lt;span style=&quot;font-size: 16px;&quot;&gt;录音模块线程&lt;/span&gt;" style="rounded=1;whiteSpace=wrap;html=1;fillColor=#dae8fc;strokeColor=#6c8ebf;" parent="1" vertex="1">
          <mxGeometry x="-530" y="2960" width="140" height="60" as="geometry" />
        </mxCell>
        <mxCell id="6IRPAobaThImXXzAXcsa-238" style="edgeStyle=orthogonalEdgeStyle;rounded=0;orthogonalLoop=1;jettySize=auto;html=1;entryX=0.5;entryY=0;entryDx=0;entryDy=0;" parent="1" source="6IRPAobaThImXXzAXcsa-236" target="6IRPAobaThImXXzAXcsa-237" edge="1">
          <mxGeometry relative="1" as="geometry" />
        </mxCell>
        <mxCell id="6IRPAobaThImXXzAXcsa-236" value="&lt;span style=&quot;font-size: 16px;&quot;&gt;排列麦克风顺序&lt;/span&gt;" style="rounded=1;whiteSpace=wrap;html=1;fillColor=#dae8fc;strokeColor=#6c8ebf;" parent="1" vertex="1">
          <mxGeometry x="-530" y="3290" width="140" height="60" as="geometry" />
        </mxCell>
        <mxCell id="6IRPAobaThImXXzAXcsa-240" style="edgeStyle=orthogonalEdgeStyle;rounded=0;orthogonalLoop=1;jettySize=auto;html=1;entryX=1;entryY=0.5;entryDx=0;entryDy=0;" parent="1" source="6IRPAobaThImXXzAXcsa-237" target="6IRPAobaThImXXzAXcsa-230" edge="1">
          <mxGeometry relative="1" as="geometry">
            <Array as="points">
              <mxPoint x="-370" y="3430" />
              <mxPoint x="-370" y="3190" />
            </Array>
          </mxGeometry>
        </mxCell>
        <mxCell id="6IRPAobaThImXXzAXcsa-237" value="&lt;span style=&quot;font-size: 16px;&quot;&gt;通过UDP协议发送音频数据&lt;/span&gt;" style="rounded=1;whiteSpace=wrap;html=1;fillColor=#dae8fc;strokeColor=#6c8ebf;" parent="1" vertex="1">
          <mxGeometry x="-530" y="3400" width="140" height="60" as="geometry" />
        </mxCell>
        <mxCell id="6IRPAobaThImXXzAXcsa-241" value="&lt;span style=&quot;font-size: 20px;&quot;&gt;RT1176&lt;br&gt;&lt;br&gt;&lt;/span&gt;" style="rounded=1;whiteSpace=wrap;html=1;verticalAlign=top;" parent="1" vertex="1">
          <mxGeometry x="-200" y="3070" width="410" height="430" as="geometry" />
        </mxCell>
        <mxCell id="6IRPAobaThImXXzAXcsa-250" value="&lt;span style=&quot;font-size: 16px;&quot;&gt;录音模块线程&lt;br&gt;&lt;/span&gt;" style="rounded=1;whiteSpace=wrap;html=1;fillColor=#dae8fc;strokeColor=#6c8ebf;" parent="1" vertex="1">
          <mxGeometry x="-160" y="3153" width="100" height="60" as="geometry" />
        </mxCell>
        <mxCell id="6IRPAobaThImXXzAXcsa-251" value="&lt;span style=&quot;font-size: 16px;&quot;&gt;升级线程&lt;/span&gt;" style="rounded=1;whiteSpace=wrap;html=1;fillColor=#dae8fc;strokeColor=#6c8ebf;" parent="1" vertex="1">
          <mxGeometry x="-36.5" y="3153" width="96.5" height="60" as="geometry" />
        </mxCell>
        <mxCell id="6IRPAobaThImXXzAXcsa-261" style="edgeStyle=orthogonalEdgeStyle;rounded=0;orthogonalLoop=1;jettySize=auto;html=1;exitX=0.25;exitY=0;exitDx=0;exitDy=0;entryX=0.5;entryY=1;entryDx=0;entryDy=0;" parent="1" source="6IRPAobaThImXXzAXcsa-254" target="6IRPAobaThImXXzAXcsa-250" edge="1">
          <mxGeometry relative="1" as="geometry" />
        </mxCell>
        <mxCell id="6IRPAobaThImXXzAXcsa-262" style="edgeStyle=orthogonalEdgeStyle;rounded=0;orthogonalLoop=1;jettySize=auto;html=1;exitX=0.5;exitY=0;exitDx=0;exitDy=0;entryX=0.431;entryY=1.051;entryDx=0;entryDy=0;entryPerimeter=0;" parent="1" source="6IRPAobaThImXXzAXcsa-254" target="6IRPAobaThImXXzAXcsa-251" edge="1">
          <mxGeometry relative="1" as="geometry" />
        </mxCell>
        <mxCell id="6IRPAobaThImXXzAXcsa-263" style="edgeStyle=orthogonalEdgeStyle;rounded=0;orthogonalLoop=1;jettySize=auto;html=1;exitX=0.75;exitY=0;exitDx=0;exitDy=0;entryX=0.5;entryY=1;entryDx=0;entryDy=0;" parent="1" source="6IRPAobaThImXXzAXcsa-254" target="6IRPAobaThImXXzAXcsa-258" edge="1">
          <mxGeometry relative="1" as="geometry" />
        </mxCell>
        <mxCell id="6IRPAobaThImXXzAXcsa-254" value="&lt;span style=&quot;font-size: 16px;&quot;&gt;模块注册函数接口&lt;/span&gt;" style="rounded=1;whiteSpace=wrap;html=1;fillColor=#dae8fc;strokeColor=#6c8ebf;" parent="1" vertex="1">
          <mxGeometry x="-160" y="3283" width="330" height="60" as="geometry" />
        </mxCell>
        <mxCell id="6IRPAobaThImXXzAXcsa-260" style="edgeStyle=orthogonalEdgeStyle;rounded=0;orthogonalLoop=1;jettySize=auto;html=1;exitX=0.5;exitY=0;exitDx=0;exitDy=0;entryX=0.781;entryY=0.989;entryDx=0;entryDy=0;entryPerimeter=0;" parent="1" source="6IRPAobaThImXXzAXcsa-256" target="6IRPAobaThImXXzAXcsa-254" edge="1">
          <mxGeometry relative="1" as="geometry" />
        </mxCell>
        <mxCell id="6IRPAobaThImXXzAXcsa-256" value="&lt;span style=&quot;font-size: 16px;&quot;&gt;TCP线程接收事件&lt;/span&gt;" style="rounded=1;whiteSpace=wrap;html=1;fillColor=#dae8fc;strokeColor=#6c8ebf;" parent="1" vertex="1">
          <mxGeometry x="28.5" y="3393" width="140" height="60" as="geometry" />
        </mxCell>
        <mxCell id="6IRPAobaThImXXzAXcsa-259" style="edgeStyle=orthogonalEdgeStyle;rounded=0;orthogonalLoop=1;jettySize=auto;html=1;exitX=0.5;exitY=0;exitDx=0;exitDy=0;entryX=0.2;entryY=0.989;entryDx=0;entryDy=0;entryPerimeter=0;" parent="1" source="6IRPAobaThImXXzAXcsa-257" target="6IRPAobaThImXXzAXcsa-254" edge="1">
          <mxGeometry relative="1" as="geometry" />
        </mxCell>
        <mxCell id="6IRPAobaThImXXzAXcsa-257" value="&lt;span style=&quot;font-size: 16px;&quot;&gt;UDP线程接收事件&lt;br&gt;&lt;/span&gt;" style="rounded=1;whiteSpace=wrap;html=1;fillColor=#dae8fc;strokeColor=#6c8ebf;" parent="1" vertex="1">
          <mxGeometry x="-165" y="3393" width="140" height="60" as="geometry" />
        </mxCell>
        <mxCell id="6IRPAobaThImXXzAXcsa-258" value="&lt;span style=&quot;font-size: 16px;&quot;&gt;led模块线程&lt;br&gt;&lt;/span&gt;" style="rounded=1;whiteSpace=wrap;html=1;fillColor=#dae8fc;strokeColor=#6c8ebf;" parent="1" vertex="1">
          <mxGeometry x="88.5" y="3153" width="95" height="60" as="geometry" />
        </mxCell>
        <mxCell id="pUKFL5h7S0owQCvHCEkm-2" value="MIC1" style="ellipse;whiteSpace=wrap;html=1;aspect=fixed;" parent="1" vertex="1">
          <mxGeometry x="-787" y="3660" width="50" height="50" as="geometry" />
        </mxCell>
        <mxCell id="pUKFL5h7S0owQCvHCEkm-3" value="MIC3" style="ellipse;whiteSpace=wrap;html=1;aspect=fixed;" parent="1" vertex="1">
          <mxGeometry x="-787" y="3720" width="50" height="50" as="geometry" />
        </mxCell>
        <mxCell id="pUKFL5h7S0owQCvHCEkm-4" value="MIC4" style="ellipse;whiteSpace=wrap;html=1;aspect=fixed;" parent="1" vertex="1">
          <mxGeometry x="-717" y="3720" width="50" height="50" as="geometry" />
        </mxCell>
        <mxCell id="pUKFL5h7S0owQCvHCEkm-5" value="MIC2" style="ellipse;whiteSpace=wrap;html=1;aspect=fixed;" parent="1" vertex="1">
          <mxGeometry x="-717" y="3660" width="50" height="50" as="geometry" />
        </mxCell>
        <mxCell id="pUKFL5h7S0owQCvHCEkm-27" style="edgeStyle=orthogonalEdgeStyle;rounded=0;orthogonalLoop=1;jettySize=auto;html=1;entryX=0;entryY=0.5;entryDx=0;entryDy=0;" parent="1" source="pUKFL5h7S0owQCvHCEkm-7" target="pUKFL5h7S0owQCvHCEkm-8" edge="1">
          <mxGeometry relative="1" as="geometry" />
        </mxCell>
        <mxCell id="pUKFL5h7S0owQCvHCEkm-7" value="&lt;span style=&quot;font-size: 20px;&quot;&gt;&lt;br&gt;&lt;/span&gt;" style="rounded=1;whiteSpace=wrap;html=1;verticalAlign=top;" parent="1" vertex="1">
          <mxGeometry x="-812" y="3790" width="180" height="120" as="geometry" />
        </mxCell>
        <mxCell id="pUKFL5h7S0owQCvHCEkm-35" style="edgeStyle=orthogonalEdgeStyle;rounded=0;orthogonalLoop=1;jettySize=auto;html=1;entryX=0.5;entryY=1;entryDx=0;entryDy=0;" parent="1" source="pUKFL5h7S0owQCvHCEkm-8" target="pUKFL5h7S0owQCvHCEkm-29" edge="1">
          <mxGeometry relative="1" as="geometry" />
        </mxCell>
        <mxCell id="pUKFL5h7S0owQCvHCEkm-8" value="&lt;span style=&quot;font-size: 16px;&quot;&gt;ES7210&lt;br&gt;模块2&lt;br&gt;&lt;/span&gt;" style="rounded=1;whiteSpace=wrap;html=1;verticalAlign=middle;" parent="1" vertex="1">
          <mxGeometry x="-545" y="3810" width="120" height="80" as="geometry" />
        </mxCell>
        <mxCell id="pUKFL5h7S0owQCvHCEkm-9" value="MIC1" style="ellipse;whiteSpace=wrap;html=1;aspect=fixed;" parent="1" vertex="1">
          <mxGeometry x="-787" y="3800" width="50" height="50" as="geometry" />
        </mxCell>
        <mxCell id="pUKFL5h7S0owQCvHCEkm-10" value="MIC3" style="ellipse;whiteSpace=wrap;html=1;aspect=fixed;" parent="1" vertex="1">
          <mxGeometry x="-787" y="3860" width="50" height="50" as="geometry" />
        </mxCell>
        <mxCell id="pUKFL5h7S0owQCvHCEkm-11" value="MIC4" style="ellipse;whiteSpace=wrap;html=1;aspect=fixed;" parent="1" vertex="1">
          <mxGeometry x="-717" y="3860" width="50" height="50" as="geometry" />
        </mxCell>
        <mxCell id="pUKFL5h7S0owQCvHCEkm-12" value="MIC2" style="ellipse;whiteSpace=wrap;html=1;aspect=fixed;" parent="1" vertex="1">
          <mxGeometry x="-717" y="3800" width="50" height="50" as="geometry" />
        </mxCell>
        <mxCell id="pUKFL5h7S0owQCvHCEkm-31" style="edgeStyle=orthogonalEdgeStyle;rounded=0;orthogonalLoop=1;jettySize=auto;html=1;entryX=0;entryY=0.5;entryDx=0;entryDy=0;" parent="1" source="pUKFL5h7S0owQCvHCEkm-13" target="pUKFL5h7S0owQCvHCEkm-14" edge="1">
          <mxGeometry relative="1" as="geometry" />
        </mxCell>
        <mxCell id="pUKFL5h7S0owQCvHCEkm-13" value="&lt;span style=&quot;font-size: 20px;&quot;&gt;&lt;br&gt;&lt;/span&gt;" style="rounded=1;whiteSpace=wrap;html=1;verticalAlign=top;" parent="1" vertex="1">
          <mxGeometry x="-812" y="3920" width="180" height="120" as="geometry" />
        </mxCell>
        <mxCell id="pUKFL5h7S0owQCvHCEkm-34" style="edgeStyle=orthogonalEdgeStyle;rounded=0;orthogonalLoop=1;jettySize=auto;html=1;entryX=0.5;entryY=1;entryDx=0;entryDy=0;" parent="1" source="pUKFL5h7S0owQCvHCEkm-14" target="pUKFL5h7S0owQCvHCEkm-8" edge="1">
          <mxGeometry relative="1" as="geometry" />
        </mxCell>
        <mxCell id="pUKFL5h7S0owQCvHCEkm-14" value="&lt;span style=&quot;font-size: 16px;&quot;&gt;ES7210&lt;br&gt;模块3&lt;br&gt;&lt;/span&gt;" style="rounded=1;whiteSpace=wrap;html=1;verticalAlign=middle;" parent="1" vertex="1">
          <mxGeometry x="-545" y="3940" width="120" height="80" as="geometry" />
        </mxCell>
        <mxCell id="pUKFL5h7S0owQCvHCEkm-15" value="MIC1" style="ellipse;whiteSpace=wrap;html=1;aspect=fixed;" parent="1" vertex="1">
          <mxGeometry x="-787" y="3930" width="50" height="50" as="geometry" />
        </mxCell>
        <mxCell id="pUKFL5h7S0owQCvHCEkm-16" value="MIC3" style="ellipse;whiteSpace=wrap;html=1;aspect=fixed;" parent="1" vertex="1">
          <mxGeometry x="-787" y="3990" width="50" height="50" as="geometry" />
        </mxCell>
        <mxCell id="pUKFL5h7S0owQCvHCEkm-17" value="MIC4" style="ellipse;whiteSpace=wrap;html=1;aspect=fixed;" parent="1" vertex="1">
          <mxGeometry x="-717" y="3990" width="50" height="50" as="geometry" />
        </mxCell>
        <mxCell id="pUKFL5h7S0owQCvHCEkm-18" value="MIC2" style="ellipse;whiteSpace=wrap;html=1;aspect=fixed;" parent="1" vertex="1">
          <mxGeometry x="-717" y="3930" width="50" height="50" as="geometry" />
        </mxCell>
        <mxCell id="pUKFL5h7S0owQCvHCEkm-32" style="edgeStyle=orthogonalEdgeStyle;rounded=0;orthogonalLoop=1;jettySize=auto;html=1;" parent="1" source="pUKFL5h7S0owQCvHCEkm-19" edge="1">
          <mxGeometry relative="1" as="geometry">
            <mxPoint x="-550" y="4120" as="targetPoint" />
          </mxGeometry>
        </mxCell>
        <mxCell id="pUKFL5h7S0owQCvHCEkm-19" value="&lt;span style=&quot;font-size: 20px;&quot;&gt;&lt;br&gt;&lt;/span&gt;" style="rounded=1;whiteSpace=wrap;html=1;verticalAlign=top;" parent="1" vertex="1">
          <mxGeometry x="-812" y="4060" width="180" height="120" as="geometry" />
        </mxCell>
        <mxCell id="pUKFL5h7S0owQCvHCEkm-33" style="edgeStyle=orthogonalEdgeStyle;rounded=0;orthogonalLoop=1;jettySize=auto;html=1;entryX=0.5;entryY=1;entryDx=0;entryDy=0;" parent="1" source="pUKFL5h7S0owQCvHCEkm-20" target="pUKFL5h7S0owQCvHCEkm-14" edge="1">
          <mxGeometry relative="1" as="geometry" />
        </mxCell>
        <mxCell id="pUKFL5h7S0owQCvHCEkm-20" value="&lt;span style=&quot;font-size: 16px;&quot;&gt;ES7210&lt;br&gt;模块4&lt;br&gt;&lt;/span&gt;" style="rounded=1;whiteSpace=wrap;html=1;verticalAlign=middle;" parent="1" vertex="1">
          <mxGeometry x="-545" y="4080" width="120" height="80" as="geometry" />
        </mxCell>
        <mxCell id="pUKFL5h7S0owQCvHCEkm-21" value="MIC1" style="ellipse;whiteSpace=wrap;html=1;aspect=fixed;" parent="1" vertex="1">
          <mxGeometry x="-787" y="4070" width="50" height="50" as="geometry" />
        </mxCell>
        <mxCell id="pUKFL5h7S0owQCvHCEkm-22" value="MIC3" style="ellipse;whiteSpace=wrap;html=1;aspect=fixed;" parent="1" vertex="1">
          <mxGeometry x="-787" y="4130" width="50" height="50" as="geometry" />
        </mxCell>
        <mxCell id="pUKFL5h7S0owQCvHCEkm-23" value="MIC4" style="ellipse;whiteSpace=wrap;html=1;aspect=fixed;" parent="1" vertex="1">
          <mxGeometry x="-717" y="4130" width="50" height="50" as="geometry" />
        </mxCell>
        <mxCell id="pUKFL5h7S0owQCvHCEkm-24" value="MIC2" style="ellipse;whiteSpace=wrap;html=1;aspect=fixed;" parent="1" vertex="1">
          <mxGeometry x="-717" y="4070" width="50" height="50" as="geometry" />
        </mxCell>
        <mxCell id="pUKFL5h7S0owQCvHCEkm-29" value="&lt;span style=&quot;font-size: 16px;&quot;&gt;ES7210&lt;br&gt;模块1&lt;br&gt;&lt;/span&gt;" style="rounded=1;whiteSpace=wrap;html=1;verticalAlign=middle;" parent="1" vertex="1">
          <mxGeometry x="-545" y="3670" width="120" height="80" as="geometry" />
        </mxCell>
        <mxCell id="pUKFL5h7S0owQCvHCEkm-39" value="&lt;font style=&quot;font-size: 15px;&quot;&gt;data1&lt;/font&gt;" style="text;strokeColor=none;align=center;fillColor=none;html=1;verticalAlign=middle;whiteSpace=wrap;rounded=0;" parent="1" vertex="1">
          <mxGeometry x="-232.5" y="3780" width="60" height="30" as="geometry" />
        </mxCell>
        <mxCell id="0iMLNUh1rzV7FVRTZrC5-22" style="edgeStyle=orthogonalEdgeStyle;rounded=0;orthogonalLoop=1;jettySize=auto;html=1;entryX=0;entryY=0.5;entryDx=0;entryDy=0;" parent="1" source="0iMLNUh1rzV7FVRTZrC5-2" target="0iMLNUh1rzV7FVRTZrC5-10" edge="1">
          <mxGeometry relative="1" as="geometry" />
        </mxCell>
        <mxCell id="0iMLNUh1rzV7FVRTZrC5-2" value="&lt;font style=&quot;font-size: 20px;&quot;&gt;麦克风采集设备&lt;/font&gt;" style="rounded=1;whiteSpace=wrap;html=1;verticalAlign=top;" parent="1" vertex="1">
          <mxGeometry x="-804" y="4920" width="176.5" height="410" as="geometry" />
        </mxCell>
        <mxCell id="0iMLNUh1rzV7FVRTZrC5-8" style="edgeStyle=orthogonalEdgeStyle;rounded=0;orthogonalLoop=1;jettySize=auto;html=1;" parent="1" source="0iMLNUh1rzV7FVRTZrC5-3" target="0iMLNUh1rzV7FVRTZrC5-6" edge="1">
          <mxGeometry relative="1" as="geometry" />
        </mxCell>
        <mxCell id="0iMLNUh1rzV7FVRTZrC5-3" value="&lt;span style=&quot;font-size: 16px;&quot;&gt;64路麦克风阵列板&lt;br&gt;&lt;/span&gt;" style="rounded=1;whiteSpace=wrap;html=1;verticalAlign=middle;" parent="1" vertex="1">
          <mxGeometry x="-785" y="4960" width="140" height="50" as="geometry" />
        </mxCell>
        <mxCell id="0iMLNUh1rzV7FVRTZrC5-9" style="edgeStyle=orthogonalEdgeStyle;rounded=0;orthogonalLoop=1;jettySize=auto;html=1;" parent="1" source="0iMLNUh1rzV7FVRTZrC5-6" target="0iMLNUh1rzV7FVRTZrC5-7" edge="1">
          <mxGeometry relative="1" as="geometry" />
        </mxCell>
        <mxCell id="0iMLNUh1rzV7FVRTZrC5-6" value="&lt;span style=&quot;font-size: 16px;&quot;&gt;MCU主控芯片&lt;br&gt;麦克风数据采集&lt;br&gt;&lt;/span&gt;" style="rounded=1;whiteSpace=wrap;html=1;verticalAlign=middle;" parent="1" vertex="1">
          <mxGeometry x="-785" y="5060" width="140" height="60" as="geometry" />
        </mxCell>
        <mxCell id="0iMLNUh1rzV7FVRTZrC5-7" value="&lt;span style=&quot;font-size: 16px;&quot;&gt;MCU主控芯片通过&lt;br&gt;网络发送采集数据&lt;br&gt;&lt;/span&gt;" style="rounded=1;whiteSpace=wrap;html=1;verticalAlign=middle;" parent="1" vertex="1">
          <mxGeometry x="-785" y="5160" width="140" height="60" as="geometry" />
        </mxCell>
        <mxCell id="BzhLNjvLBWkgz3VRTSKQ-135" style="edgeStyle=orthogonalEdgeStyle;rounded=0;orthogonalLoop=1;jettySize=auto;html=1;" edge="1" parent="1" source="0iMLNUh1rzV7FVRTZrC5-10" target="0iMLNUh1rzV7FVRTZrC5-16">
          <mxGeometry relative="1" as="geometry" />
        </mxCell>
        <mxCell id="0iMLNUh1rzV7FVRTZrC5-10" value="&lt;font style=&quot;font-size: 20px;&quot;&gt;算法处理设备&lt;/font&gt;" style="rounded=1;whiteSpace=wrap;html=1;verticalAlign=top;" parent="1" vertex="1">
          <mxGeometry x="-546.5" y="4920" width="176.5" height="410" as="geometry" />
        </mxCell>
        <mxCell id="0iMLNUh1rzV7FVRTZrC5-11" style="edgeStyle=orthogonalEdgeStyle;rounded=0;orthogonalLoop=1;jettySize=auto;html=1;" parent="1" source="0iMLNUh1rzV7FVRTZrC5-12" target="0iMLNUh1rzV7FVRTZrC5-14" edge="1">
          <mxGeometry relative="1" as="geometry" />
        </mxCell>
        <mxCell id="0iMLNUh1rzV7FVRTZrC5-12" value="&lt;span style=&quot;font-size: 16px;&quot;&gt;通过网络接收&lt;br&gt;64路音频数据&lt;br&gt;&lt;/span&gt;" style="rounded=1;whiteSpace=wrap;html=1;verticalAlign=middle;" parent="1" vertex="1">
          <mxGeometry x="-528.25" y="4960" width="140" height="50" as="geometry" />
        </mxCell>
        <mxCell id="0iMLNUh1rzV7FVRTZrC5-13" style="edgeStyle=orthogonalEdgeStyle;rounded=0;orthogonalLoop=1;jettySize=auto;html=1;" parent="1" source="0iMLNUh1rzV7FVRTZrC5-14" target="0iMLNUh1rzV7FVRTZrC5-15" edge="1">
          <mxGeometry relative="1" as="geometry" />
        </mxCell>
        <mxCell id="0iMLNUh1rzV7FVRTZrC5-14" value="&lt;span style=&quot;font-size: 16px;&quot;&gt;64路声源定位&lt;br&gt;算法处理&lt;br&gt;&lt;/span&gt;" style="rounded=1;whiteSpace=wrap;html=1;verticalAlign=middle;" parent="1" vertex="1">
          <mxGeometry x="-528.25" y="5060" width="140" height="55" as="geometry" />
        </mxCell>
        <mxCell id="BzhLNjvLBWkgz3VRTSKQ-137" style="edgeStyle=orthogonalEdgeStyle;rounded=0;orthogonalLoop=1;jettySize=auto;html=1;entryX=0.5;entryY=0;entryDx=0;entryDy=0;" edge="1" parent="1" source="0iMLNUh1rzV7FVRTZrC5-15" target="BzhLNjvLBWkgz3VRTSKQ-136">
          <mxGeometry relative="1" as="geometry" />
        </mxCell>
        <mxCell id="0iMLNUh1rzV7FVRTZrC5-15" value="&lt;span style=&quot;font-size: 16px;&quot;&gt;声源定位图像&lt;br&gt;&lt;/span&gt;" style="rounded=1;whiteSpace=wrap;html=1;verticalAlign=middle;" parent="1" vertex="1">
          <mxGeometry x="-528.25" y="5150" width="140" height="60" as="geometry" />
        </mxCell>
        <mxCell id="0iMLNUh1rzV7FVRTZrC5-16" value="&lt;font style=&quot;font-size: 20px;&quot;&gt;声学分析云平台&lt;/font&gt;" style="rounded=1;whiteSpace=wrap;html=1;verticalAlign=top;" parent="1" vertex="1">
          <mxGeometry x="-293" y="4920" width="176.5" height="410" as="geometry" />
        </mxCell>
        <mxCell id="0iMLNUh1rzV7FVRTZrC5-17" style="edgeStyle=orthogonalEdgeStyle;rounded=0;orthogonalLoop=1;jettySize=auto;html=1;" parent="1" source="0iMLNUh1rzV7FVRTZrC5-18" target="0iMLNUh1rzV7FVRTZrC5-20" edge="1">
          <mxGeometry relative="1" as="geometry" />
        </mxCell>
        <mxCell id="0iMLNUh1rzV7FVRTZrC5-18" value="&lt;span style=&quot;font-size: 16px;&quot;&gt;声源定位图像&lt;br&gt;&lt;/span&gt;" style="rounded=1;whiteSpace=wrap;html=1;verticalAlign=middle;" parent="1" vertex="1">
          <mxGeometry x="-272.5" y="4960" width="140" height="50" as="geometry" />
        </mxCell>
        <mxCell id="0iMLNUh1rzV7FVRTZrC5-19" style="edgeStyle=orthogonalEdgeStyle;rounded=0;orthogonalLoop=1;jettySize=auto;html=1;" parent="1" source="0iMLNUh1rzV7FVRTZrC5-20" target="0iMLNUh1rzV7FVRTZrC5-21" edge="1">
          <mxGeometry relative="1" as="geometry" />
        </mxCell>
        <mxCell id="0iMLNUh1rzV7FVRTZrC5-20" value="&lt;span style=&quot;font-size: 16px;&quot;&gt;拉取视频流&lt;br&gt;&lt;/span&gt;" style="rounded=1;whiteSpace=wrap;html=1;verticalAlign=middle;" parent="1" vertex="1">
          <mxGeometry x="-272.5" y="5050" width="140" height="60" as="geometry" />
        </mxCell>
        <mxCell id="BzhLNjvLBWkgz3VRTSKQ-134" style="edgeStyle=orthogonalEdgeStyle;rounded=0;orthogonalLoop=1;jettySize=auto;html=1;entryX=0.5;entryY=0;entryDx=0;entryDy=0;" edge="1" parent="1" source="0iMLNUh1rzV7FVRTZrC5-21" target="BzhLNjvLBWkgz3VRTSKQ-133">
          <mxGeometry relative="1" as="geometry" />
        </mxCell>
        <mxCell id="0iMLNUh1rzV7FVRTZrC5-21" value="&lt;span style=&quot;font-size: 16px;&quot;&gt;声源定位图像&lt;br&gt;叠加视频&lt;br&gt;&lt;/span&gt;" style="rounded=1;whiteSpace=wrap;html=1;verticalAlign=middle;" parent="1" vertex="1">
          <mxGeometry x="-272.5" y="5150" width="140" height="60" as="geometry" />
        </mxCell>
        <mxCell id="0iMLNUh1rzV7FVRTZrC5-25" value="&lt;div style=&quot;&quot;&gt;&lt;span style=&quot;font-size: 16px;&quot;&gt;千兆网口&lt;/span&gt;&lt;/div&gt;" style="text;html=1;align=center;verticalAlign=middle;resizable=0;points=[];autosize=1;strokeColor=none;fillColor=none;" parent="1" vertex="1">
          <mxGeometry x="-635" y="5085" width="90" height="30" as="geometry" />
        </mxCell>
        <mxCell id="0iMLNUh1rzV7FVRTZrC5-26" value="&lt;div style=&quot;&quot;&gt;&lt;span style=&quot;font-size: 16px;&quot;&gt;千兆网口&lt;/span&gt;&lt;/div&gt;" style="text;html=1;align=center;verticalAlign=middle;resizable=0;points=[];autosize=1;strokeColor=none;fillColor=none;" parent="1" vertex="1">
          <mxGeometry x="-375" y="5090" width="90" height="30" as="geometry" />
        </mxCell>
        <mxCell id="BzhLNjvLBWkgz3VRTSKQ-132" style="edgeStyle=orthogonalEdgeStyle;rounded=0;orthogonalLoop=1;jettySize=auto;html=1;" edge="1" parent="1" source="0iMLNUh1rzV7FVRTZrC5-29" target="0iMLNUh1rzV7FVRTZrC5-20">
          <mxGeometry relative="1" as="geometry" />
        </mxCell>
        <mxCell id="0iMLNUh1rzV7FVRTZrC5-29" value="&lt;font style=&quot;font-size: 20px;&quot;&gt;海康摄像机&lt;/font&gt;" style="rounded=1;whiteSpace=wrap;html=1;verticalAlign=top;" parent="1" vertex="1">
          <mxGeometry x="-56.5" y="5055" width="123" height="50" as="geometry" />
        </mxCell>
        <mxCell id="0iMLNUh1rzV7FVRTZrC5-32" value="&lt;div style=&quot;&quot;&gt;&lt;span style=&quot;font-size: 16px;&quot;&gt;萤石云&lt;/span&gt;&lt;/div&gt;" style="text;html=1;align=center;verticalAlign=middle;resizable=0;points=[];autosize=1;strokeColor=none;fillColor=none;" parent="1" vertex="1">
          <mxGeometry x="-125" y="5040" width="70" height="30" as="geometry" />
        </mxCell>
        <mxCell id="0iMLNUh1rzV7FVRTZrC5-34" style="edgeStyle=orthogonalEdgeStyle;rounded=0;orthogonalLoop=1;jettySize=auto;html=1;exitX=0.5;exitY=1;exitDx=0;exitDy=0;" parent="1" source="0iMLNUh1rzV7FVRTZrC5-33" target="0iMLNUh1rzV7FVRTZrC5-33" edge="1">
          <mxGeometry relative="1" as="geometry" />
        </mxCell>
        <mxCell id="0iMLNUh1rzV7FVRTZrC5-43" style="edgeStyle=orthogonalEdgeStyle;rounded=0;orthogonalLoop=1;jettySize=auto;html=1;entryX=-0.024;entryY=0.104;entryDx=0;entryDy=0;entryPerimeter=0;" parent="1" source="0iMLNUh1rzV7FVRTZrC5-35" target="0iMLNUh1rzV7FVRTZrC5-39" edge="1">
          <mxGeometry relative="1" as="geometry" />
        </mxCell>
        <mxCell id="0iMLNUh1rzV7FVRTZrC5-35" value="&lt;span style=&quot;font-size: 16px;&quot;&gt;ES7210&lt;br&gt;组1&lt;br&gt;&lt;/span&gt;" style="rounded=1;whiteSpace=wrap;html=1;verticalAlign=middle;" parent="1" vertex="1">
          <mxGeometry x="-367.5" y="3650" width="120" height="80" as="geometry" />
        </mxCell>
        <mxCell id="0iMLNUh1rzV7FVRTZrC5-42" style="edgeStyle=orthogonalEdgeStyle;rounded=0;orthogonalLoop=1;jettySize=auto;html=1;entryX=-0.004;entryY=0.368;entryDx=0;entryDy=0;entryPerimeter=0;" parent="1" source="0iMLNUh1rzV7FVRTZrC5-36" target="0iMLNUh1rzV7FVRTZrC5-39" edge="1">
          <mxGeometry relative="1" as="geometry" />
        </mxCell>
        <mxCell id="0iMLNUh1rzV7FVRTZrC5-36" value="&lt;span style=&quot;font-size: 16px;&quot;&gt;ES7210&lt;br&gt;组2&lt;br&gt;&lt;/span&gt;" style="rounded=1;whiteSpace=wrap;html=1;verticalAlign=middle;" parent="1" vertex="1">
          <mxGeometry x="-367.5" y="3780" width="120" height="80" as="geometry" />
        </mxCell>
        <mxCell id="0iMLNUh1rzV7FVRTZrC5-44" style="edgeStyle=orthogonalEdgeStyle;rounded=0;orthogonalLoop=1;jettySize=auto;html=1;entryX=0.015;entryY=0.634;entryDx=0;entryDy=0;entryPerimeter=0;" parent="1" source="0iMLNUh1rzV7FVRTZrC5-37" target="0iMLNUh1rzV7FVRTZrC5-39" edge="1">
          <mxGeometry relative="1" as="geometry" />
        </mxCell>
        <mxCell id="0iMLNUh1rzV7FVRTZrC5-37" value="&lt;span style=&quot;font-size: 16px;&quot;&gt;ES7210&lt;br&gt;组3&lt;br&gt;&lt;/span&gt;" style="rounded=1;whiteSpace=wrap;html=1;verticalAlign=middle;" parent="1" vertex="1">
          <mxGeometry x="-367.5" y="3910" width="120" height="80" as="geometry" />
        </mxCell>
        <mxCell id="0iMLNUh1rzV7FVRTZrC5-45" style="edgeStyle=orthogonalEdgeStyle;rounded=0;orthogonalLoop=1;jettySize=auto;html=1;entryX=-0.014;entryY=0.898;entryDx=0;entryDy=0;entryPerimeter=0;" parent="1" source="0iMLNUh1rzV7FVRTZrC5-38" target="0iMLNUh1rzV7FVRTZrC5-39" edge="1">
          <mxGeometry relative="1" as="geometry" />
        </mxCell>
        <mxCell id="0iMLNUh1rzV7FVRTZrC5-38" value="&lt;span style=&quot;font-size: 16px;&quot;&gt;ES7210&lt;br&gt;组4&lt;br&gt;&lt;/span&gt;" style="rounded=1;whiteSpace=wrap;html=1;verticalAlign=middle;" parent="1" vertex="1">
          <mxGeometry x="-367.5" y="4040" width="120" height="80" as="geometry" />
        </mxCell>
        <mxCell id="0iMLNUh1rzV7FVRTZrC5-39" value="&lt;span style=&quot;font-size: 16px;&quot;&gt;RT1176芯片&lt;br&gt;SAI模块&lt;br&gt;&lt;/span&gt;" style="rounded=1;whiteSpace=wrap;html=1;verticalAlign=middle;" parent="1" vertex="1">
          <mxGeometry x="-152.5" y="3640" width="120" height="490" as="geometry" />
        </mxCell>
        <mxCell id="0iMLNUh1rzV7FVRTZrC5-46" value="&lt;font style=&quot;font-size: 15px;&quot;&gt;data1&lt;/font&gt;" style="text;strokeColor=none;align=center;fillColor=none;html=1;verticalAlign=middle;whiteSpace=wrap;rounded=0;" parent="1" vertex="1">
          <mxGeometry x="-232.5" y="3650" width="60" height="30" as="geometry" />
        </mxCell>
        <mxCell id="0iMLNUh1rzV7FVRTZrC5-48" value="&lt;font style=&quot;font-size: 15px;&quot;&gt;data3&lt;/font&gt;" style="text;strokeColor=none;align=center;fillColor=none;html=1;verticalAlign=middle;whiteSpace=wrap;rounded=0;" parent="1" vertex="1">
          <mxGeometry x="-232.5" y="3910" width="60" height="30" as="geometry" />
        </mxCell>
        <mxCell id="0iMLNUh1rzV7FVRTZrC5-49" value="&lt;font style=&quot;font-size: 15px;&quot;&gt;data4&lt;/font&gt;" style="text;strokeColor=none;align=center;fillColor=none;html=1;verticalAlign=middle;whiteSpace=wrap;rounded=0;" parent="1" vertex="1">
          <mxGeometry x="-232.5" y="4040" width="60" height="30" as="geometry" />
        </mxCell>
        <mxCell id="KX8IQm3Gk4nTDHT0a2kx-2" value="&lt;font style=&quot;font-size: 20px;&quot;&gt;RT1176芯片&lt;/font&gt;" style="rounded=1;whiteSpace=wrap;html=1;verticalAlign=top;" parent="1" vertex="1">
          <mxGeometry x="-760" y="6210" width="296.5" height="760" as="geometry" />
        </mxCell>
        <mxCell id="KX8IQm3Gk4nTDHT0a2kx-44" style="edgeStyle=orthogonalEdgeStyle;rounded=0;orthogonalLoop=1;jettySize=auto;html=1;entryX=1.001;entryY=0.264;entryDx=0;entryDy=0;entryPerimeter=0;" parent="1" source="KX8IQm3Gk4nTDHT0a2kx-4" target="KX8IQm3Gk4nTDHT0a2kx-2" edge="1">
          <mxGeometry relative="1" as="geometry" />
        </mxCell>
        <mxCell id="KX8IQm3Gk4nTDHT0a2kx-4" value="&lt;span style=&quot;font-size: 16px;&quot;&gt;Flash&lt;br&gt;&lt;/span&gt;" style="rounded=1;whiteSpace=wrap;html=1;verticalAlign=middle;" parent="1" vertex="1">
          <mxGeometry x="-350" y="6370" width="140" height="80" as="geometry" />
        </mxCell>
        <mxCell id="KX8IQm3Gk4nTDHT0a2kx-40" style="edgeStyle=orthogonalEdgeStyle;rounded=0;orthogonalLoop=1;jettySize=auto;html=1;entryX=1.001;entryY=0.104;entryDx=0;entryDy=0;entryPerimeter=0;" parent="1" source="KX8IQm3Gk4nTDHT0a2kx-5" target="KX8IQm3Gk4nTDHT0a2kx-2" edge="1">
          <mxGeometry relative="1" as="geometry" />
        </mxCell>
        <mxCell id="KX8IQm3Gk4nTDHT0a2kx-5" value="&lt;span style=&quot;font-size: 16px;&quot;&gt;SDRAM&lt;br&gt;&lt;/span&gt;" style="rounded=1;whiteSpace=wrap;html=1;verticalAlign=middle;" parent="1" vertex="1">
          <mxGeometry x="-350" y="6250" width="140" height="80" as="geometry" />
        </mxCell>
        <mxCell id="KX8IQm3Gk4nTDHT0a2kx-8" value="&lt;div style=&quot;&quot;&gt;&lt;span style=&quot;font-size: 16px;&quot;&gt;SEMC接口&lt;/span&gt;&lt;/div&gt;" style="text;html=1;align=center;verticalAlign=middle;resizable=0;points=[];autosize=1;strokeColor=none;fillColor=none;" parent="1" vertex="1">
          <mxGeometry x="-462" y="6250" width="100" height="30" as="geometry" />
        </mxCell>
        <mxCell id="KX8IQm3Gk4nTDHT0a2kx-9" value="&lt;div style=&quot;&quot;&gt;&lt;span style=&quot;font-size: 16px;&quot;&gt;SPI接口&lt;/span&gt;&lt;/div&gt;" style="text;html=1;align=center;verticalAlign=middle;resizable=0;points=[];autosize=1;strokeColor=none;fillColor=none;" parent="1" vertex="1">
          <mxGeometry x="-445" y="6370" width="80" height="30" as="geometry" />
        </mxCell>
        <mxCell id="KX8IQm3Gk4nTDHT0a2kx-45" style="edgeStyle=orthogonalEdgeStyle;rounded=0;orthogonalLoop=1;jettySize=auto;html=1;entryX=1.012;entryY=0.447;entryDx=0;entryDy=0;entryPerimeter=0;" parent="1" source="KX8IQm3Gk4nTDHT0a2kx-11" target="KX8IQm3Gk4nTDHT0a2kx-2" edge="1">
          <mxGeometry relative="1" as="geometry" />
        </mxCell>
        <mxCell id="KX8IQm3Gk4nTDHT0a2kx-11" value="&lt;span style=&quot;font-size: 16px;&quot;&gt;YT8531&lt;br&gt;&lt;/span&gt;" style="rounded=1;whiteSpace=wrap;html=1;verticalAlign=middle;" parent="1" vertex="1">
          <mxGeometry x="-350" y="6510" width="140" height="80" as="geometry" />
        </mxCell>
        <mxCell id="KX8IQm3Gk4nTDHT0a2kx-49" style="edgeStyle=orthogonalEdgeStyle;rounded=0;orthogonalLoop=1;jettySize=auto;html=1;" parent="1" source="KX8IQm3Gk4nTDHT0a2kx-13" edge="1">
          <mxGeometry relative="1" as="geometry">
            <mxPoint x="-460" y="6680" as="targetPoint" />
          </mxGeometry>
        </mxCell>
        <mxCell id="KX8IQm3Gk4nTDHT0a2kx-13" value="&lt;span style=&quot;font-size: 16px;&quot;&gt;ES7210&lt;br&gt;&lt;/span&gt;" style="rounded=1;whiteSpace=wrap;html=1;verticalAlign=middle;" parent="1" vertex="1">
          <mxGeometry x="-350" y="6640" width="140" height="80" as="geometry" />
        </mxCell>
        <mxCell id="KX8IQm3Gk4nTDHT0a2kx-14" value="&lt;div style=&quot;&quot;&gt;&lt;span style=&quot;font-size: 16px;&quot;&gt;千兆网络接口&lt;/span&gt;&lt;/div&gt;" style="text;html=1;align=center;verticalAlign=middle;resizable=0;points=[];autosize=1;strokeColor=none;fillColor=none;" parent="1" vertex="1">
          <mxGeometry x="-470" y="6510" width="120" height="30" as="geometry" />
        </mxCell>
        <mxCell id="KX8IQm3Gk4nTDHT0a2kx-16" value="&lt;div style=&quot;&quot;&gt;&lt;span style=&quot;font-size: 16px;&quot;&gt;I2S接口&lt;/span&gt;&lt;/div&gt;" style="text;html=1;align=center;verticalAlign=middle;resizable=0;points=[];autosize=1;strokeColor=none;fillColor=none;" parent="1" vertex="1">
          <mxGeometry x="-447.5" y="6650" width="80" height="30" as="geometry" />
        </mxCell>
        <mxCell id="KX8IQm3Gk4nTDHT0a2kx-17" value="&lt;div style=&quot;&quot;&gt;&lt;span style=&quot;font-size: 16px;&quot;&gt;I2C接口&lt;/span&gt;&lt;/div&gt;" style="text;html=1;align=center;verticalAlign=middle;resizable=0;points=[];autosize=1;strokeColor=none;fillColor=none;" parent="1" vertex="1">
          <mxGeometry x="-450" y="6710" width="80" height="30" as="geometry" />
        </mxCell>
        <mxCell id="KX8IQm3Gk4nTDHT0a2kx-22" value="&lt;span style=&quot;font-size: 16px;&quot;&gt;LWIP协议栈&lt;br&gt;初始化&lt;br&gt;&lt;/span&gt;" style="rounded=1;whiteSpace=wrap;html=1;verticalAlign=middle;" parent="1" vertex="1">
          <mxGeometry x="-752.63" y="6820" width="281.75" height="50" as="geometry" />
        </mxCell>
        <mxCell id="KX8IQm3Gk4nTDHT0a2kx-25" value="&lt;span style=&quot;font-size: 16px;&quot;&gt;FreeRTOS操作系统&lt;br&gt;&lt;/span&gt;" style="rounded=1;whiteSpace=wrap;html=1;verticalAlign=middle;" parent="1" vertex="1">
          <mxGeometry x="-752.63" y="6890" width="281.75" height="50" as="geometry" />
        </mxCell>
        <mxCell id="KX8IQm3Gk4nTDHT0a2kx-26" value="&lt;span style=&quot;font-size: 16px;&quot;&gt;DMA中断&amp;nbsp; 以太网中断&lt;br&gt;&lt;/span&gt;" style="rounded=1;whiteSpace=wrap;html=1;verticalAlign=middle;" parent="1" vertex="1">
          <mxGeometry x="-752.62" y="6690" width="281.75" height="50" as="geometry" />
        </mxCell>
        <mxCell id="KX8IQm3Gk4nTDHT0a2kx-28" value="&lt;span style=&quot;font-size: 16px;&quot;&gt;SAI模块&amp;nbsp; ENET1G模块&lt;br&gt;&lt;/span&gt;" style="rounded=1;whiteSpace=wrap;html=1;verticalAlign=middle;" parent="1" vertex="1">
          <mxGeometry x="-752.62" y="6755" width="281.75" height="50" as="geometry" />
        </mxCell>
        <mxCell id="KX8IQm3Gk4nTDHT0a2kx-30" value="&lt;span style=&quot;font-size: 16px;&quot;&gt;App应用程序&lt;br&gt;&lt;/span&gt;" style="rounded=1;whiteSpace=wrap;html=1;verticalAlign=top;" parent="1" vertex="1">
          <mxGeometry x="-755.88" y="6270" width="281.75" height="410" as="geometry" />
        </mxCell>
        <mxCell id="KX8IQm3Gk4nTDHT0a2kx-51" style="edgeStyle=orthogonalEdgeStyle;rounded=0;orthogonalLoop=1;jettySize=auto;html=1;entryX=0.5;entryY=0;entryDx=0;entryDy=0;" parent="1" source="KX8IQm3Gk4nTDHT0a2kx-31" target="KX8IQm3Gk4nTDHT0a2kx-33" edge="1">
          <mxGeometry relative="1" as="geometry" />
        </mxCell>
        <mxCell id="KX8IQm3Gk4nTDHT0a2kx-31" value="&lt;span style=&quot;font-size: 16px;&quot;&gt;SAI中断&lt;br&gt;处理&lt;br&gt;&lt;/span&gt;" style="rounded=1;whiteSpace=wrap;html=1;verticalAlign=middle;" parent="1" vertex="1">
          <mxGeometry x="-747" y="6410" width="107" height="60" as="geometry" />
        </mxCell>
        <mxCell id="KX8IQm3Gk4nTDHT0a2kx-52" style="edgeStyle=orthogonalEdgeStyle;rounded=0;orthogonalLoop=1;jettySize=auto;html=1;entryX=0.5;entryY=0;entryDx=0;entryDy=0;" parent="1" source="KX8IQm3Gk4nTDHT0a2kx-33" target="KX8IQm3Gk4nTDHT0a2kx-35" edge="1">
          <mxGeometry relative="1" as="geometry" />
        </mxCell>
        <mxCell id="KX8IQm3Gk4nTDHT0a2kx-33" value="&lt;span style=&quot;font-size: 16px;&quot;&gt;环形缓冲区&lt;br&gt;&lt;/span&gt;" style="rounded=1;whiteSpace=wrap;html=1;verticalAlign=middle;" parent="1" vertex="1">
          <mxGeometry x="-747" y="6495" width="107" height="60" as="geometry" />
        </mxCell>
        <mxCell id="KX8IQm3Gk4nTDHT0a2kx-54" style="edgeStyle=orthogonalEdgeStyle;rounded=0;orthogonalLoop=1;jettySize=auto;html=1;entryX=0.5;entryY=0;entryDx=0;entryDy=0;" parent="1" source="KX8IQm3Gk4nTDHT0a2kx-34" target="KX8IQm3Gk4nTDHT0a2kx-42" edge="1">
          <mxGeometry relative="1" as="geometry" />
        </mxCell>
        <mxCell id="KX8IQm3Gk4nTDHT0a2kx-34" value="&lt;span style=&quot;font-size: 16px;&quot;&gt;阻塞等待队列消息&lt;br&gt;&lt;/span&gt;" style="rounded=1;whiteSpace=wrap;html=1;verticalAlign=middle;" parent="1" vertex="1">
          <mxGeometry x="-600" y="6410" width="107" height="60" as="geometry" />
        </mxCell>
        <mxCell id="KX8IQm3Gk4nTDHT0a2kx-35" value="&lt;span style=&quot;font-size: 16px;&quot;&gt;发送队列消息&lt;br&gt;&lt;/span&gt;" style="rounded=1;whiteSpace=wrap;html=1;verticalAlign=middle;" parent="1" vertex="1">
          <mxGeometry x="-747" y="6580" width="107" height="60" as="geometry" />
        </mxCell>
        <mxCell id="KX8IQm3Gk4nTDHT0a2kx-50" style="edgeStyle=orthogonalEdgeStyle;rounded=0;orthogonalLoop=1;jettySize=auto;html=1;entryX=0.5;entryY=0;entryDx=0;entryDy=0;" parent="1" source="KX8IQm3Gk4nTDHT0a2kx-37" target="KX8IQm3Gk4nTDHT0a2kx-31" edge="1">
          <mxGeometry relative="1" as="geometry" />
        </mxCell>
        <mxCell id="KX8IQm3Gk4nTDHT0a2kx-37" value="&lt;span style=&quot;font-size: 16px;&quot;&gt;中断&lt;br&gt;处理函数&lt;br&gt;&lt;/span&gt;" style="rounded=1;whiteSpace=wrap;html=1;verticalAlign=middle;" parent="1" vertex="1">
          <mxGeometry x="-747" y="6320" width="107" height="60" as="geometry" />
        </mxCell>
        <mxCell id="KX8IQm3Gk4nTDHT0a2kx-53" style="edgeStyle=orthogonalEdgeStyle;rounded=0;orthogonalLoop=1;jettySize=auto;html=1;entryX=0.5;entryY=0;entryDx=0;entryDy=0;" parent="1" source="KX8IQm3Gk4nTDHT0a2kx-39" target="KX8IQm3Gk4nTDHT0a2kx-34" edge="1">
          <mxGeometry relative="1" as="geometry" />
        </mxCell>
        <mxCell id="KX8IQm3Gk4nTDHT0a2kx-39" value="&lt;span style=&quot;font-size: 16px;&quot;&gt;录音线程&lt;br&gt;&lt;/span&gt;" style="rounded=1;whiteSpace=wrap;html=1;verticalAlign=middle;" parent="1" vertex="1">
          <mxGeometry x="-600" y="6320" width="107" height="60" as="geometry" />
        </mxCell>
        <mxCell id="KX8IQm3Gk4nTDHT0a2kx-55" style="edgeStyle=orthogonalEdgeStyle;rounded=0;orthogonalLoop=1;jettySize=auto;html=1;entryX=0.5;entryY=0;entryDx=0;entryDy=0;" parent="1" source="KX8IQm3Gk4nTDHT0a2kx-42" target="KX8IQm3Gk4nTDHT0a2kx-43" edge="1">
          <mxGeometry relative="1" as="geometry" />
        </mxCell>
        <mxCell id="KX8IQm3Gk4nTDHT0a2kx-42" value="&lt;span style=&quot;font-size: 16px;&quot;&gt;环形缓冲区&lt;br&gt;&lt;/span&gt;" style="rounded=1;whiteSpace=wrap;html=1;verticalAlign=middle;" parent="1" vertex="1">
          <mxGeometry x="-600" y="6495" width="107" height="60" as="geometry" />
        </mxCell>
        <mxCell id="KX8IQm3Gk4nTDHT0a2kx-43" value="&lt;span style=&quot;font-size: 16px;&quot;&gt;发送音频数据&lt;br&gt;&lt;/span&gt;" style="rounded=1;whiteSpace=wrap;html=1;verticalAlign=middle;" parent="1" vertex="1">
          <mxGeometry x="-600" y="6580" width="107" height="60" as="geometry" />
        </mxCell>
        <mxCell id="KX8IQm3Gk4nTDHT0a2kx-48" value="" style="endArrow=classic;html=1;rounded=0;entryX=0;entryY=0.75;entryDx=0;entryDy=0;" parent="1" target="KX8IQm3Gk4nTDHT0a2kx-13" edge="1">
          <mxGeometry width="50" height="50" relative="1" as="geometry">
            <mxPoint x="-460" y="6700" as="sourcePoint" />
            <mxPoint x="-392" y="6800" as="targetPoint" />
          </mxGeometry>
        </mxCell>
        <mxCell id="yaReOpi6U4XdB_F5NSkl-23" style="edgeStyle=orthogonalEdgeStyle;rounded=0;orthogonalLoop=1;jettySize=auto;html=1;entryX=0;entryY=0.5;entryDx=0;entryDy=0;" parent="1" source="yaReOpi6U4XdB_F5NSkl-3" target="yaReOpi6U4XdB_F5NSkl-4" edge="1">
          <mxGeometry relative="1" as="geometry" />
        </mxCell>
        <mxCell id="yaReOpi6U4XdB_F5NSkl-3" value="&lt;span style=&quot;font-size: 16px;&quot;&gt;音频采集线程&lt;br&gt;&lt;/span&gt;" style="rounded=1;whiteSpace=wrap;html=1;verticalAlign=top;" parent="1" vertex="1">
          <mxGeometry x="46" y="5965" width="175" height="1055" as="geometry" />
        </mxCell>
        <mxCell id="yaReOpi6U4XdB_F5NSkl-11" style="edgeStyle=orthogonalEdgeStyle;rounded=0;orthogonalLoop=1;jettySize=auto;html=1;entryX=0.5;entryY=0;entryDx=0;entryDy=0;" parent="1" source="yaReOpi6U4XdB_F5NSkl-2" target="yaReOpi6U4XdB_F5NSkl-10" edge="1">
          <mxGeometry relative="1" as="geometry" />
        </mxCell>
        <mxCell id="yaReOpi6U4XdB_F5NSkl-2" value="&lt;span style=&quot;font-size: 16px;&quot;&gt;创建udp文件描述符&lt;br&gt;&lt;/span&gt;" style="rounded=1;whiteSpace=wrap;html=1;verticalAlign=middle;" parent="1" vertex="1">
          <mxGeometry x="80" y="6020" width="107" height="60" as="geometry" />
        </mxCell>
        <mxCell id="yaReOpi6U4XdB_F5NSkl-53" style="edgeStyle=orthogonalEdgeStyle;rounded=0;orthogonalLoop=1;jettySize=auto;html=1;entryX=0;entryY=0.5;entryDx=0;entryDy=0;" parent="1" source="yaReOpi6U4XdB_F5NSkl-4" target="yaReOpi6U4XdB_F5NSkl-40" edge="1">
          <mxGeometry relative="1" as="geometry" />
        </mxCell>
        <mxCell id="yaReOpi6U4XdB_F5NSkl-4" value="&lt;span style=&quot;font-size: 16px;&quot;&gt;协议解析线程&lt;br&gt;&lt;/span&gt;" style="rounded=1;whiteSpace=wrap;html=1;verticalAlign=top;" parent="1" vertex="1">
          <mxGeometry x="251" y="5965" width="175" height="1055" as="geometry" />
        </mxCell>
        <mxCell id="yaReOpi6U4XdB_F5NSkl-26" style="edgeStyle=orthogonalEdgeStyle;rounded=0;orthogonalLoop=1;jettySize=auto;html=1;entryX=0.5;entryY=0;entryDx=0;entryDy=0;" parent="1" source="yaReOpi6U4XdB_F5NSkl-5" edge="1">
          <mxGeometry relative="1" as="geometry">
            <mxPoint x="338.5" y="6120" as="targetPoint" />
          </mxGeometry>
        </mxCell>
        <mxCell id="yaReOpi6U4XdB_F5NSkl-5" value="&lt;span style=&quot;font-size: 16px;&quot;&gt;协议解析&lt;br&gt;回调函数&lt;br&gt;&lt;/span&gt;" style="rounded=1;whiteSpace=wrap;html=1;verticalAlign=middle;" parent="1" vertex="1">
          <mxGeometry x="285" y="6020" width="107" height="60" as="geometry" />
        </mxCell>
        <mxCell id="yaReOpi6U4XdB_F5NSkl-17" style="edgeStyle=orthogonalEdgeStyle;rounded=0;orthogonalLoop=1;jettySize=auto;html=1;entryX=0.5;entryY=0;entryDx=0;entryDy=0;" parent="1" source="yaReOpi6U4XdB_F5NSkl-10" target="yaReOpi6U4XdB_F5NSkl-12" edge="1">
          <mxGeometry relative="1" as="geometry" />
        </mxCell>
        <mxCell id="yaReOpi6U4XdB_F5NSkl-10" value="&lt;span style=&quot;font-size: 16px;&quot;&gt;select&lt;br&gt;阻塞等待&lt;br&gt;&lt;/span&gt;" style="rounded=1;whiteSpace=wrap;html=1;verticalAlign=middle;" parent="1" vertex="1">
          <mxGeometry x="80" y="6120" width="107" height="60" as="geometry" />
        </mxCell>
        <mxCell id="yaReOpi6U4XdB_F5NSkl-16" style="edgeStyle=orthogonalEdgeStyle;rounded=0;orthogonalLoop=1;jettySize=auto;html=1;entryX=0.5;entryY=0;entryDx=0;entryDy=0;" parent="1" source="yaReOpi6U4XdB_F5NSkl-12" target="yaReOpi6U4XdB_F5NSkl-13" edge="1">
          <mxGeometry relative="1" as="geometry" />
        </mxCell>
        <mxCell id="yaReOpi6U4XdB_F5NSkl-12" value="&lt;span style=&quot;font-size: 16px;&quot;&gt;recvfrom&lt;br&gt;接收数据&lt;br&gt;&lt;/span&gt;" style="rounded=1;whiteSpace=wrap;html=1;verticalAlign=middle;" parent="1" vertex="1">
          <mxGeometry x="80" y="6210" width="107" height="60" as="geometry" />
        </mxCell>
        <mxCell id="yaReOpi6U4XdB_F5NSkl-13" value="&lt;span style=&quot;font-size: 16px;&quot;&gt;协议解析&lt;br&gt;回调函数接口&lt;br&gt;&lt;/span&gt;" style="rounded=1;whiteSpace=wrap;html=1;verticalAlign=middle;" parent="1" vertex="1">
          <mxGeometry x="80" y="6300" width="107" height="60" as="geometry" />
        </mxCell>
        <mxCell id="yaReOpi6U4XdB_F5NSkl-27" style="edgeStyle=orthogonalEdgeStyle;rounded=0;orthogonalLoop=1;jettySize=auto;html=1;entryX=0.5;entryY=0;entryDx=0;entryDy=0;" parent="1" edge="1">
          <mxGeometry relative="1" as="geometry">
            <mxPoint x="338.4814814814813" y="6180" as="sourcePoint" />
            <mxPoint x="338.5" y="6210" as="targetPoint" />
          </mxGeometry>
        </mxCell>
        <mxCell id="yaReOpi6U4XdB_F5NSkl-30" style="edgeStyle=orthogonalEdgeStyle;rounded=0;orthogonalLoop=1;jettySize=auto;html=1;entryX=0.5;entryY=0;entryDx=0;entryDy=0;" parent="1" edge="1">
          <mxGeometry relative="1" as="geometry">
            <mxPoint x="338" y="6270" as="sourcePoint" />
            <mxPoint x="338.5" y="6300" as="targetPoint" />
          </mxGeometry>
        </mxCell>
        <mxCell id="yaReOpi6U4XdB_F5NSkl-33" style="edgeStyle=orthogonalEdgeStyle;rounded=0;orthogonalLoop=1;jettySize=auto;html=1;entryX=0.5;entryY=0;entryDx=0;entryDy=0;" parent="1" target="yaReOpi6U4XdB_F5NSkl-31" edge="1">
          <mxGeometry relative="1" as="geometry">
            <mxPoint x="338.4814814814813" y="6360" as="sourcePoint" />
          </mxGeometry>
        </mxCell>
        <mxCell id="yaReOpi6U4XdB_F5NSkl-65" style="edgeStyle=orthogonalEdgeStyle;rounded=0;orthogonalLoop=1;jettySize=auto;html=1;entryX=0;entryY=0.5;entryDx=0;entryDy=0;" parent="1" source="yaReOpi6U4XdB_F5NSkl-40" target="yaReOpi6U4XdB_F5NSkl-64" edge="1">
          <mxGeometry relative="1" as="geometry" />
        </mxCell>
        <mxCell id="yaReOpi6U4XdB_F5NSkl-40" value="&lt;span style=&quot;font-size: 16px;&quot;&gt;算法处理线程&lt;br&gt;&lt;/span&gt;" style="rounded=1;whiteSpace=wrap;html=1;verticalAlign=top;" parent="1" vertex="1">
          <mxGeometry x="460" y="5965" width="175" height="1055" as="geometry" />
        </mxCell>
        <mxCell id="yaReOpi6U4XdB_F5NSkl-31" value="&lt;span style=&quot;font-size: 16px;&quot;&gt;模块类别对应&lt;br&gt;的回调函数&lt;br&gt;&lt;/span&gt;" style="rounded=1;whiteSpace=wrap;html=1;verticalAlign=top;" parent="1" vertex="1">
          <mxGeometry x="253.5" y="6390" width="170" height="230" as="geometry" />
        </mxCell>
        <mxCell id="yaReOpi6U4XdB_F5NSkl-34" value="&lt;span style=&quot;font-size: 16px;&quot;&gt;申请内存&lt;br&gt;保存数据包&lt;br&gt;&lt;/span&gt;" style="rounded=1;whiteSpace=wrap;html=1;verticalAlign=middle;" parent="1" vertex="1">
          <mxGeometry x="283.5" y="6445" width="107" height="60" as="geometry" />
        </mxCell>
        <mxCell id="yaReOpi6U4XdB_F5NSkl-35" value="&lt;span style=&quot;font-size: 16px;&quot;&gt;放入队列&lt;br&gt;发送信号量&lt;br&gt;&lt;/span&gt;" style="rounded=1;whiteSpace=wrap;html=1;verticalAlign=middle;" parent="1" vertex="1">
          <mxGeometry x="283.5" y="6540" width="107" height="60" as="geometry" />
        </mxCell>
        <mxCell id="yaReOpi6U4XdB_F5NSkl-56" style="edgeStyle=orthogonalEdgeStyle;rounded=0;orthogonalLoop=1;jettySize=auto;html=1;" parent="1" source="yaReOpi6U4XdB_F5NSkl-43" target="yaReOpi6U4XdB_F5NSkl-44" edge="1">
          <mxGeometry relative="1" as="geometry" />
        </mxCell>
        <mxCell id="yaReOpi6U4XdB_F5NSkl-43" value="&lt;span style=&quot;font-size: 16px;&quot;&gt;阻塞等待&lt;br&gt;信号量&lt;br&gt;&lt;/span&gt;" style="rounded=1;whiteSpace=wrap;html=1;verticalAlign=middle;" parent="1" vertex="1">
          <mxGeometry x="494" y="6020" width="107" height="60" as="geometry" />
        </mxCell>
        <mxCell id="yaReOpi6U4XdB_F5NSkl-57" style="edgeStyle=orthogonalEdgeStyle;rounded=0;orthogonalLoop=1;jettySize=auto;html=1;" parent="1" source="yaReOpi6U4XdB_F5NSkl-44" target="yaReOpi6U4XdB_F5NSkl-45" edge="1">
          <mxGeometry relative="1" as="geometry" />
        </mxCell>
        <mxCell id="yaReOpi6U4XdB_F5NSkl-44" value="&lt;span style=&quot;font-size: 16px;&quot;&gt;从队列取数据&lt;br&gt;&lt;/span&gt;" style="rounded=1;whiteSpace=wrap;html=1;verticalAlign=middle;" parent="1" vertex="1">
          <mxGeometry x="494" y="6120" width="107" height="60" as="geometry" />
        </mxCell>
        <mxCell id="yaReOpi6U4XdB_F5NSkl-58" style="edgeStyle=orthogonalEdgeStyle;rounded=0;orthogonalLoop=1;jettySize=auto;html=1;" parent="1" source="yaReOpi6U4XdB_F5NSkl-45" target="yaReOpi6U4XdB_F5NSkl-47" edge="1">
          <mxGeometry relative="1" as="geometry" />
        </mxCell>
        <mxCell id="yaReOpi6U4XdB_F5NSkl-45" value="&lt;span style=&quot;font-size: 16px;&quot;&gt;声源定位&lt;br&gt;算法处理&lt;br&gt;&lt;/span&gt;" style="rounded=1;whiteSpace=wrap;html=1;verticalAlign=middle;" parent="1" vertex="1">
          <mxGeometry x="494" y="6210" width="107" height="60" as="geometry" />
        </mxCell>
        <mxCell id="yaReOpi6U4XdB_F5NSkl-59" style="edgeStyle=orthogonalEdgeStyle;rounded=0;orthogonalLoop=1;jettySize=auto;html=1;" parent="1" source="yaReOpi6U4XdB_F5NSkl-47" target="yaReOpi6U4XdB_F5NSkl-48" edge="1">
          <mxGeometry relative="1" as="geometry" />
        </mxCell>
        <mxCell id="yaReOpi6U4XdB_F5NSkl-47" value="&lt;span style=&quot;font-size: 16px;&quot;&gt;声源定位结果&lt;br&gt;png图像&lt;br&gt;&lt;/span&gt;" style="rounded=1;whiteSpace=wrap;html=1;verticalAlign=middle;" parent="1" vertex="1">
          <mxGeometry x="494" y="6300" width="107" height="60" as="geometry" />
        </mxCell>
        <mxCell id="yaReOpi6U4XdB_F5NSkl-60" style="edgeStyle=orthogonalEdgeStyle;rounded=0;orthogonalLoop=1;jettySize=auto;html=1;entryX=0.5;entryY=0;entryDx=0;entryDy=0;" parent="1" source="yaReOpi6U4XdB_F5NSkl-48" target="yaReOpi6U4XdB_F5NSkl-49" edge="1">
          <mxGeometry relative="1" as="geometry" />
        </mxCell>
        <mxCell id="yaReOpi6U4XdB_F5NSkl-48" value="&lt;span style=&quot;font-size: 16px;&quot;&gt;Lp声压级计算&lt;br&gt;&lt;/span&gt;" style="rounded=1;whiteSpace=wrap;html=1;verticalAlign=middle;" parent="1" vertex="1">
          <mxGeometry x="494" y="6390" width="107" height="60" as="geometry" />
        </mxCell>
        <mxCell id="yaReOpi6U4XdB_F5NSkl-61" style="edgeStyle=orthogonalEdgeStyle;rounded=0;orthogonalLoop=1;jettySize=auto;html=1;entryX=0.5;entryY=0;entryDx=0;entryDy=0;" parent="1" source="yaReOpi6U4XdB_F5NSkl-49" target="yaReOpi6U4XdB_F5NSkl-50" edge="1">
          <mxGeometry relative="1" as="geometry" />
        </mxCell>
        <mxCell id="yaReOpi6U4XdB_F5NSkl-49" value="&lt;span style=&quot;font-size: 16px;&quot;&gt;噪声超标事件&lt;br&gt;判断&lt;br&gt;&lt;/span&gt;" style="rounded=1;whiteSpace=wrap;html=1;verticalAlign=middle;" parent="1" vertex="1">
          <mxGeometry x="494" y="6475" width="107" height="60" as="geometry" />
        </mxCell>
        <mxCell id="yaReOpi6U4XdB_F5NSkl-62" style="edgeStyle=orthogonalEdgeStyle;rounded=0;orthogonalLoop=1;jettySize=auto;html=1;entryX=0.5;entryY=0;entryDx=0;entryDy=0;" parent="1" source="yaReOpi6U4XdB_F5NSkl-50" target="yaReOpi6U4XdB_F5NSkl-54" edge="1">
          <mxGeometry relative="1" as="geometry" />
        </mxCell>
        <mxCell id="yaReOpi6U4XdB_F5NSkl-50" value="&lt;span style=&quot;font-size: 16px;&quot;&gt;云平台交互线程&lt;br&gt;的回调函数&lt;br&gt;&lt;/span&gt;" style="rounded=1;whiteSpace=wrap;html=1;verticalAlign=top;" parent="1" vertex="1">
          <mxGeometry x="462.5" y="6560" width="170" height="230" as="geometry" />
        </mxCell>
        <mxCell id="yaReOpi6U4XdB_F5NSkl-51" value="&lt;span style=&quot;font-size: 16px;&quot;&gt;申请内存&lt;br&gt;保存数据包&lt;br&gt;&lt;/span&gt;" style="rounded=1;whiteSpace=wrap;html=1;verticalAlign=middle;" parent="1" vertex="1">
          <mxGeometry x="494" y="6620" width="107" height="60" as="geometry" />
        </mxCell>
        <mxCell id="yaReOpi6U4XdB_F5NSkl-52" value="&lt;span style=&quot;font-size: 16px;&quot;&gt;放入队列&lt;br&gt;发送信号量&lt;br&gt;&lt;/span&gt;" style="rounded=1;whiteSpace=wrap;html=1;verticalAlign=middle;" parent="1" vertex="1">
          <mxGeometry x="494" y="6700" width="107" height="60" as="geometry" />
        </mxCell>
        <mxCell id="yaReOpi6U4XdB_F5NSkl-63" style="edgeStyle=orthogonalEdgeStyle;rounded=0;orthogonalLoop=1;jettySize=auto;html=1;entryX=0.5;entryY=0;entryDx=0;entryDy=0;" parent="1" source="yaReOpi6U4XdB_F5NSkl-54" target="yaReOpi6U4XdB_F5NSkl-55" edge="1">
          <mxGeometry relative="1" as="geometry" />
        </mxCell>
        <mxCell id="yaReOpi6U4XdB_F5NSkl-54" value="&lt;span style=&quot;font-size: 16px;&quot;&gt;释放协议解析线程内存&lt;br&gt;&lt;/span&gt;" style="rounded=1;whiteSpace=wrap;html=1;verticalAlign=middle;" parent="1" vertex="1">
          <mxGeometry x="494" y="6815" width="107" height="60" as="geometry" />
        </mxCell>
        <mxCell id="yaReOpi6U4XdB_F5NSkl-55" value="&lt;span style=&quot;font-size: 16px;&quot;&gt;释放音频采集线程内存&lt;br&gt;&lt;/span&gt;" style="rounded=1;whiteSpace=wrap;html=1;verticalAlign=middle;" parent="1" vertex="1">
          <mxGeometry x="494" y="6910" width="107" height="60" as="geometry" />
        </mxCell>
        <mxCell id="yaReOpi6U4XdB_F5NSkl-64" value="&lt;span style=&quot;font-size: 16px;&quot;&gt;云平台交互线程&lt;br&gt;&lt;/span&gt;" style="rounded=1;whiteSpace=wrap;html=1;verticalAlign=top;" parent="1" vertex="1">
          <mxGeometry x="670" y="5965" width="175" height="1055" as="geometry" />
        </mxCell>
        <mxCell id="yaReOpi6U4XdB_F5NSkl-70" style="edgeStyle=orthogonalEdgeStyle;rounded=0;orthogonalLoop=1;jettySize=auto;html=1;entryX=0.5;entryY=0;entryDx=0;entryDy=0;" parent="1" source="yaReOpi6U4XdB_F5NSkl-66" target="yaReOpi6U4XdB_F5NSkl-69" edge="1">
          <mxGeometry relative="1" as="geometry" />
        </mxCell>
        <mxCell id="yaReOpi6U4XdB_F5NSkl-66" value="&lt;span style=&quot;font-size: 16px;&quot;&gt;阻塞等待&lt;br&gt;信号量&lt;br&gt;&lt;/span&gt;" style="rounded=1;whiteSpace=wrap;html=1;verticalAlign=middle;" parent="1" vertex="1">
          <mxGeometry x="704" y="6210" width="107" height="60" as="geometry" />
        </mxCell>
        <mxCell id="yaReOpi6U4XdB_F5NSkl-79" style="edgeStyle=orthogonalEdgeStyle;rounded=0;orthogonalLoop=1;jettySize=auto;html=1;" parent="1" source="yaReOpi6U4XdB_F5NSkl-68" target="yaReOpi6U4XdB_F5NSkl-72" edge="1">
          <mxGeometry relative="1" as="geometry" />
        </mxCell>
        <mxCell id="yaReOpi6U4XdB_F5NSkl-68" value="&lt;span style=&quot;font-size: 16px;&quot;&gt;png图像转base64格式&lt;br&gt;&lt;/span&gt;" style="rounded=1;whiteSpace=wrap;html=1;verticalAlign=middle;" parent="1" vertex="1">
          <mxGeometry x="704" y="6400" width="107" height="60" as="geometry" />
        </mxCell>
        <mxCell id="yaReOpi6U4XdB_F5NSkl-71" style="edgeStyle=orthogonalEdgeStyle;rounded=0;orthogonalLoop=1;jettySize=auto;html=1;entryX=0.5;entryY=0;entryDx=0;entryDy=0;" parent="1" source="yaReOpi6U4XdB_F5NSkl-69" target="yaReOpi6U4XdB_F5NSkl-68" edge="1">
          <mxGeometry relative="1" as="geometry" />
        </mxCell>
        <mxCell id="yaReOpi6U4XdB_F5NSkl-69" value="&lt;span style=&quot;font-size: 16px;&quot;&gt;从队列取数据&lt;br&gt;&lt;/span&gt;" style="rounded=1;whiteSpace=wrap;html=1;verticalAlign=middle;" parent="1" vertex="1">
          <mxGeometry x="704" y="6310" width="107" height="60" as="geometry" />
        </mxCell>
        <mxCell id="yaReOpi6U4XdB_F5NSkl-81" style="edgeStyle=orthogonalEdgeStyle;rounded=0;orthogonalLoop=1;jettySize=auto;html=1;entryX=0.5;entryY=0;entryDx=0;entryDy=0;" parent="1" source="yaReOpi6U4XdB_F5NSkl-72" target="yaReOpi6U4XdB_F5NSkl-80" edge="1">
          <mxGeometry relative="1" as="geometry" />
        </mxCell>
        <mxCell id="yaReOpi6U4XdB_F5NSkl-72" value="&lt;span style=&quot;font-size: 16px;&quot;&gt;封装协议格式&lt;br&gt;&lt;/span&gt;" style="rounded=1;whiteSpace=wrap;html=1;verticalAlign=middle;" parent="1" vertex="1">
          <mxGeometry x="704" y="6490" width="107" height="60" as="geometry" />
        </mxCell>
        <mxCell id="yaReOpi6U4XdB_F5NSkl-77" style="edgeStyle=orthogonalEdgeStyle;rounded=0;orthogonalLoop=1;jettySize=auto;html=1;entryX=0.5;entryY=0;entryDx=0;entryDy=0;" parent="1" source="yaReOpi6U4XdB_F5NSkl-75" target="yaReOpi6U4XdB_F5NSkl-76" edge="1">
          <mxGeometry relative="1" as="geometry" />
        </mxCell>
        <mxCell id="yaReOpi6U4XdB_F5NSkl-75" value="&lt;span style=&quot;font-size: 16px;&quot;&gt;mqtt初始化&lt;br&gt;&lt;/span&gt;" style="rounded=1;whiteSpace=wrap;html=1;verticalAlign=middle;" parent="1" vertex="1">
          <mxGeometry x="704" y="6020" width="107" height="60" as="geometry" />
        </mxCell>
        <mxCell id="yaReOpi6U4XdB_F5NSkl-78" style="edgeStyle=orthogonalEdgeStyle;rounded=0;orthogonalLoop=1;jettySize=auto;html=1;entryX=0.5;entryY=0;entryDx=0;entryDy=0;" parent="1" source="yaReOpi6U4XdB_F5NSkl-76" target="yaReOpi6U4XdB_F5NSkl-66" edge="1">
          <mxGeometry relative="1" as="geometry" />
        </mxCell>
        <mxCell id="yaReOpi6U4XdB_F5NSkl-76" value="&lt;span style=&quot;font-size: 16px;&quot;&gt;订阅主题&lt;br&gt;&lt;/span&gt;" style="rounded=1;whiteSpace=wrap;html=1;verticalAlign=middle;" parent="1" vertex="1">
          <mxGeometry x="704" y="6120" width="107" height="60" as="geometry" />
        </mxCell>
        <mxCell id="yaReOpi6U4XdB_F5NSkl-83" style="edgeStyle=orthogonalEdgeStyle;rounded=0;orthogonalLoop=1;jettySize=auto;html=1;entryX=0.5;entryY=0;entryDx=0;entryDy=0;" parent="1" source="yaReOpi6U4XdB_F5NSkl-80" target="yaReOpi6U4XdB_F5NSkl-82" edge="1">
          <mxGeometry relative="1" as="geometry" />
        </mxCell>
        <mxCell id="yaReOpi6U4XdB_F5NSkl-80" value="&lt;span style=&quot;font-size: 16px;&quot;&gt;发布主题&lt;br&gt;&lt;/span&gt;" style="rounded=1;whiteSpace=wrap;html=1;verticalAlign=middle;" parent="1" vertex="1">
          <mxGeometry x="704" y="6580" width="107" height="60" as="geometry" />
        </mxCell>
        <mxCell id="yaReOpi6U4XdB_F5NSkl-85" style="edgeStyle=orthogonalEdgeStyle;rounded=0;orthogonalLoop=1;jettySize=auto;html=1;entryX=0.5;entryY=0;entryDx=0;entryDy=0;" parent="1" source="yaReOpi6U4XdB_F5NSkl-82" target="yaReOpi6U4XdB_F5NSkl-84" edge="1">
          <mxGeometry relative="1" as="geometry" />
        </mxCell>
        <mxCell id="yaReOpi6U4XdB_F5NSkl-82" value="&lt;span style=&quot;font-size: 16px;&quot;&gt;释放算法处理线程内存&lt;br&gt;&lt;/span&gt;" style="rounded=1;whiteSpace=wrap;html=1;verticalAlign=middle;" parent="1" vertex="1">
          <mxGeometry x="704" y="6670" width="107" height="60" as="geometry" />
        </mxCell>
        <mxCell id="yaReOpi6U4XdB_F5NSkl-87" style="edgeStyle=orthogonalEdgeStyle;rounded=0;orthogonalLoop=1;jettySize=auto;html=1;" parent="1" source="yaReOpi6U4XdB_F5NSkl-84" target="yaReOpi6U4XdB_F5NSkl-86" edge="1">
          <mxGeometry relative="1" as="geometry" />
        </mxCell>
        <mxCell id="yaReOpi6U4XdB_F5NSkl-84" value="&lt;span style=&quot;font-size: 16px;&quot;&gt;超时检测&lt;br&gt;&lt;/span&gt;" style="rounded=1;whiteSpace=wrap;html=1;verticalAlign=middle;" parent="1" vertex="1">
          <mxGeometry x="704" y="6770" width="107" height="60" as="geometry" />
        </mxCell>
        <mxCell id="yaReOpi6U4XdB_F5NSkl-86" value="&lt;span style=&quot;font-size: 16px;&quot;&gt;断线重连&lt;br&gt;重新订阅&lt;br&gt;主题&lt;br&gt;&lt;/span&gt;" style="rounded=1;whiteSpace=wrap;html=1;verticalAlign=middle;" parent="1" vertex="1">
          <mxGeometry x="704" y="6870" width="107" height="60" as="geometry" />
        </mxCell>
        <mxCell id="yaReOpi6U4XdB_F5NSkl-88" value="&lt;span style=&quot;font-size: 16px;&quot;&gt;申请内存&lt;br&gt;保存数据包&lt;br&gt;&lt;/span&gt;" style="rounded=1;whiteSpace=wrap;html=1;verticalAlign=middle;" parent="1" vertex="1">
          <mxGeometry x="283.5" y="6120" width="107" height="60" as="geometry" />
        </mxCell>
        <mxCell id="yaReOpi6U4XdB_F5NSkl-89" value="&lt;span style=&quot;font-size: 16px;&quot;&gt;协议解析结果&lt;br&gt;数据包&lt;br&gt;模块类别&lt;br&gt;&lt;/span&gt;" style="rounded=1;whiteSpace=wrap;html=1;verticalAlign=middle;" parent="1" vertex="1">
          <mxGeometry x="283.5" y="6300" width="107" height="60" as="geometry" />
        </mxCell>
        <mxCell id="yaReOpi6U4XdB_F5NSkl-90" value="&lt;span style=&quot;font-size: 16px;&quot;&gt;协议解析&lt;br&gt;&lt;/span&gt;" style="rounded=1;whiteSpace=wrap;html=1;verticalAlign=middle;" parent="1" vertex="1">
          <mxGeometry x="283.5" y="6210" width="107" height="60" as="geometry" />
        </mxCell>
        <mxCell id="BzhLNjvLBWkgz3VRTSKQ-103" style="edgeStyle=orthogonalEdgeStyle;rounded=0;orthogonalLoop=1;jettySize=auto;html=1;entryX=0;entryY=0.5;entryDx=0;entryDy=0;" edge="1" parent="1" source="BzhLNjvLBWkgz3VRTSKQ-2" target="BzhLNjvLBWkgz3VRTSKQ-18">
          <mxGeometry relative="1" as="geometry" />
        </mxCell>
        <mxCell id="BzhLNjvLBWkgz3VRTSKQ-2" value="&lt;span style=&quot;font-size: 16px;&quot;&gt;音频采集线程&lt;br&gt;&lt;/span&gt;" style="rounded=1;whiteSpace=wrap;html=1;verticalAlign=top;" vertex="1" parent="1">
          <mxGeometry x="-870" y="8210" width="248" height="1300" as="geometry" />
        </mxCell>
        <mxCell id="BzhLNjvLBWkgz3VRTSKQ-3" style="edgeStyle=orthogonalEdgeStyle;rounded=0;orthogonalLoop=1;jettySize=auto;html=1;entryX=0.5;entryY=0;entryDx=0;entryDy=0;" edge="1" parent="1" source="BzhLNjvLBWkgz3VRTSKQ-4" target="BzhLNjvLBWkgz3VRTSKQ-10">
          <mxGeometry relative="1" as="geometry" />
        </mxCell>
        <mxCell id="BzhLNjvLBWkgz3VRTSKQ-4" value="&lt;span style=&quot;font-size: 16px;&quot;&gt;创建udp文件描述符&lt;br&gt;&lt;/span&gt;" style="rounded=1;whiteSpace=wrap;html=1;verticalAlign=middle;" vertex="1" parent="1">
          <mxGeometry x="-810.5" y="8265" width="148" height="45" as="geometry" />
        </mxCell>
        <mxCell id="BzhLNjvLBWkgz3VRTSKQ-9" style="edgeStyle=orthogonalEdgeStyle;rounded=0;orthogonalLoop=1;jettySize=auto;html=1;entryX=0.5;entryY=0;entryDx=0;entryDy=0;" edge="1" parent="1" source="BzhLNjvLBWkgz3VRTSKQ-10" target="BzhLNjvLBWkgz3VRTSKQ-12">
          <mxGeometry relative="1" as="geometry" />
        </mxCell>
        <mxCell id="BzhLNjvLBWkgz3VRTSKQ-10" value="&lt;span style=&quot;font-size: 16px;&quot;&gt;select阻塞等待&lt;br&gt;&lt;/span&gt;" style="rounded=1;whiteSpace=wrap;html=1;verticalAlign=middle;" vertex="1" parent="1">
          <mxGeometry x="-812.12" y="8340" width="151.25" height="40" as="geometry" />
        </mxCell>
        <mxCell id="BzhLNjvLBWkgz3VRTSKQ-104" style="edgeStyle=orthogonalEdgeStyle;rounded=0;orthogonalLoop=1;jettySize=auto;html=1;exitX=0.5;exitY=1;exitDx=0;exitDy=0;entryX=0.5;entryY=0;entryDx=0;entryDy=0;" edge="1" parent="1" source="BzhLNjvLBWkgz3VRTSKQ-12" target="BzhLNjvLBWkgz3VRTSKQ-70">
          <mxGeometry relative="1" as="geometry" />
        </mxCell>
        <mxCell id="BzhLNjvLBWkgz3VRTSKQ-12" value="&lt;span style=&quot;font-size: 16px;&quot;&gt;recvfrom接收数据&lt;br&gt;&lt;/span&gt;" style="rounded=1;whiteSpace=wrap;html=1;verticalAlign=middle;" vertex="1" parent="1">
          <mxGeometry x="-815.25" y="8410" width="159.5" height="45" as="geometry" />
        </mxCell>
        <mxCell id="BzhLNjvLBWkgz3VRTSKQ-74" style="edgeStyle=orthogonalEdgeStyle;rounded=0;orthogonalLoop=1;jettySize=auto;html=1;entryX=0;entryY=0.5;entryDx=0;entryDy=0;" edge="1" parent="1" source="BzhLNjvLBWkgz3VRTSKQ-18" target="BzhLNjvLBWkgz3VRTSKQ-41">
          <mxGeometry relative="1" as="geometry" />
        </mxCell>
        <mxCell id="BzhLNjvLBWkgz3VRTSKQ-18" value="&lt;span style=&quot;font-size: 16px;&quot;&gt;算法处理线程&lt;br&gt;&lt;/span&gt;" style="rounded=1;whiteSpace=wrap;html=1;verticalAlign=top;" vertex="1" parent="1">
          <mxGeometry x="-560" y="8210" width="277.5" height="1300" as="geometry" />
        </mxCell>
        <mxCell id="BzhLNjvLBWkgz3VRTSKQ-22" style="edgeStyle=orthogonalEdgeStyle;rounded=0;orthogonalLoop=1;jettySize=auto;html=1;" edge="1" parent="1" source="BzhLNjvLBWkgz3VRTSKQ-23" target="BzhLNjvLBWkgz3VRTSKQ-25">
          <mxGeometry relative="1" as="geometry" />
        </mxCell>
        <mxCell id="BzhLNjvLBWkgz3VRTSKQ-23" value="&lt;span style=&quot;font-size: 16px;&quot;&gt;阻塞等待信号量&lt;br&gt;&lt;/span&gt;" style="rounded=1;whiteSpace=wrap;html=1;verticalAlign=middle;" vertex="1" parent="1">
          <mxGeometry x="-476.5" y="8265" width="156.5" height="60" as="geometry" />
        </mxCell>
        <mxCell id="BzhLNjvLBWkgz3VRTSKQ-24" style="edgeStyle=orthogonalEdgeStyle;rounded=0;orthogonalLoop=1;jettySize=auto;html=1;" edge="1" parent="1" source="BzhLNjvLBWkgz3VRTSKQ-25" target="BzhLNjvLBWkgz3VRTSKQ-27">
          <mxGeometry relative="1" as="geometry" />
        </mxCell>
        <mxCell id="BzhLNjvLBWkgz3VRTSKQ-25" value="&lt;span style=&quot;font-size: 16px;&quot;&gt;从队列取&lt;br&gt;音频采集数据&lt;br&gt;&lt;/span&gt;" style="rounded=1;whiteSpace=wrap;html=1;verticalAlign=middle;" vertex="1" parent="1">
          <mxGeometry x="-476.5" y="8365" width="156.5" height="60" as="geometry" />
        </mxCell>
        <mxCell id="BzhLNjvLBWkgz3VRTSKQ-26" style="edgeStyle=orthogonalEdgeStyle;rounded=0;orthogonalLoop=1;jettySize=auto;html=1;" edge="1" parent="1" source="BzhLNjvLBWkgz3VRTSKQ-27" target="BzhLNjvLBWkgz3VRTSKQ-29">
          <mxGeometry relative="1" as="geometry" />
        </mxCell>
        <mxCell id="BzhLNjvLBWkgz3VRTSKQ-27" value="&lt;span style=&quot;font-size: 16px;&quot;&gt;声源定位算法处理&lt;br&gt;&lt;/span&gt;" style="rounded=1;whiteSpace=wrap;html=1;verticalAlign=middle;" vertex="1" parent="1">
          <mxGeometry x="-476.5" y="8455" width="156.5" height="60" as="geometry" />
        </mxCell>
        <mxCell id="BzhLNjvLBWkgz3VRTSKQ-28" style="edgeStyle=orthogonalEdgeStyle;rounded=0;orthogonalLoop=1;jettySize=auto;html=1;" edge="1" parent="1" source="BzhLNjvLBWkgz3VRTSKQ-29" target="BzhLNjvLBWkgz3VRTSKQ-31">
          <mxGeometry relative="1" as="geometry" />
        </mxCell>
        <mxCell id="BzhLNjvLBWkgz3VRTSKQ-29" value="&lt;span style=&quot;font-size: 16px;&quot;&gt;声源定位结果png图像&lt;br&gt;&lt;/span&gt;" style="rounded=1;whiteSpace=wrap;html=1;verticalAlign=middle;" vertex="1" parent="1">
          <mxGeometry x="-476.5" y="8545" width="156.5" height="60" as="geometry" />
        </mxCell>
        <mxCell id="BzhLNjvLBWkgz3VRTSKQ-77" style="edgeStyle=orthogonalEdgeStyle;rounded=0;orthogonalLoop=1;jettySize=auto;html=1;entryX=0.5;entryY=0;entryDx=0;entryDy=0;" edge="1" parent="1" source="BzhLNjvLBWkgz3VRTSKQ-31" target="BzhLNjvLBWkgz3VRTSKQ-35">
          <mxGeometry relative="1" as="geometry" />
        </mxCell>
        <mxCell id="BzhLNjvLBWkgz3VRTSKQ-31" value="&lt;span style=&quot;font-size: 16px;&quot;&gt;Lp声压级计算&lt;br&gt;&lt;/span&gt;" style="rounded=1;whiteSpace=wrap;html=1;verticalAlign=middle;" vertex="1" parent="1">
          <mxGeometry x="-476.5" y="8635" width="156.5" height="60" as="geometry" />
        </mxCell>
        <mxCell id="BzhLNjvLBWkgz3VRTSKQ-35" value="&lt;span style=&quot;font-size: 16px;&quot;&gt;云平台交互线程&lt;br&gt;的回调函数&lt;br&gt;&lt;/span&gt;" style="rounded=1;whiteSpace=wrap;html=1;verticalAlign=top;strokeColor=#ff0000;" vertex="1" parent="1">
          <mxGeometry x="-508" y="8730" width="218" height="560" as="geometry" />
        </mxCell>
        <mxCell id="BzhLNjvLBWkgz3VRTSKQ-86" style="edgeStyle=orthogonalEdgeStyle;rounded=0;orthogonalLoop=1;jettySize=auto;html=1;entryX=0.5;entryY=0;entryDx=0;entryDy=0;" edge="1" parent="1" source="BzhLNjvLBWkgz3VRTSKQ-36" target="BzhLNjvLBWkgz3VRTSKQ-37">
          <mxGeometry relative="1" as="geometry" />
        </mxCell>
        <mxCell id="BzhLNjvLBWkgz3VRTSKQ-36" value="&lt;span style=&quot;font-size: 16px;&quot;&gt;申请内存&lt;br&gt;保存声源定位结果png图像&lt;br&gt;&lt;/span&gt;" style="rounded=1;whiteSpace=wrap;html=1;verticalAlign=middle;" vertex="1" parent="1">
          <mxGeometry x="-496.25" y="9090" width="146.5" height="60" as="geometry" />
        </mxCell>
        <mxCell id="BzhLNjvLBWkgz3VRTSKQ-87" style="edgeStyle=orthogonalEdgeStyle;rounded=0;orthogonalLoop=1;jettySize=auto;html=1;entryX=0.5;entryY=0;entryDx=0;entryDy=0;" edge="1" parent="1" source="BzhLNjvLBWkgz3VRTSKQ-37" target="BzhLNjvLBWkgz3VRTSKQ-40">
          <mxGeometry relative="1" as="geometry" />
        </mxCell>
        <mxCell id="BzhLNjvLBWkgz3VRTSKQ-37" value="&lt;span style=&quot;font-size: 16px;&quot;&gt;放入队列&lt;br&gt;发送信号量&lt;br&gt;&lt;/span&gt;" style="rounded=1;whiteSpace=wrap;html=1;verticalAlign=middle;" vertex="1" parent="1">
          <mxGeometry x="-476.5" y="9190" width="107" height="60" as="geometry" />
        </mxCell>
        <mxCell id="BzhLNjvLBWkgz3VRTSKQ-102" style="edgeStyle=orthogonalEdgeStyle;rounded=0;orthogonalLoop=1;jettySize=auto;html=1;entryX=0;entryY=0.5;entryDx=0;entryDy=0;" edge="1" parent="1" source="BzhLNjvLBWkgz3VRTSKQ-40" target="BzhLNjvLBWkgz3VRTSKQ-23">
          <mxGeometry relative="1" as="geometry">
            <Array as="points">
              <mxPoint x="-540" y="9370" />
              <mxPoint x="-540" y="8295" />
            </Array>
          </mxGeometry>
        </mxCell>
        <mxCell id="BzhLNjvLBWkgz3VRTSKQ-40" value="&lt;span style=&quot;font-size: 16px;&quot;&gt;释放音频采集线程中申请的内存&lt;br&gt;&lt;/span&gt;" style="rounded=1;whiteSpace=wrap;html=1;verticalAlign=middle;" vertex="1" parent="1">
          <mxGeometry x="-483.75" y="9340" width="120.5" height="60" as="geometry" />
        </mxCell>
        <mxCell id="BzhLNjvLBWkgz3VRTSKQ-41" value="&lt;span style=&quot;font-size: 16px;&quot;&gt;云平台交互线程&lt;br&gt;&lt;/span&gt;" style="rounded=1;whiteSpace=wrap;html=1;verticalAlign=top;" vertex="1" parent="1">
          <mxGeometry x="-222" y="8210" width="292" height="1300" as="geometry" />
        </mxCell>
        <mxCell id="BzhLNjvLBWkgz3VRTSKQ-42" style="edgeStyle=orthogonalEdgeStyle;rounded=0;orthogonalLoop=1;jettySize=auto;html=1;entryX=0.5;entryY=0;entryDx=0;entryDy=0;" edge="1" parent="1" source="BzhLNjvLBWkgz3VRTSKQ-43" target="BzhLNjvLBWkgz3VRTSKQ-47">
          <mxGeometry relative="1" as="geometry" />
        </mxCell>
        <mxCell id="BzhLNjvLBWkgz3VRTSKQ-43" value="&lt;span style=&quot;font-size: 16px;&quot;&gt;阻塞等待信号量&lt;br&gt;&lt;/span&gt;" style="rounded=1;whiteSpace=wrap;html=1;verticalAlign=middle;" vertex="1" parent="1">
          <mxGeometry x="-208.5" y="8430" width="148" height="45" as="geometry" />
        </mxCell>
        <mxCell id="BzhLNjvLBWkgz3VRTSKQ-44" style="edgeStyle=orthogonalEdgeStyle;rounded=0;orthogonalLoop=1;jettySize=auto;html=1;" edge="1" parent="1" source="BzhLNjvLBWkgz3VRTSKQ-45" target="BzhLNjvLBWkgz3VRTSKQ-49">
          <mxGeometry relative="1" as="geometry" />
        </mxCell>
        <mxCell id="BzhLNjvLBWkgz3VRTSKQ-45" value="&lt;span style=&quot;font-size: 16px;&quot;&gt;声源定位png图像&lt;br&gt;转base64格式&lt;br&gt;&lt;/span&gt;" style="rounded=1;whiteSpace=wrap;html=1;verticalAlign=middle;" vertex="1" parent="1">
          <mxGeometry x="-210" y="8590" width="150" height="50" as="geometry" />
        </mxCell>
        <mxCell id="BzhLNjvLBWkgz3VRTSKQ-46" style="edgeStyle=orthogonalEdgeStyle;rounded=0;orthogonalLoop=1;jettySize=auto;html=1;entryX=0.5;entryY=0;entryDx=0;entryDy=0;" edge="1" parent="1" source="BzhLNjvLBWkgz3VRTSKQ-47" target="BzhLNjvLBWkgz3VRTSKQ-45">
          <mxGeometry relative="1" as="geometry" />
        </mxCell>
        <mxCell id="BzhLNjvLBWkgz3VRTSKQ-47" value="&lt;span style=&quot;font-size: 16px;&quot;&gt;从队列取数据&lt;br&gt;&lt;/span&gt;" style="rounded=1;whiteSpace=wrap;html=1;verticalAlign=middle;" vertex="1" parent="1">
          <mxGeometry x="-206.38" y="8510" width="143.75" height="50" as="geometry" />
        </mxCell>
        <mxCell id="BzhLNjvLBWkgz3VRTSKQ-48" style="edgeStyle=orthogonalEdgeStyle;rounded=0;orthogonalLoop=1;jettySize=auto;html=1;entryX=0.5;entryY=0;entryDx=0;entryDy=0;" edge="1" parent="1" source="BzhLNjvLBWkgz3VRTSKQ-49" target="BzhLNjvLBWkgz3VRTSKQ-55">
          <mxGeometry relative="1" as="geometry" />
        </mxCell>
        <mxCell id="BzhLNjvLBWkgz3VRTSKQ-49" value="&lt;span style=&quot;font-size: 16px;&quot;&gt;封装json协议格式&lt;br&gt;&lt;/span&gt;" style="rounded=1;whiteSpace=wrap;html=1;verticalAlign=middle;" vertex="1" parent="1">
          <mxGeometry x="-210" y="8670" width="150" height="40" as="geometry" />
        </mxCell>
        <mxCell id="BzhLNjvLBWkgz3VRTSKQ-50" style="edgeStyle=orthogonalEdgeStyle;rounded=0;orthogonalLoop=1;jettySize=auto;html=1;entryX=0.5;entryY=0;entryDx=0;entryDy=0;" edge="1" parent="1" source="BzhLNjvLBWkgz3VRTSKQ-51" target="BzhLNjvLBWkgz3VRTSKQ-53">
          <mxGeometry relative="1" as="geometry" />
        </mxCell>
        <mxCell id="BzhLNjvLBWkgz3VRTSKQ-130" style="edgeStyle=orthogonalEdgeStyle;rounded=0;orthogonalLoop=1;jettySize=auto;html=1;entryX=0.5;entryY=0;entryDx=0;entryDy=0;" edge="1" parent="1" source="BzhLNjvLBWkgz3VRTSKQ-51" target="BzhLNjvLBWkgz3VRTSKQ-115">
          <mxGeometry relative="1" as="geometry">
            <Array as="points">
              <mxPoint x="10" y="8287" />
              <mxPoint x="10" y="8910" />
              <mxPoint x="-76" y="8910" />
            </Array>
          </mxGeometry>
        </mxCell>
        <mxCell id="BzhLNjvLBWkgz3VRTSKQ-51" value="&lt;span style=&quot;font-size: 16px;&quot;&gt;mqtt初始化&lt;br&gt;&lt;/span&gt;" style="rounded=1;whiteSpace=wrap;html=1;verticalAlign=middle;" vertex="1" parent="1">
          <mxGeometry x="-203.75" y="8265" width="138.5" height="45" as="geometry" />
        </mxCell>
        <mxCell id="BzhLNjvLBWkgz3VRTSKQ-52" style="edgeStyle=orthogonalEdgeStyle;rounded=0;orthogonalLoop=1;jettySize=auto;html=1;entryX=0.5;entryY=0;entryDx=0;entryDy=0;" edge="1" parent="1" source="BzhLNjvLBWkgz3VRTSKQ-53" target="BzhLNjvLBWkgz3VRTSKQ-43">
          <mxGeometry relative="1" as="geometry" />
        </mxCell>
        <mxCell id="BzhLNjvLBWkgz3VRTSKQ-53" value="&lt;span style=&quot;font-size: 16px;&quot;&gt;订阅reply主题&lt;br&gt;注册reply回调函数&lt;br&gt;&lt;/span&gt;" style="rounded=1;whiteSpace=wrap;html=1;verticalAlign=middle;" vertex="1" parent="1">
          <mxGeometry x="-208.5" y="8340" width="148.5" height="60" as="geometry" />
        </mxCell>
        <mxCell id="BzhLNjvLBWkgz3VRTSKQ-54" style="edgeStyle=orthogonalEdgeStyle;rounded=0;orthogonalLoop=1;jettySize=auto;html=1;entryX=0.5;entryY=0;entryDx=0;entryDy=0;" edge="1" parent="1" source="BzhLNjvLBWkgz3VRTSKQ-55" target="BzhLNjvLBWkgz3VRTSKQ-57">
          <mxGeometry relative="1" as="geometry" />
        </mxCell>
        <mxCell id="BzhLNjvLBWkgz3VRTSKQ-55" value="&lt;span style=&quot;font-size: 16px;&quot;&gt;发布report主题&lt;br&gt;传输声源定位图像&lt;br&gt;&lt;/span&gt;" style="rounded=1;whiteSpace=wrap;html=1;verticalAlign=middle;" vertex="1" parent="1">
          <mxGeometry x="-211.6" y="8740" width="153.19" height="45" as="geometry" />
        </mxCell>
        <mxCell id="BzhLNjvLBWkgz3VRTSKQ-114" style="edgeStyle=orthogonalEdgeStyle;rounded=0;orthogonalLoop=1;jettySize=auto;html=1;exitX=1;exitY=0.5;exitDx=0;exitDy=0;entryX=1;entryY=0.5;entryDx=0;entryDy=0;" edge="1" parent="1" source="BzhLNjvLBWkgz3VRTSKQ-57" target="BzhLNjvLBWkgz3VRTSKQ-43">
          <mxGeometry relative="1" as="geometry">
            <mxPoint x="100" y="8450" as="targetPoint" />
            <Array as="points">
              <mxPoint x="-30" y="8850" />
              <mxPoint x="-30" y="8453" />
            </Array>
          </mxGeometry>
        </mxCell>
        <mxCell id="BzhLNjvLBWkgz3VRTSKQ-57" value="&lt;span style=&quot;font-size: 16px;&quot;&gt;释放算法处理线程中&lt;br&gt;申请的内存&lt;br&gt;&lt;/span&gt;" style="rounded=1;whiteSpace=wrap;html=1;verticalAlign=middle;" vertex="1" parent="1">
          <mxGeometry x="-210" y="8820" width="150" height="60" as="geometry" />
        </mxCell>
        <mxCell id="BzhLNjvLBWkgz3VRTSKQ-67" value="&lt;span style=&quot;font-size: 16px;&quot;&gt;算法处理线程&lt;br&gt;的回调函数&lt;br&gt;&lt;/span&gt;" style="rounded=1;whiteSpace=wrap;html=1;verticalAlign=top;strokeColor=#ff0000;" vertex="1" parent="1">
          <mxGeometry x="-825.38" y="8780" width="176.38" height="230" as="geometry" />
        </mxCell>
        <mxCell id="BzhLNjvLBWkgz3VRTSKQ-79" style="edgeStyle=orthogonalEdgeStyle;rounded=0;orthogonalLoop=1;jettySize=auto;html=1;entryX=0.5;entryY=0;entryDx=0;entryDy=0;" edge="1" parent="1" source="BzhLNjvLBWkgz3VRTSKQ-68" target="BzhLNjvLBWkgz3VRTSKQ-69">
          <mxGeometry relative="1" as="geometry" />
        </mxCell>
        <mxCell id="BzhLNjvLBWkgz3VRTSKQ-68" value="&lt;span style=&quot;font-size: 16px;&quot;&gt;申请内存&lt;br&gt;保存数据包&lt;br&gt;&lt;/span&gt;" style="rounded=1;whiteSpace=wrap;html=1;verticalAlign=middle;" vertex="1" parent="1">
          <mxGeometry x="-788.76" y="8840" width="107" height="60" as="geometry" />
        </mxCell>
        <mxCell id="BzhLNjvLBWkgz3VRTSKQ-111" style="edgeStyle=orthogonalEdgeStyle;rounded=0;orthogonalLoop=1;jettySize=auto;html=1;exitX=0;exitY=0.5;exitDx=0;exitDy=0;entryX=0;entryY=0.5;entryDx=0;entryDy=0;" edge="1" parent="1" source="BzhLNjvLBWkgz3VRTSKQ-69" target="BzhLNjvLBWkgz3VRTSKQ-10">
          <mxGeometry relative="1" as="geometry">
            <Array as="points">
              <mxPoint x="-852" y="8965" />
              <mxPoint x="-852" y="8360" />
            </Array>
          </mxGeometry>
        </mxCell>
        <mxCell id="BzhLNjvLBWkgz3VRTSKQ-69" value="&lt;span style=&quot;font-size: 16px;&quot;&gt;放入队列&lt;br&gt;发送信号量&lt;br&gt;&lt;/span&gt;" style="rounded=1;whiteSpace=wrap;html=1;verticalAlign=middle;" vertex="1" parent="1">
          <mxGeometry x="-788.76" y="8935" width="107" height="60" as="geometry" />
        </mxCell>
        <mxCell id="BzhLNjvLBWkgz3VRTSKQ-107" style="edgeStyle=orthogonalEdgeStyle;rounded=0;orthogonalLoop=1;jettySize=auto;html=1;entryX=0.5;entryY=0;entryDx=0;entryDy=0;" edge="1" parent="1" source="BzhLNjvLBWkgz3VRTSKQ-70" target="BzhLNjvLBWkgz3VRTSKQ-72">
          <mxGeometry relative="1" as="geometry" />
        </mxCell>
        <mxCell id="BzhLNjvLBWkgz3VRTSKQ-70" value="&lt;span style=&quot;font-size: 16px;&quot;&gt;申请内存&lt;br&gt;保存音频采集数据&lt;br&gt;&lt;/span&gt;" style="rounded=1;whiteSpace=wrap;html=1;verticalAlign=middle;" vertex="1" parent="1">
          <mxGeometry x="-814.99" y="8490" width="157" height="50" as="geometry" />
        </mxCell>
        <mxCell id="BzhLNjvLBWkgz3VRTSKQ-112" style="edgeStyle=orthogonalEdgeStyle;rounded=0;orthogonalLoop=1;jettySize=auto;html=1;entryX=0.5;entryY=0;entryDx=0;entryDy=0;" edge="1" parent="1" source="BzhLNjvLBWkgz3VRTSKQ-71" target="BzhLNjvLBWkgz3VRTSKQ-67">
          <mxGeometry relative="1" as="geometry" />
        </mxCell>
        <mxCell id="BzhLNjvLBWkgz3VRTSKQ-71" value="&lt;span style=&quot;font-size: 16px;&quot;&gt;协议解析结果&lt;br&gt;数据包模块类别&lt;br&gt;&lt;/span&gt;" style="rounded=1;whiteSpace=wrap;html=1;verticalAlign=middle;" vertex="1" parent="1">
          <mxGeometry x="-821.5" y="8670" width="169.49" height="60" as="geometry" />
        </mxCell>
        <mxCell id="BzhLNjvLBWkgz3VRTSKQ-108" style="edgeStyle=orthogonalEdgeStyle;rounded=0;orthogonalLoop=1;jettySize=auto;html=1;entryX=0.5;entryY=0;entryDx=0;entryDy=0;" edge="1" parent="1" source="BzhLNjvLBWkgz3VRTSKQ-72" target="BzhLNjvLBWkgz3VRTSKQ-71">
          <mxGeometry relative="1" as="geometry" />
        </mxCell>
        <mxCell id="BzhLNjvLBWkgz3VRTSKQ-72" value="&lt;span style=&quot;font-size: 16px;&quot;&gt;协议解析&lt;br&gt;&lt;/span&gt;" style="rounded=1;whiteSpace=wrap;html=1;verticalAlign=middle;" vertex="1" parent="1">
          <mxGeometry x="-819.5" y="8580" width="165.5" height="45" as="geometry" />
        </mxCell>
        <mxCell id="BzhLNjvLBWkgz3VRTSKQ-84" style="edgeStyle=orthogonalEdgeStyle;rounded=0;orthogonalLoop=1;jettySize=auto;html=1;" edge="1" parent="1" source="BzhLNjvLBWkgz3VRTSKQ-75" target="BzhLNjvLBWkgz3VRTSKQ-83">
          <mxGeometry relative="1" as="geometry" />
        </mxCell>
        <mxCell id="BzhLNjvLBWkgz3VRTSKQ-75" value="&lt;span style=&quot;font-size: 16px;&quot;&gt;发布report主题&lt;br&gt;超标事件&lt;br&gt;&lt;/span&gt;" style="rounded=1;whiteSpace=wrap;html=1;verticalAlign=middle;" vertex="1" parent="1">
          <mxGeometry x="-493.5" y="8880" width="140" height="60" as="geometry" />
        </mxCell>
        <mxCell id="BzhLNjvLBWkgz3VRTSKQ-81" style="edgeStyle=orthogonalEdgeStyle;rounded=0;orthogonalLoop=1;jettySize=auto;html=1;entryX=0.5;entryY=0;entryDx=0;entryDy=0;" edge="1" parent="1" source="BzhLNjvLBWkgz3VRTSKQ-78" target="BzhLNjvLBWkgz3VRTSKQ-75">
          <mxGeometry relative="1" as="geometry" />
        </mxCell>
        <mxCell id="BzhLNjvLBWkgz3VRTSKQ-93" style="edgeStyle=orthogonalEdgeStyle;rounded=0;orthogonalLoop=1;jettySize=auto;html=1;exitX=1;exitY=0.5;exitDx=0;exitDy=0;" edge="1" parent="1" source="BzhLNjvLBWkgz3VRTSKQ-78">
          <mxGeometry relative="1" as="geometry">
            <mxPoint x="-334.47" y="8807.499999999998" as="sourcePoint" />
            <mxPoint x="-425" y="8960" as="targetPoint" />
            <Array as="points">
              <mxPoint x="-320" y="8808" />
              <mxPoint x="-320" y="8960" />
            </Array>
          </mxGeometry>
        </mxCell>
        <mxCell id="BzhLNjvLBWkgz3VRTSKQ-78" value="&lt;font style=&quot;font-size: 16px;&quot;&gt;是否噪声超标&lt;/font&gt;" style="rhombus;whiteSpace=wrap;html=1;" vertex="1" parent="1">
          <mxGeometry x="-498" y="8770" width="150" height="75" as="geometry" />
        </mxCell>
        <mxCell id="BzhLNjvLBWkgz3VRTSKQ-82" value="&lt;font style=&quot;font-size: 16px;&quot;&gt;是&lt;/font&gt;" style="text;strokeColor=none;align=center;fillColor=none;html=1;verticalAlign=middle;whiteSpace=wrap;rounded=0;" vertex="1" parent="1">
          <mxGeometry x="-435" y="8850" width="60" height="30" as="geometry" />
        </mxCell>
        <mxCell id="BzhLNjvLBWkgz3VRTSKQ-85" style="edgeStyle=orthogonalEdgeStyle;rounded=0;orthogonalLoop=1;jettySize=auto;html=1;entryX=0.5;entryY=0;entryDx=0;entryDy=0;" edge="1" parent="1" source="BzhLNjvLBWkgz3VRTSKQ-83" target="BzhLNjvLBWkgz3VRTSKQ-36">
          <mxGeometry relative="1" as="geometry" />
        </mxCell>
        <mxCell id="BzhLNjvLBWkgz3VRTSKQ-98" style="edgeStyle=orthogonalEdgeStyle;rounded=0;orthogonalLoop=1;jettySize=auto;html=1;exitX=1;exitY=0.5;exitDx=0;exitDy=0;" edge="1" parent="1">
          <mxGeometry relative="1" as="geometry">
            <mxPoint x="-347.03" y="9012.499999999998" as="sourcePoint" />
            <mxPoint x="-423" y="9270" as="targetPoint" />
            <Array as="points">
              <mxPoint x="-320" y="9013" />
              <mxPoint x="-320" y="9270" />
            </Array>
          </mxGeometry>
        </mxCell>
        <mxCell id="BzhLNjvLBWkgz3VRTSKQ-83" value="&lt;font style=&quot;font-size: 16px;&quot;&gt;开始声源定位flag==1&lt;/font&gt;" style="rhombus;whiteSpace=wrap;html=1;" vertex="1" parent="1">
          <mxGeometry x="-498.5" y="8975" width="150" height="75" as="geometry" />
        </mxCell>
        <mxCell id="BzhLNjvLBWkgz3VRTSKQ-88" value="&lt;font style=&quot;font-size: 16px;&quot;&gt;是&lt;/font&gt;" style="text;strokeColor=none;align=center;fillColor=none;html=1;verticalAlign=middle;whiteSpace=wrap;rounded=0;" vertex="1" parent="1">
          <mxGeometry x="-435" y="9050" width="60" height="30" as="geometry" />
        </mxCell>
        <mxCell id="BzhLNjvLBWkgz3VRTSKQ-94" value="&lt;font style=&quot;font-size: 16px;&quot;&gt;否&lt;/font&gt;" style="text;strokeColor=none;align=center;fillColor=none;html=1;verticalAlign=middle;whiteSpace=wrap;rounded=0;" vertex="1" parent="1">
          <mxGeometry x="-360" y="8780" width="60" height="30" as="geometry" />
        </mxCell>
        <mxCell id="BzhLNjvLBWkgz3VRTSKQ-99" value="&lt;font style=&quot;font-size: 16px;&quot;&gt;否&lt;/font&gt;" style="text;strokeColor=none;align=center;fillColor=none;html=1;verticalAlign=middle;whiteSpace=wrap;rounded=0;" vertex="1" parent="1">
          <mxGeometry x="-362.75" y="8980" width="60" height="30" as="geometry" />
        </mxCell>
        <mxCell id="BzhLNjvLBWkgz3VRTSKQ-115" value="&lt;span style=&quot;font-size: 16px;&quot;&gt;MQTTCliet库线程&lt;br&gt;&lt;/span&gt;" style="rounded=1;whiteSpace=wrap;html=1;verticalAlign=top;strokeColor=#ff0000;" vertex="1" parent="1">
          <mxGeometry x="-203.75" y="8960" width="255" height="510" as="geometry" />
        </mxCell>
        <mxCell id="BzhLNjvLBWkgz3VRTSKQ-116" value="&lt;span style=&quot;font-size: 16px;&quot;&gt;超时检测&lt;br&gt;&lt;/span&gt;" style="rounded=1;whiteSpace=wrap;html=1;verticalAlign=middle;" vertex="1" parent="1">
          <mxGeometry x="-179.75" y="9320" width="160" height="40" as="geometry" />
        </mxCell>
        <mxCell id="BzhLNjvLBWkgz3VRTSKQ-117" value="&lt;span style=&quot;font-size: 16px;&quot;&gt;断线重连&lt;br&gt;重新订阅主题&lt;br&gt;&lt;/span&gt;" style="rounded=1;whiteSpace=wrap;html=1;verticalAlign=middle;" vertex="1" parent="1">
          <mxGeometry x="-182.75" y="9390" width="170" height="60" as="geometry" />
        </mxCell>
        <mxCell id="BzhLNjvLBWkgz3VRTSKQ-118" value="&lt;span style=&quot;font-size: 16px;&quot;&gt;reply主题&lt;br&gt;回调函数&lt;br&gt;&lt;/span&gt;" style="rounded=1;whiteSpace=wrap;html=1;verticalAlign=top;" vertex="1" parent="1">
          <mxGeometry x="-183.25" y="9000" width="204.5" height="300" as="geometry" />
        </mxCell>
        <mxCell id="BzhLNjvLBWkgz3VRTSKQ-125" style="edgeStyle=orthogonalEdgeStyle;rounded=0;orthogonalLoop=1;jettySize=auto;html=1;entryX=0.5;entryY=0;entryDx=0;entryDy=0;" edge="1" parent="1" source="BzhLNjvLBWkgz3VRTSKQ-120" target="BzhLNjvLBWkgz3VRTSKQ-121">
          <mxGeometry relative="1" as="geometry" />
        </mxCell>
        <mxCell id="BzhLNjvLBWkgz3VRTSKQ-126" style="edgeStyle=orthogonalEdgeStyle;rounded=0;orthogonalLoop=1;jettySize=auto;html=1;entryX=1;entryY=0.5;entryDx=0;entryDy=0;" edge="1" parent="1" source="BzhLNjvLBWkgz3VRTSKQ-120" target="BzhLNjvLBWkgz3VRTSKQ-124">
          <mxGeometry relative="1" as="geometry">
            <Array as="points">
              <mxPoint x="4.250000000000004" y="9087" />
              <mxPoint x="4.250000000000004" y="9240" />
            </Array>
          </mxGeometry>
        </mxCell>
        <mxCell id="BzhLNjvLBWkgz3VRTSKQ-120" value="&lt;font style=&quot;font-size: 16px;&quot;&gt;是否开启声源定位&lt;/font&gt;" style="rhombus;whiteSpace=wrap;html=1;" vertex="1" parent="1">
          <mxGeometry x="-172.75" y="9050" width="150" height="75" as="geometry" />
        </mxCell>
        <mxCell id="BzhLNjvLBWkgz3VRTSKQ-121" value="&lt;span style=&quot;font-size: 16px;&quot;&gt;开始声源定位flag置1&lt;br&gt;&lt;/span&gt;" style="rounded=1;whiteSpace=wrap;html=1;verticalAlign=middle;" vertex="1" parent="1">
          <mxGeometry x="-177.75" y="9150" width="160" height="40" as="geometry" />
        </mxCell>
        <mxCell id="BzhLNjvLBWkgz3VRTSKQ-124" value="&lt;span style=&quot;font-size: 16px;&quot;&gt;开始声源定位flag置0&lt;br&gt;&lt;/span&gt;" style="rounded=1;whiteSpace=wrap;html=1;verticalAlign=middle;" vertex="1" parent="1">
          <mxGeometry x="-175.25" y="9220" width="160" height="40" as="geometry" />
        </mxCell>
        <mxCell id="BzhLNjvLBWkgz3VRTSKQ-127" value="&lt;font style=&quot;font-size: 16px;&quot;&gt;是&lt;/font&gt;" style="text;strokeColor=none;align=center;fillColor=none;html=1;verticalAlign=middle;whiteSpace=wrap;rounded=0;" vertex="1" parent="1">
          <mxGeometry x="-111" y="9120" width="60" height="30" as="geometry" />
        </mxCell>
        <mxCell id="BzhLNjvLBWkgz3VRTSKQ-128" value="&lt;font style=&quot;font-size: 16px;&quot;&gt;否&lt;/font&gt;" style="text;strokeColor=none;align=center;fillColor=none;html=1;verticalAlign=middle;whiteSpace=wrap;rounded=0;" vertex="1" parent="1">
          <mxGeometry x="-45.24999999999999" y="9060" width="60" height="30" as="geometry" />
        </mxCell>
        <mxCell id="BzhLNjvLBWkgz3VRTSKQ-133" value="&lt;span style=&quot;font-size: 16px;&quot;&gt;浏览器以视频的方式显示声源成像图&lt;br&gt;&lt;/span&gt;" style="rounded=1;whiteSpace=wrap;html=1;verticalAlign=middle;" vertex="1" parent="1">
          <mxGeometry x="-272.5" y="5250" width="140" height="60" as="geometry" />
        </mxCell>
        <mxCell id="BzhLNjvLBWkgz3VRTSKQ-136" value="&lt;span style=&quot;font-size: 16px;&quot;&gt;Lp声压级计算&lt;br&gt;噪声超标事件检测&lt;br&gt;&lt;/span&gt;" style="rounded=1;whiteSpace=wrap;html=1;verticalAlign=middle;" vertex="1" parent="1">
          <mxGeometry x="-528.25" y="5250" width="140" height="60" as="geometry" />
        </mxCell>
        <mxCell id="BzhLNjvLBWkgz3VRTSKQ-161" style="edgeStyle=orthogonalEdgeStyle;rounded=0;orthogonalLoop=1;jettySize=auto;html=1;exitX=0.875;exitY=0.5;exitDx=0;exitDy=0;exitPerimeter=0;entryX=0.5;entryY=0;entryDx=0;entryDy=0;" edge="1" parent="1" source="BzhLNjvLBWkgz3VRTSKQ-138" target="BzhLNjvLBWkgz3VRTSKQ-160">
          <mxGeometry relative="1" as="geometry" />
        </mxCell>
        <mxCell id="BzhLNjvLBWkgz3VRTSKQ-163" style="edgeStyle=orthogonalEdgeStyle;rounded=0;orthogonalLoop=1;jettySize=auto;html=1;exitX=0.078;exitY=0.5;exitDx=0;exitDy=0;exitPerimeter=0;" edge="1" parent="1" source="BzhLNjvLBWkgz3VRTSKQ-138" target="BzhLNjvLBWkgz3VRTSKQ-162">
          <mxGeometry relative="1" as="geometry" />
        </mxCell>
        <mxCell id="BzhLNjvLBWkgz3VRTSKQ-138" value="公网" style="ellipse;shape=cloud;whiteSpace=wrap;html=1;" vertex="1" parent="1">
          <mxGeometry x="-582" y="5360" width="192" height="90" as="geometry" />
        </mxCell>
        <mxCell id="BzhLNjvLBWkgz3VRTSKQ-139" value="&lt;span style=&quot;font-size: 16px;&quot;&gt;路由器&lt;br&gt;&lt;/span&gt;" style="rounded=1;whiteSpace=wrap;html=1;verticalAlign=middle;" vertex="1" parent="1">
          <mxGeometry x="-930.5" y="5565" width="270" height="50" as="geometry" />
        </mxCell>
        <mxCell id="BzhLNjvLBWkgz3VRTSKQ-148" style="edgeStyle=orthogonalEdgeStyle;rounded=0;orthogonalLoop=1;jettySize=auto;html=1;entryX=0.5;entryY=1;entryDx=0;entryDy=0;startArrow=classic;startFill=1;" edge="1" parent="1" source="BzhLNjvLBWkgz3VRTSKQ-142" target="BzhLNjvLBWkgz3VRTSKQ-145">
          <mxGeometry relative="1" as="geometry" />
        </mxCell>
        <mxCell id="BzhLNjvLBWkgz3VRTSKQ-142" value="&lt;span style=&quot;font-size: 16px;&quot;&gt;麦克风采集设备&lt;br&gt;&lt;/span&gt;" style="rounded=1;whiteSpace=wrap;html=1;verticalAlign=middle;" vertex="1" parent="1">
          <mxGeometry x="-942.5" y="5785" width="140" height="60" as="geometry" />
        </mxCell>
        <mxCell id="BzhLNjvLBWkgz3VRTSKQ-154" style="edgeStyle=orthogonalEdgeStyle;rounded=0;orthogonalLoop=1;jettySize=auto;html=1;entryX=0.215;entryY=1;entryDx=0;entryDy=0;entryPerimeter=0;startArrow=classic;startFill=1;" edge="1" parent="1" source="BzhLNjvLBWkgz3VRTSKQ-145" target="BzhLNjvLBWkgz3VRTSKQ-139">
          <mxGeometry relative="1" as="geometry" />
        </mxCell>
        <mxCell id="BzhLNjvLBWkgz3VRTSKQ-145" value="&lt;span style=&quot;font-size: 16px;&quot;&gt;算法处理设备&lt;br&gt;&lt;/span&gt;" style="rounded=1;whiteSpace=wrap;html=1;verticalAlign=middle;" vertex="1" parent="1">
          <mxGeometry x="-942.5" y="5665" width="140" height="60" as="geometry" />
        </mxCell>
        <mxCell id="BzhLNjvLBWkgz3VRTSKQ-153" style="edgeStyle=orthogonalEdgeStyle;rounded=0;orthogonalLoop=1;jettySize=auto;html=1;entryX=0.75;entryY=1;entryDx=0;entryDy=0;startArrow=classic;startFill=1;" edge="1" parent="1" source="BzhLNjvLBWkgz3VRTSKQ-147" target="BzhLNjvLBWkgz3VRTSKQ-139">
          <mxGeometry relative="1" as="geometry" />
        </mxCell>
        <mxCell id="BzhLNjvLBWkgz3VRTSKQ-147" value="&lt;span style=&quot;font-size: 16px;&quot;&gt;海康摄像机&lt;br&gt;&lt;/span&gt;" style="rounded=1;whiteSpace=wrap;html=1;verticalAlign=middle;" vertex="1" parent="1">
          <mxGeometry x="-797.5" y="5665" width="140" height="60" as="geometry" />
        </mxCell>
        <mxCell id="BzhLNjvLBWkgz3VRTSKQ-149" value="&lt;div style=&quot;&quot;&gt;&lt;span style=&quot;font-size: 16px;&quot;&gt;千兆网口&lt;/span&gt;&lt;/div&gt;" style="text;html=1;align=center;verticalAlign=middle;resizable=0;points=[];autosize=1;strokeColor=none;fillColor=none;" vertex="1" parent="1">
          <mxGeometry x="-960.5" y="5745" width="90" height="30" as="geometry" />
        </mxCell>
        <mxCell id="BzhLNjvLBWkgz3VRTSKQ-151" value="&lt;div style=&quot;&quot;&gt;&lt;span style=&quot;font-size: 16px;&quot;&gt;千兆网口&lt;/span&gt;&lt;/div&gt;" style="text;html=1;align=center;verticalAlign=middle;resizable=0;points=[];autosize=1;strokeColor=none;fillColor=none;" vertex="1" parent="1">
          <mxGeometry x="-972.5" y="5625" width="90" height="30" as="geometry" />
        </mxCell>
        <mxCell id="BzhLNjvLBWkgz3VRTSKQ-155" value="&lt;div style=&quot;&quot;&gt;&lt;span style=&quot;font-size: 16px;&quot;&gt;千兆网口&lt;/span&gt;&lt;/div&gt;" style="text;html=1;align=center;verticalAlign=middle;resizable=0;points=[];autosize=1;strokeColor=none;fillColor=none;" vertex="1" parent="1">
          <mxGeometry x="-724.5" y="5625" width="90" height="30" as="geometry" />
        </mxCell>
        <mxCell id="BzhLNjvLBWkgz3VRTSKQ-158" style="edgeStyle=orthogonalEdgeStyle;rounded=0;orthogonalLoop=1;jettySize=auto;html=1;exitX=0.5;exitY=0;exitDx=0;exitDy=0;entryX=0.55;entryY=0.95;entryDx=0;entryDy=0;entryPerimeter=0;startArrow=classic;startFill=1;endArrow=none;endFill=0;" edge="1" parent="1" source="BzhLNjvLBWkgz3VRTSKQ-156" target="BzhLNjvLBWkgz3VRTSKQ-138">
          <mxGeometry relative="1" as="geometry" />
        </mxCell>
        <mxCell id="BzhLNjvLBWkgz3VRTSKQ-156" value="&lt;span style=&quot;font-size: 16px;&quot;&gt;服务器&lt;br&gt;&lt;br&gt;&lt;br&gt;&lt;br&gt;&lt;br&gt;&lt;br&gt;声学分析云平台&lt;br&gt;&lt;/span&gt;" style="rounded=1;whiteSpace=wrap;html=1;verticalAlign=top;" vertex="1" parent="1">
          <mxGeometry x="-548" y="5535" width="143" height="325" as="geometry" />
        </mxCell>
        <mxCell id="BzhLNjvLBWkgz3VRTSKQ-160" value="&lt;span style=&quot;font-size: 16px;&quot;&gt;用户&lt;br&gt;&lt;br&gt;&lt;br&gt;&lt;br&gt;&lt;br&gt;&lt;br&gt;浏览器登录&lt;br&gt;远程监测&lt;br&gt;&lt;/span&gt;" style="rounded=1;whiteSpace=wrap;html=1;verticalAlign=top;" vertex="1" parent="1">
          <mxGeometry x="-315.75" y="5535" width="143" height="325" as="geometry" />
        </mxCell>
      </root>
    </mxGraphModel>
  </diagram>
</mxfile>
